STARTFONT 2.1
COMMENT
COMMENT Converted from OpenType font ".\_Fonts\³ª´®°íµñÄÚµù.ttf" by "otf2bdf.exe 3.0".
COMMENT
FONT -FreeType-NanumGothicCoding-Medium-R-Normal--24-240-72-72-P-196-ISO10646-1
SIZE 24 72 72
FONTBOUNDINGBOX 24 26 0 -5
STARTPROPERTIES 19
FOUNDRY "FreeType"
FAMILY_NAME "NanumGothicCoding"
WEIGHT_NAME "Medium"
SLANT "R"
SETWIDTH_NAME "Normal"
ADD_STYLE_NAME ""
PIXEL_SIZE 24
POINT_SIZE 240
RESOLUTION_X 72
RESOLUTION_Y 72
SPACING "P"
AVERAGE_WIDTH 196
CHARSET_REGISTRY "ISO10646"
CHARSET_ENCODING "1"
FONT_ASCENT 19
FONT_DESCENT 4
COPYRIGHT "Copyright © 2009 NHN Corporation. All rights reserved. Font designed by Sandoll Communications Inc."
_OTF_FONTFILE ".\_Fonts\³ª´®°íµñÄÚµù.ttf"
_OTF_PSNAME "NanumGothicCoding"
ENDPROPERTIES
CHARS 12477
STARTCHAR 0000
ENCODING 0
SWIDTH 1000 0
DWIDTH 24 0
BBX 0 0 0 0
BITMAP
ENDCHAR
STARTCHAR 0001
ENCODING 1
SWIDTH 1000 0
DWIDTH 24 0
BBX 0 0 0 0
BITMAP
ENDCHAR
STARTCHAR 0002
ENCODING 2
SWIDTH 1000 0
DWIDTH 24 0
BBX 0 0 0 0
BITMAP
ENDCHAR
STARTCHAR 0003
ENCODING 3
SWIDTH 1000 0
DWIDTH 24 0
BBX 0 0 0 0
BITMAP
ENDCHAR
STARTCHAR 0004
ENCODING 4
SWIDTH 1000 0
DWIDTH 24 0
BBX 0 0 0 0
BITMAP
ENDCHAR
STARTCHAR 0005
ENCODING 5
SWIDTH 1000 0
DWIDTH 24 0
BBX 0 0 0 0
BITMAP
ENDCHAR
STARTCHAR 0006
ENCODING 6
SWIDTH 1000 0
DWIDTH 24 0
BBX 0 0 0 0
BITMAP
ENDCHAR
STARTCHAR 0007
ENCODING 7
SWIDTH 1000 0
DWIDTH 24 0
BBX 0 0 0 0
BITMAP
ENDCHAR
STARTCHAR 0008
ENCODING 8
SWIDTH 1000 0
DWIDTH 24 0
BBX 0 0 0 0
BITMAP
ENDCHAR
STARTCHAR 0009
ENCODING 9
SWIDTH 1000 0
DWIDTH 24 0
BBX 0 0 0 0
BITMAP
ENDCHAR
STARTCHAR 000A
ENCODING 10
SWIDTH 1000 0
DWIDTH 24 0
BBX 0 0 0 0
BITMAP
ENDCHAR
STARTCHAR 000B
ENCODING 11
SWIDTH 1000 0
DWIDTH 24 0
BBX 0 0 0 0
BITMAP
ENDCHAR
STARTCHAR 000C
ENCODING 12
SWIDTH 1000 0
DWIDTH 24 0
BBX 0 0 0 0
BITMAP
ENDCHAR
STARTCHAR 000D
ENCODING 13
SWIDTH 1000 0
DWIDTH 24 0
BBX 0 0 0 0
BITMAP
ENDCHAR
STARTCHAR 000E
ENCODING 14
SWIDTH 1000 0
DWIDTH 24 0
BBX 0 0 0 0
BITMAP
ENDCHAR
STARTCHAR 000F
ENCODING 15
SWIDTH 1000 0
DWIDTH 24 0
BBX 0 0 0 0
BITMAP
ENDCHAR
STARTCHAR 0010
ENCODING 16
SWIDTH 1000 0
DWIDTH 24 0
BBX 0 0 0 0
BITMAP
ENDCHAR
STARTCHAR 0011
ENCODING 17
SWIDTH 1000 0
DWIDTH 24 0
BBX 0 0 0 0
BITMAP
ENDCHAR
STARTCHAR 0012
ENCODING 18
SWIDTH 1000 0
DWIDTH 24 0
BBX 0 0 0 0
BITMAP
ENDCHAR
STARTCHAR 0013
ENCODING 19
SWIDTH 1000 0
DWIDTH 24 0
BBX 0 0 0 0
BITMAP
ENDCHAR
STARTCHAR 0014
ENCODING 20
SWIDTH 1000 0
DWIDTH 24 0
BBX 0 0 0 0
BITMAP
ENDCHAR
STARTCHAR 0015
ENCODING 21
SWIDTH 1000 0
DWIDTH 24 0
BBX 0 0 0 0
BITMAP
ENDCHAR
STARTCHAR 0016
ENCODING 22
SWIDTH 1000 0
DWIDTH 24 0
BBX 0 0 0 0
BITMAP
ENDCHAR
STARTCHAR 0017
ENCODING 23
SWIDTH 1000 0
DWIDTH 24 0
BBX 0 0 0 0
BITMAP
ENDCHAR
STARTCHAR 0018
ENCODING 24
SWIDTH 1000 0
DWIDTH 24 0
BBX 0 0 0 0
BITMAP
ENDCHAR
STARTCHAR 0019
ENCODING 25
SWIDTH 1000 0
DWIDTH 24 0
BBX 0 0 0 0
BITMAP
ENDCHAR
STARTCHAR 001A
ENCODING 26
SWIDTH 1000 0
DWIDTH 24 0
BBX 0 0 0 0
BITMAP
ENDCHAR
STARTCHAR 001B
ENCODING 27
SWIDTH 1000 0
DWIDTH 24 0
BBX 0 0 0 0
BITMAP
ENDCHAR
STARTCHAR 001C
ENCODING 28
SWIDTH 1000 0
DWIDTH 24 0
BBX 0 0 0 0
BITMAP
ENDCHAR
STARTCHAR 001D
ENCODING 29
SWIDTH 1000 0
DWIDTH 24 0
BBX 0 0 0 0
BITMAP
ENDCHAR
STARTCHAR 001E
ENCODING 30
SWIDTH 1000 0
DWIDTH 24 0
BBX 0 0 0 0
BITMAP
ENDCHAR
STARTCHAR 001F
ENCODING 31
SWIDTH 1000 0
DWIDTH 24 0
BBX 0 0 0 0
BITMAP
ENDCHAR
STARTCHAR 0020
ENCODING 32
SWIDTH 1000 0
DWIDTH 24 0
BBX 0 0 0 0
BITMAP
ENDCHAR
STARTCHAR 0021
ENCODING 33
SWIDTH 1000 0
DWIDTH 24 0
BBX 3 17 5 -1
BITMAP
C0
C0
C0
C0
C0
C0
C0
C0
C0
C0
C0
C0
C0
00
40
E0
E0
ENDCHAR
STARTCHAR 0022
ENCODING 34
SWIDTH 1000 0
DWIDTH 24 0
BBX 6 6 3 11
BITMAP
CC
CC
CC
CC
CC
CC
ENDCHAR
STARTCHAR 0023
ENCODING 35
SWIDTH 1000 0
DWIDTH 24 0
BBX 11 17 1 -1
BITMAP
0C80
0C80
0D80
0980
0980
7FE0
1900
1900
1900
1B00
FFC0
FFC0
1300
1200
3200
3200
3600
ENDCHAR
STARTCHAR 0024
ENCODING 36
SWIDTH 1000 0
DWIDTH 24 0
BBX 10 22 1 -3
BITMAP
0C00
0C00
0C00
1F80
7F80
CC00
CC00
CC00
CC00
6C00
3C00
1E00
0F00
0D80
0C80
0CC0
0C80
0D80
FF00
7E00
0C00
0C00
ENDCHAR
STARTCHAR 0025
ENCODING 37
SWIDTH 1000 0
DWIDTH 24 0
BBX 12 20 0 -4
BITMAP
1C00
3E00
6300
6300
6300
6320
6360
3FC0
0B00
0E00
1C00
3000
E7E0
0660
0C20
0C30
0C30
0C20
0660
07E0
ENDCHAR
STARTCHAR 0026
ENCODING 38
SWIDTH 1000 0
DWIDTH 24 0
BBX 11 17 1 -1
BITMAP
1E00
3F00
6180
6180
2100
3300
1E00
3840
6C40
4640
C340
C340
C1C0
C080
61C0
7F60
3E20
ENDCHAR
STARTCHAR 0027
ENCODING 39
SWIDTH 1000 0
DWIDTH 24 0
BBX 2 6 5 11
BITMAP
C0
C0
C0
C0
C0
C0
ENDCHAR
STARTCHAR 0028
ENCODING 40
SWIDTH 1000 0
DWIDTH 24 0
BBX 5 23 3 -4
BITMAP
08
18
10
30
20
60
40
C0
C0
C0
C0
C0
C0
C0
C0
C0
40
60
20
30
10
18
08
ENDCHAR
STARTCHAR 0029
ENCODING 41
SWIDTH 1000 0
DWIDTH 24 0
BBX 6 23 3 -4
BITMAP
C0
40
20
20
10
10
18
18
08
08
0C
0C
0C
08
08
18
18
10
30
30
20
40
C0
ENDCHAR
STARTCHAR 002A
ENCODING 42
SWIDTH 1000 0
DWIDTH 24 0
BBX 11 11 0 3
BITMAP
0600
0600
0600
4620
F7E0
1F80
0E00
0F00
1980
31C0
1080
ENDCHAR
STARTCHAR 002B
ENCODING 43
SWIDTH 1000 0
DWIDTH 24 0
BBX 12 13 1 1
BITMAP
0600
0600
0600
0600
0600
FFF0
FFF0
0600
0600
0600
0600
0600
0600
ENDCHAR
STARTCHAR 002C
ENCODING 44
SWIDTH 1000 0
DWIDTH 24 0
BBX 5 6 3 -5
BITMAP
18
38
30
70
60
C0
ENDCHAR
STARTCHAR 002D
ENCODING 45
SWIDTH 1000 0
DWIDTH 24 0
BBX 10 2 1 7
BITMAP
FFC0
FFC0
ENDCHAR
STARTCHAR 002E
ENCODING 46
SWIDTH 1000 0
DWIDTH 24 0
BBX 3 3 5 -3
BITMAP
E0
E0
E0
ENDCHAR
STARTCHAR 002F
ENCODING 47
SWIDTH 1000 0
DWIDTH 24 0
BBX 8 20 2 -3
BITMAP
03
03
02
06
06
04
0C
0C
08
18
18
30
30
30
60
60
40
C0
C0
80
ENDCHAR
STARTCHAR 0030
ENCODING 48
SWIDTH 1000 0
DWIDTH 24 0
BBX 10 17 1 -1
BITMAP
1E00
3F00
6100
4180
C080
C080
CC80
CCC0
CCC0
CCC0
CCC0
C080
C080
4180
6180
3F00
1E00
ENDCHAR
STARTCHAR 0031
ENCODING 49
SWIDTH 1000 0
DWIDTH 24 0
BBX 6 17 2 -1
BITMAP
0C
3C
7C
CC
0C
0C
0C
0C
0C
0C
0C
0C
0C
0C
0C
0C
0C
ENDCHAR
STARTCHAR 0032
ENCODING 50
SWIDTH 1000 0
DWIDTH 24 0
BBX 10 17 1 -1
BITMAP
1E00
7F80
4180
0080
00C0
00C0
0080
0180
0300
0300
0600
0C00
1800
3000
6000
FFC0
FFC0
ENDCHAR
STARTCHAR 0033
ENCODING 51
SWIDTH 1000 0
DWIDTH 24 0
BBX 10 17 1 -1
BITMAP
3E00
7F80
0180
00C0
00C0
0180
0300
3E00
1F00
0180
0080
00C0
00C0
0080
0180
FF00
7C00
ENDCHAR
STARTCHAR 0034
ENCODING 52
SWIDTH 1000 0
DWIDTH 24 0
BBX 11 17 1 -1
BITMAP
0300
0700
0F00
0B00
1B00
1300
3300
2300
6300
4300
C300
FFE0
FFE0
0300
0300
0300
0300
ENDCHAR
STARTCHAR 0035
ENCODING 53
SWIDTH 1000 0
DWIDTH 24 0
BBX 10 17 1 -1
BITMAP
7F80
7F80
6000
6000
6000
6000
7E00
7F00
0180
0080
00C0
00C0
0080
0180
0380
FF00
7C00
ENDCHAR
STARTCHAR 0036
ENCODING 54
SWIDTH 1000 0
DWIDTH 24 0
BBX 10 17 1 -1
BITMAP
0F80
1F80
3000
6000
4000
C000
DF00
F180
E080
C0C0
C0C0
C0C0
C0C0
40C0
6180
3F00
1E00
ENDCHAR
STARTCHAR 0037
ENCODING 55
SWIDTH 1000 0
DWIDTH 24 0
BBX 9 17 1 -1
BITMAP
FF80
FF80
0180
0100
0300
0300
0600
0600
0400
0C00
0C00
1800
1800
1800
3000
3000
2000
ENDCHAR
STARTCHAR 0038
ENCODING 56
SWIDTH 1000 0
DWIDTH 24 0
BBX 11 17 1 -1
BITMAP
1F00
7F80
60C0
C0C0
C0C0
40C0
7180
1F00
1F00
6180
C0C0
C040
C060
C060
E0C0
7F80
1F00
ENDCHAR
STARTCHAR 0039
ENCODING 57
SWIDTH 1000 0
DWIDTH 24 0
BBX 10 17 1 -1
BITMAP
1E00
7F00
6180
C080
C0C0
C0C0
C0C0
C1C0
63C0
3EC0
00C0
00C0
0080
0180
0300
7E00
7C00
ENDCHAR
STARTCHAR 003A
ENCODING 58
SWIDTH 1000 0
DWIDTH 24 0
BBX 3 13 4 1
BITMAP
E0
E0
E0
00
00
00
00
00
00
00
E0
E0
E0
ENDCHAR
STARTCHAR 003B
ENCODING 59
SWIDTH 1000 0
DWIDTH 24 0
BBX 5 17 3 -3
BITMAP
38
38
38
00
00
00
00
00
00
00
38
38
70
60
60
C0
80
ENDCHAR
STARTCHAR 003C
ENCODING 60
SWIDTH 1000 0
DWIDTH 24 0
BBX 10 22 1 -3
BITMAP
0040
00C0
01C0
0380
0300
0600
0C00
1800
3000
6000
C000
8000
C000
6000
3000
1800
0C00
0600
0300
0180
00C0
0040
ENDCHAR
STARTCHAR 003D
ENCODING 61
SWIDTH 1000 0
DWIDTH 24 0
BBX 12 7 1 5
BITMAP
FFF0
FFF0
0000
0000
0000
FFF0
FFF0
ENDCHAR
STARTCHAR 003E
ENCODING 62
SWIDTH 1000 0
DWIDTH 24 0
BBX 10 22 1 -3
BITMAP
8000
C000
E000
7000
3000
1800
0C00
0600
0300
0180
00C0
0040
00C0
0180
0300
0600
0C00
1800
3000
6000
C000
8000
ENDCHAR
STARTCHAR 003F
ENCODING 63
SWIDTH 1000 0
DWIDTH 24 0
BBX 9 18 2 -1
BITMAP
FC00
FF00
0300
0180
0180
0100
0300
0600
0C00
1800
1800
1000
3000
0000
0000
1000
3800
3800
ENDCHAR
STARTCHAR 0040
ENCODING 64
SWIDTH 1000 0
DWIDTH 24 0
BBX 11 17 1 -1
BITMAP
0F00
3F80
20C0
4640
4EE0
D960
D160
D160
F160
F260
F240
D2C0
5F80
6940
60C0
3F80
0F00
ENDCHAR
STARTCHAR 0041
ENCODING 65
SWIDTH 1000 0
DWIDTH 24 0
BBX 10 17 1 -1
BITMAP
0C00
0E00
1E00
1E00
1200
1300
3300
3300
2100
6180
7F80
7F80
4080
C0C0
C0C0
C0C0
8040
ENDCHAR
STARTCHAR 0042
ENCODING 66
SWIDTH 1000 0
DWIDTH 24 0
BBX 9 17 2 -1
BITMAP
FC00
FF00
C300
C180
C180
C100
C700
FC00
FE00
C300
C180
C180
C180
C180
C300
FF00
FC00
ENDCHAR
STARTCHAR 0043
ENCODING 67
SWIDTH 1000 0
DWIDTH 24 0
BBX 9 17 1 -1
BITMAP
0F80
3F80
3000
6000
4000
C000
C000
C000
C000
C000
C000
C000
4000
6000
3000
3F80
0F80
ENDCHAR
STARTCHAR 0044
ENCODING 68
SWIDTH 1000 0
DWIDTH 24 0
BBX 10 17 1 -1
BITMAP
FC00
FE00
C300
C180
C180
C080
C080
C0C0
C0C0
C0C0
C0C0
C080
C180
C180
C300
FE00
F800
ENDCHAR
STARTCHAR 0045
ENCODING 69
SWIDTH 1000 0
DWIDTH 24 0
BBX 9 17 2 -1
BITMAP
FF80
FF00
C000
C000
C000
C000
C000
FF00
FF00
C000
C000
C000
C000
C000
C000
FF00
FF80
ENDCHAR
STARTCHAR 0046
ENCODING 70
SWIDTH 1000 0
DWIDTH 24 0
BBX 9 17 2 -1
BITMAP
FF80
FF00
C000
C000
C000
C000
C000
FF00
FF00
C000
C000
C000
C000
C000
C000
C000
C000
ENDCHAR
STARTCHAR 0047
ENCODING 71
SWIDTH 1000 0
DWIDTH 24 0
BBX 10 17 1 -1
BITMAP
0F80
3F80
3000
6000
4000
C000
C000
C780
CFC0
C0C0
C0C0
C0C0
40C0
60C0
30C0
1FC0
0F80
ENDCHAR
STARTCHAR 0048
ENCODING 72
SWIDTH 1000 0
DWIDTH 24 0
BBX 9 17 1 -1
BITMAP
C180
C180
C180
C180
C180
C180
C180
FF80
FF80
C180
C180
C180
C180
C180
C180
C180
C180
ENDCHAR
STARTCHAR 0049
ENCODING 73
SWIDTH 1000 0
DWIDTH 24 0
BBX 7 17 2 -1
BITMAP
FE
FE
18
18
18
18
18
18
18
18
18
18
18
18
18
FE
FE
ENDCHAR
STARTCHAR 004A
ENCODING 74
SWIDTH 1000 0
DWIDTH 24 0
BBX 7 17 1 -1
BITMAP
7E
7E
06
06
06
06
06
06
06
06
06
06
C6
C6
C6
FE
7C
ENDCHAR
STARTCHAR 004B
ENCODING 75
SWIDTH 1000 0
DWIDTH 24 0
BBX 9 17 2 -1
BITMAP
C180
C300
C600
C600
CC00
D800
D800
F000
F800
F800
CC00
C400
C600
C200
C300
C180
C180
ENDCHAR
STARTCHAR 004C
ENCODING 76
SWIDTH 1000 0
DWIDTH 24 0
BBX 9 17 2 -1
BITMAP
C000
C000
C000
C000
C000
C000
C000
C000
C000
C000
C000
C000
C000
C000
C000
FF00
FF80
ENDCHAR
STARTCHAR 004D
ENCODING 77
SWIDTH 1000 0
DWIDTH 24 0
BBX 10 17 1 -1
BITMAP
E1C0
E1C0
E3C0
E3C0
F3C0
F2C0
F2C0
D2C0
D2C0
D6C0
D6C0
DCC0
DCC0
DCC0
CCC0
CCC0
C0C0
ENDCHAR
STARTCHAR 004E
ENCODING 78
SWIDTH 1000 0
DWIDTH 24 0
BBX 9 17 1 -1
BITMAP
C180
E180
E180
E180
F180
D180
D180
D980
C980
CD80
CD80
C580
C780
C780
C380
C380
C180
ENDCHAR
STARTCHAR 004F
ENCODING 79
SWIDTH 1000 0
DWIDTH 24 0
BBX 10 17 1 -1
BITMAP
1E00
3F00
6180
4080
C0C0
C0C0
C0C0
C0C0
C0C0
C0C0
C0C0
C0C0
C0C0
4080
6180
3F00
1E00
ENDCHAR
STARTCHAR 0050
ENCODING 80
SWIDTH 1000 0
DWIDTH 24 0
BBX 10 17 1 -1
BITMAP
FE00
FF00
C180
C080
C0C0
C0C0
C080
C380
FF00
F000
C000
C000
C000
C000
C000
C000
C000
ENDCHAR
STARTCHAR 0051
ENCODING 81
SWIDTH 1000 0
DWIDTH 24 0
BBX 11 21 1 -5
BITMAP
1E00
3F00
6180
4080
C0C0
C0C0
C0C0
C0C0
C0C0
C0C0
C0C0
C0C0
C0C0
4080
6180
3F00
1E00
0300
0180
00C0
00E0
ENDCHAR
STARTCHAR 0052
ENCODING 82
SWIDTH 1000 0
DWIDTH 24 0
BBX 10 17 1 -1
BITMAP
FC00
FF00
C180
C180
C180
C180
C180
C300
FE00
F400
C600
C200
C300
C180
C180
C0C0
C0C0
ENDCHAR
STARTCHAR 0053
ENCODING 83
SWIDTH 1000 0
DWIDTH 24 0
BBX 9 17 2 -1
BITMAP
3F00
7F00
C000
C000
C000
C000
6000
3800
1C00
0700
0300
0180
0180
0180
0180
FF00
7C00
ENDCHAR
STARTCHAR 0054
ENCODING 84
SWIDTH 1000 0
DWIDTH 24 0
BBX 11 17 1 -1
BITMAP
FFE0
FFE0
0600
0600
0600
0600
0600
0600
0600
0600
0600
0600
0600
0600
0600
0600
0600
ENDCHAR
STARTCHAR 0055
ENCODING 85
SWIDTH 1000 0
DWIDTH 24 0
BBX 10 17 1 -1
BITMAP
C0C0
C0C0
C0C0
C0C0
C0C0
C0C0
C0C0
C0C0
C0C0
C0C0
C0C0
C0C0
C0C0
C080
6180
7F00
1E00
ENDCHAR
STARTCHAR 0056
ENCODING 86
SWIDTH 1000 0
DWIDTH 24 0
BBX 10 17 1 -1
BITMAP
C0C0
C0C0
C0C0
4080
6180
6180
6180
2100
3300
3300
3300
1200
1600
1E00
1E00
0C00
0C00
ENDCHAR
STARTCHAR 0057
ENCODING 87
SWIDTH 1000 0
DWIDTH 24 0
BBX 12 17 0 -1
BITMAP
C030
4620
4620
4620
4E60
6F60
6F60
6F60
6B60
6940
2940
2940
2940
2940
39C0
39C0
39C0
ENDCHAR
STARTCHAR 0058
ENCODING 88
SWIDTH 1000 0
DWIDTH 24 0
BBX 10 17 1 -1
BITMAP
C0C0
6080
6180
3300
3300
1E00
1E00
0C00
0C00
1E00
1E00
3300
3300
6180
6180
C0C0
C0C0
ENDCHAR
STARTCHAR 0059
ENCODING 89
SWIDTH 1000 0
DWIDTH 24 0
BBX 10 17 1 -1
BITMAP
C0C0
C080
6180
6100
2300
3300
3600
1E00
1C00
0C00
0C00
0C00
0C00
0C00
0C00
0C00
0C00
ENDCHAR
STARTCHAR 005A
ENCODING 90
SWIDTH 1000 0
DWIDTH 24 0
BBX 9 17 1 -1
BITMAP
FF80
FF80
0100
0300
0200
0600
0400
0C00
0800
1800
1000
3000
6000
6000
C000
FF80
FF80
ENDCHAR
STARTCHAR 005B
ENCODING 91
SWIDTH 1000 0
DWIDTH 24 0
BBX 4 25 4 -4
BITMAP
F0
F0
C0
C0
C0
C0
C0
C0
C0
C0
C0
C0
C0
C0
C0
C0
C0
C0
C0
C0
C0
C0
C0
F0
F0
ENDCHAR
STARTCHAR 005C
ENCODING 92
SWIDTH 1000 0
DWIDTH 24 0
BBX 8 20 2 -3
BITMAP
C0
C0
40
60
60
20
30
30
10
18
18
08
0C
0C
06
06
02
03
03
01
ENDCHAR
STARTCHAR 005D
ENCODING 93
SWIDTH 1000 0
DWIDTH 24 0
BBX 5 25 3 -4
BITMAP
70
F8
18
18
18
18
18
18
18
18
18
18
18
18
18
18
18
18
18
18
18
18
18
78
F8
ENDCHAR
STARTCHAR 005E
ENCODING 94
SWIDTH 1000 0
DWIDTH 24 0
BBX 10 10 1 7
BITMAP
0C00
1E00
1E00
3300
3300
6180
6180
C0C0
C0C0
8040
ENDCHAR
STARTCHAR 005F
ENCODING 95
SWIDTH 1000 0
DWIDTH 24 0
BBX 12 2 1 -4
BITMAP
FFF0
FFF0
ENDCHAR
STARTCHAR 0060
ENCODING 96
SWIDTH 1000 0
DWIDTH 24 0
BBX 5 5 4 14
BITMAP
80
C0
60
30
18
ENDCHAR
STARTCHAR 0061
ENCODING 97
SWIDTH 1000 0
DWIDTH 24 0
BBX 10 13 1 -1
BITMAP
3E00
7F80
4180
00C0
01C0
3FC0
70C0
C0C0
C0C0
C1C0
C3C0
7EC0
3CC0
ENDCHAR
STARTCHAR 0062
ENCODING 98
SWIDTH 1000 0
DWIDTH 24 0
BBX 10 18 1 -1
BITMAP
C000
C000
C000
C000
C000
DE00
FF00
E180
C180
C080
C0C0
C0C0
C0C0
C080
C180
E180
FF00
DE00
ENDCHAR
STARTCHAR 0063
ENCODING 99
SWIDTH 1000 0
DWIDTH 24 0
BBX 9 13 1 -1
BITMAP
1F80
3F80
6000
4000
C000
C000
C000
C000
C000
4000
6000
3F80
1F80
ENDCHAR
STARTCHAR 0064
ENCODING 100
SWIDTH 1000 0
DWIDTH 24 0
BBX 10 18 1 -1
BITMAP
00C0
00C0
00C0
00C0
00C0
1CC0
3FC0
61C0
C1C0
C0C0
C0C0
C0C0
C0C0
C0C0
41C0
61C0
3FC0
1CC0
ENDCHAR
STARTCHAR 0065
ENCODING 101
SWIDTH 1000 0
DWIDTH 24 0
BBX 10 13 1 -1
BITMAP
1E00
3F80
6180
40C0
C0C0
FFC0
FFC0
C000
C000
C000
6000
3F80
1F80
ENDCHAR
STARTCHAR 0066
ENCODING 102
SWIDTH 1000 0
DWIDTH 24 0
BBX 9 19 1 -1
BITMAP
0780
0F80
0800
1800
1800
1800
1800
FF80
FF80
1800
1800
1800
1800
1800
1800
1800
1800
1800
1800
ENDCHAR
STARTCHAR 0067
ENCODING 103
SWIDTH 1000 0
DWIDTH 24 0
BBX 10 17 1 -5
BITMAP
1CC0
7FC0
61C0
C1C0
C0C0
C0C0
C0C0
C0C0
C0C0
C1C0
61C0
7FC0
1C80
0180
0180
7F00
3E00
ENDCHAR
STARTCHAR 0068
ENCODING 104
SWIDTH 1000 0
DWIDTH 24 0
BBX 9 18 1 -1
BITMAP
C000
C000
C000
C000
C000
DE00
FF00
C100
C180
C180
C180
C180
C180
C180
C180
C180
C180
C180
ENDCHAR
STARTCHAR 0069
ENCODING 105
SWIDTH 1000 0
DWIDTH 24 0
BBX 8 18 2 -1
BITMAP
18
18
18
00
00
F8
78
18
18
18
18
18
18
18
18
18
FF
FF
ENDCHAR
STARTCHAR 006A
ENCODING 106
SWIDTH 1000 0
DWIDTH 24 0
BBX 7 22 1 -5
BITMAP
0E
0E
04
00
00
3E
3E
06
06
06
06
06
06
06
06
06
86
C6
C6
C6
6E
3C
ENDCHAR
STARTCHAR 006B
ENCODING 107
SWIDTH 1000 0
DWIDTH 24 0
BBX 9 18 2 -1
BITMAP
C000
C000
C000
C000
C000
C180
C300
C600
CC00
D800
D800
F800
F800
CC00
C600
C200
C300
C180
ENDCHAR
STARTCHAR 006C
ENCODING 108
SWIDTH 1000 0
DWIDTH 24 0
BBX 8 18 2 -1
BITMAP
78
78
18
18
18
18
18
18
18
18
18
18
18
18
18
18
FF
FF
ENDCHAR
STARTCHAR 006D
ENCODING 109
SWIDTH 1000 0
DWIDTH 24 0
BBX 10 13 1 -1
BITMAP
F380
FBC0
CCC0
CC40
CC40
CC40
CC40
CC40
CC40
CC40
CC40
CC40
CC40
ENDCHAR
STARTCHAR 006E
ENCODING 110
SWIDTH 1000 0
DWIDTH 24 0
BBX 9 13 2 -1
BITMAP
DE00
FF00
E180
C180
C180
C180
C180
C180
C180
C180
C180
C180
C180
ENDCHAR
STARTCHAR 006F
ENCODING 111
SWIDTH 1000 0
DWIDTH 24 0
BBX 10 13 1 -1
BITMAP
1E00
3F00
6180
C0C0
C0C0
C0C0
C0C0
C0C0
C0C0
C0C0
6180
3F00
1E00
ENDCHAR
STARTCHAR 0070
ENCODING 112
SWIDTH 1000 0
DWIDTH 24 0
BBX 10 17 1 -5
BITMAP
DE00
FF00
E180
C180
C080
C0C0
C0C0
C0C0
C080
C180
E180
FF00
DE00
C000
C000
C000
C000
ENDCHAR
STARTCHAR 0071
ENCODING 113
SWIDTH 1000 0
DWIDTH 24 0
BBX 10 17 1 -5
BITMAP
1CC0
3EC0
61C0
41C0
C0C0
C0C0
C0C0
C0C0
C0C0
C1C0
61C0
3FC0
1CC0
00C0
00C0
00C0
00C0
ENDCHAR
STARTCHAR 0072
ENCODING 114
SWIDTH 1000 0
DWIDTH 24 0
BBX 11 13 1 -1
BITMAP
F3C0
77E0
3C00
3800
3000
3000
3000
3000
3000
3000
3000
7E00
7E00
ENDCHAR
STARTCHAR 0073
ENCODING 115
SWIDTH 1000 0
DWIDTH 24 0
BBX 9 13 2 -1
BITMAP
3E00
7F00
C000
C000
C000
7000
1C00
0700
0100
0180
0300
FF00
FC00
ENDCHAR
STARTCHAR 0074
ENCODING 116
SWIDTH 1000 0
DWIDTH 24 0
BBX 9 17 1 -1
BITMAP
0800
1800
1800
1800
FF80
FF80
1800
1800
1800
1800
1800
1800
1800
1800
1800
0F80
0780
ENDCHAR
STARTCHAR 0075
ENCODING 117
SWIDTH 1000 0
DWIDTH 24 0
BBX 9 13 1 -1
BITMAP
C180
C180
C180
C180
C180
C180
C180
C180
C180
C180
C380
7F80
3D80
ENDCHAR
STARTCHAR 0076
ENCODING 118
SWIDTH 1000 0
DWIDTH 24 0
BBX 10 13 1 -1
BITMAP
C0C0
C0C0
4080
6180
6180
2100
3300
3300
1200
1600
1E00
1C00
0C00
ENDCHAR
STARTCHAR 0077
ENCODING 119
SWIDTH 1000 0
DWIDTH 24 0
BBX 10 13 1 -1
BITMAP
80C0
8CC0
9CC0
DCC0
DC80
D480
D680
5780
5780
5380
5380
7300
7300
ENDCHAR
STARTCHAR 0078
ENCODING 120
SWIDTH 1000 0
DWIDTH 24 0
BBX 10 13 1 -1
BITMAP
C0C0
6180
3300
3300
1E00
0C00
0C00
1E00
1200
3300
6180
6180
C0C0
ENDCHAR
STARTCHAR 0079
ENCODING 121
SWIDTH 1000 0
DWIDTH 24 0
BBX 10 17 1 -5
BITMAP
C0C0
4080
6180
6180
2100
3300
3300
1200
1E00
1E00
0C00
0C00
0C00
0800
1800
F000
E000
ENDCHAR
STARTCHAR 007A
ENCODING 122
SWIDTH 1000 0
DWIDTH 24 0
BBX 9 13 1 -1
BITMAP
FF80
FF80
0300
0300
0600
0C00
0800
1800
3000
6000
4000
FF80
FF80
ENDCHAR
STARTCHAR 007B
ENCODING 123
SWIDTH 1000 0
DWIDTH 24 0
BBX 6 24 3 -4
BITMAP
1C
3C
30
30
30
30
30
30
30
30
60
C0
C0
60
20
30
30
30
30
30
30
30
3C
1C
ENDCHAR
STARTCHAR 007C
ENCODING 124
SWIDTH 1000 0
DWIDTH 24 0
BBX 2 23 5 -4
BITMAP
C0
C0
C0
C0
C0
C0
C0
C0
C0
C0
00
00
00
C0
C0
C0
C0
C0
C0
C0
C0
C0
C0
ENDCHAR
STARTCHAR 007D
ENCODING 125
SWIDTH 1000 0
DWIDTH 24 0
BBX 7 24 2 -4
BITMAP
E0
70
18
18
18
18
18
18
18
18
18
0E
0E
18
18
18
18
18
18
18
18
18
70
60
ENDCHAR
STARTCHAR 007E
ENCODING 126
SWIDTH 1000 0
DWIDTH 24 0
BBX 12 3 0 6
BITMAP
7C30
C7E0
81C0
ENDCHAR
STARTCHAR 00A0
ENCODING 160
SWIDTH 1000 0
DWIDTH 24 0
BBX 0 0 0 0
BITMAP
ENDCHAR
STARTCHAR 00A1
ENCODING 161
SWIDTH 1000 0
DWIDTH 24 0
BBX 2 18 11 -1
BITMAP
C0
C0
00
00
C0
C0
C0
C0
C0
C0
C0
C0
C0
C0
C0
C0
C0
C0
ENDCHAR
STARTCHAR 00A4
ENCODING 164
SWIDTH 1000 0
DWIDTH 24 0
BBX 17 18 3 -2
BITMAP
808000
C7F080
6C1900
300600
200200
200200
400100
400100
400100
400100
400100
600300
200200
300600
380E00
6FF900
C3E080
800000
ENDCHAR
STARTCHAR 00A7
ENCODING 167
SWIDTH 1000 0
DWIDTH 24 0
BBX 7 21 9 -3
BITMAP
38
7C
4C
40
40
40
60
30
D8
84
84
42
62
3E
10
08
0C
0C
CC
FC
78
ENDCHAR
STARTCHAR 00A8
ENCODING 168
SWIDTH 1000 0
DWIDTH 24 0
BBX 9 3 7 15
BITMAP
C180
E380
E380
ENDCHAR
STARTCHAR 00A9
ENCODING 169
SWIDTH 1000 0
DWIDTH 24 0
BBX 18 18 3 -1
BITMAP
03F000
0FFC00
180600
23F100
461980
4C0C80
880C40
980040
980040
980040
880C40
8C0C40
4C1880
47F180
23E100
180600
0FFC00
03F000
ENDCHAR
STARTCHAR 00AA
ENCODING 170
SWIDTH 1000 0
DWIDTH 24 0
BBX 8 11 8 8
BITMAP
3E
42
42
06
7A
82
82
FF
7B
FF
FF
ENDCHAR
STARTCHAR 00AB
ENCODING 171
SWIDTH 1000 0
DWIDTH 24 0
BBX 17 17 3 0
BITMAP
003180
004300
018400
031800
042000
18C000
218000
420000
840000
430000
318000
084000
063000
010800
00C600
006100
001080
ENDCHAR
STARTCHAR 00AE
ENCODING 174
SWIDTH 1000 0
DWIDTH 24 0
BBX 19 21 3 -1
BITMAP
004000
07FC00
0E0E00
180300
338180
63F8C0
431840
C30C60
830C20
831820
83F020
83E020
833020
831820
431840
430C40
230C80
300180
180300
07FC00
01F800
ENDCHAR
STARTCHAR 00B0
ENCODING 176
SWIDTH 1000 0
DWIDTH 24 0
BBX 5 7 9 13
BITMAP
20
70
88
88
88
F8
70
ENDCHAR
STARTCHAR 00B1
ENCODING 177
SWIDTH 1000 0
DWIDTH 24 0
BBX 12 16 8 0
BITMAP
0600
0600
0600
0600
0600
0600
FFF0
FFF0
0600
0600
0600
0600
0600
0000
FFF0
FFF0
ENDCHAR
STARTCHAR 00B2
ENCODING 178
SWIDTH 1000 0
DWIDTH 24 0
BBX 4 6 10 13
BITMAP
F0
90
10
20
C0
F0
ENDCHAR
STARTCHAR 00B3
ENCODING 179
SWIDTH 1000 0
DWIDTH 24 0
BBX 4 7 10 10
BITMAP
70
D0
20
30
90
90
F0
ENDCHAR
STARTCHAR 00B4
ENCODING 180
SWIDTH 1000 0
DWIDTH 24 0
BBX 4 6 10 13
BITMAP
30
20
60
40
80
80
ENDCHAR
STARTCHAR 00B6
ENCODING 182
SWIDTH 1000 0
DWIDTH 24 0
BBX 11 22 7 -3
BITMAP
07E0
3FE0
7E60
FE60
FE60
FE60
FE60
FE60
7E60
7E60
0E60
0660
0660
0660
0660
0660
0660
0660
0660
0660
0660
0660
ENDCHAR
STARTCHAR 00B7
ENCODING 183
SWIDTH 1000 0
DWIDTH 24 0
BBX 3 3 11 7
BITMAP
C0
E0
E0
ENDCHAR
STARTCHAR 00B8
ENCODING 184
SWIDTH 1000 0
DWIDTH 24 0
BBX 4 6 10 -5
BITMAP
40
40
60
10
10
E0
ENDCHAR
STARTCHAR 00B9
ENCODING 185
SWIDTH 1000 0
DWIDTH 24 0
BBX 2 6 11 13
BITMAP
40
C0
40
40
40
40
ENDCHAR
STARTCHAR 00BA
ENCODING 186
SWIDTH 1000 0
DWIDTH 24 0
BBX 8 11 8 8
BITMAP
7E
42
81
81
81
81
C3
7E
3C
FF
FF
ENDCHAR
STARTCHAR 00BB
ENCODING 187
SWIDTH 1000 0
DWIDTH 24 0
BBX 17 17 3 0
BITMAP
C60000
610000
10C000
0C6000
021000
018C00
00C200
002100
001080
006100
00C600
010800
063000
084000
318000
430000
840000
ENDCHAR
STARTCHAR 00BC
ENCODING 188
SWIDTH 1000 0
DWIDTH 24 0
BBX 14 20 5 -3
BITMAP
3000
F000
3004
3008
3010
3020
3040
3080
3100
0200
0600
0C30
1830
1070
20B0
40B0
01F8
01F8
0030
0030
ENDCHAR
STARTCHAR 00BD
ENCODING 189
SWIDTH 1000 0
DWIDTH 24 0
BBX 14 21 5 -3
BITMAP
1800
1800
7800
1804
1808
1810
1820
1840
1880
0100
0200
0600
0C7C
1844
10C4
2004
4008
8010
0060
007C
00FC
ENDCHAR
STARTCHAR 00BE
ENCODING 190
SWIDTH 1000 0
DWIDTH 24 0
BBX 14 22 5 -3
BITMAP
2000
7800
8800
8800
3804
3808
0410
8420
CC60
F8C0
0080
0100
0200
0418
0838
1058
2058
4098
00FC
00FC
0018
0018
ENDCHAR
STARTCHAR 00BF
ENCODING 191
SWIDTH 1000 0
DWIDTH 24 0
BBX 9 18 8 -1
BITMAP
0C00
0C00
0000
0000
0C00
0C00
0C00
1800
1000
2000
6000
C000
C000
C000
C000
C000
7F80
3F00
ENDCHAR
STARTCHAR 00C6
ENCODING 198
SWIDTH 1000 0
DWIDTH 24 0
BBX 17 18 3 -1
BITMAP
01FF80
03FF80
03C000
02C000
06C000
06C000
0CC000
0CC000
08FF00
18FF00
18C000
3FC000
3FC000
20C000
60C000
60C000
C0FF80
C0FF80
ENDCHAR
STARTCHAR 00D0
ENCODING 208
SWIDTH 1000 0
DWIDTH 24 0
BBX 16 18 4 -1
BITMAP
1FE0
1FF8
180C
1806
1802
1803
1803
FE03
FE03
1803
1803
1803
1803
1802
1806
180C
1FF8
1FE0
ENDCHAR
STARTCHAR 00D7
ENCODING 215
SWIDTH 1000 0
DWIDTH 24 0
BBX 11 12 7 3
BITMAP
8060
C0C0
6180
3380
1F00
0E00
0E00
1B00
3180
60C0
C060
8040
ENDCHAR
STARTCHAR 00D8
ENCODING 216
SWIDTH 1000 0
DWIDTH 24 0
BBX 16 21 4 -3
BITMAP
0004
07CC
1FF8
3818
601C
6026
C066
C042
C083
C083
C103
C103
C202
C406
6406
680C
381C
1FF0
37E0
2000
4000
ENDCHAR
STARTCHAR 00DE
ENCODING 222
SWIDTH 1000 0
DWIDTH 24 0
BBX 9 18 8 -1
BITMAP
C000
C000
C000
F800
CE00
C300
C300
C100
C180
C180
C100
C300
C300
CE00
FC00
C000
C000
C000
ENDCHAR
STARTCHAR 00DF
ENCODING 223
SWIDTH 1000 0
DWIDTH 24 0
BBX 13 19 5 -3
BITMAP
FFC0
FFE0
C030
C030
C030
C030
C030
C060
FFC0
FFE0
C030
C018
C018
C018
C018
F018
F010
D830
0FE0
ENDCHAR
STARTCHAR 00E6
ENCODING 230
SWIDTH 1000 0
DWIDTH 24 0
BBX 18 13 3 -1
BITMAP
3F1F00
7FBF80
40E0C0
C0C040
00C040
03FFC0
3CFFC0
40C000
C0C040
C0C040
C1E0C0
FF3F80
3C1F00
ENDCHAR
STARTCHAR 00F0
ENCODING 240
SWIDTH 1000 0
DWIDTH 24 0
BBX 12 18 6 0
BITMAP
0480
0300
0300
0580
00C0
1F40
3FE0
60E0
4060
C030
C030
C030
C030
C020
4060
60E0
3FC0
1F00
ENDCHAR
STARTCHAR 00F7
ENCODING 247
SWIDTH 1000 0
DWIDTH 24 0
BBX 14 13 6 1
BITMAP
0700
0700
0200
0000
0000
FFFC
FFFC
0000
0000
0000
0200
0700
0700
ENDCHAR
STARTCHAR 00F8
ENCODING 248
SWIDTH 1000 0
DWIDTH 24 0
BBX 12 16 6 -2
BITMAP
00C0
1F80
3F80
61C0
4160
C220
C230
C430
C430
C820
4860
70E0
3FC0
3F00
2000
2000
ENDCHAR
STARTCHAR 00FE
ENCODING 254
SWIDTH 1000 0
DWIDTH 24 0
BBX 10 21 7 -4
BITMAP
C000
C000
C000
C000
C000
FE00
FF00
C180
C080
C0C0
C0C0
C0C0
C0C0
C0C0
C080
C180
FF00
FE00
C000
C000
C000
ENDCHAR
STARTCHAR 0111
ENCODING 273
SWIDTH 1000 0
DWIDTH 24 0
BBX 13 18 5 -1
BITMAP
0060
01F8
01F8
0060
0060
1E60
3F60
60E0
C060
C060
C060
C060
C060
C060
C060
60E0
3FE0
1E60
ENDCHAR
STARTCHAR 0126
ENCODING 294
SWIDTH 1000 0
DWIDTH 24 0
BBX 15 18 4 -1
BITMAP
600C
600C
600C
FFFE
FFFE
600C
600C
7FFC
7FFC
600C
600C
600C
600C
600C
600C
600C
600C
600C
ENDCHAR
STARTCHAR 0127
ENCODING 295
SWIDTH 1000 0
DWIDTH 24 0
BBX 12 18 6 -1
BITMAP
3000
3000
FF00
FF00
3000
33C0
37E0
3830
3030
3030
3030
3030
3030
3030
3030
3030
3030
3030
ENDCHAR
STARTCHAR 0131
ENCODING 305
SWIDTH 1000 0
DWIDTH 24 0
BBX 2 13 11 -1
BITMAP
C0
C0
C0
C0
C0
C0
C0
C0
C0
C0
C0
C0
C0
ENDCHAR
STARTCHAR 0132
ENCODING 306
SWIDTH 1000 0
DWIDTH 24 0
BBX 13 18 6 -1
BITMAP
C018
C018
C018
C018
C018
C018
C018
C018
C018
C018
C018
C018
D818
D818
D810
CC30
CFE0
C7C0
ENDCHAR
STARTCHAR 0133
ENCODING 307
SWIDTH 1000 0
DWIDTH 24 0
BBX 6 22 9 -5
BITMAP
CC
CC
CC
00
00
CC
CC
CC
CC
CC
CC
CC
CC
CC
CC
CC
CC
CC
0C
0C
0C
18
ENDCHAR
STARTCHAR 0138
ENCODING 312
SWIDTH 1000 0
DWIDTH 24 0
BBX 10 13 7 -1
BITMAP
C0C0
C180
C700
CE00
D800
FC00
EC00
C600
C300
C300
C180
C0C0
C0C0
ENDCHAR
STARTCHAR 013F
ENCODING 319
SWIDTH 1000 0
DWIDTH 24 0
BBX 11 18 7 -1
BITMAP
C000
C000
C000
C000
C000
C000
C000
C300
C300
C300
C000
C000
C000
C000
C000
C000
C000
FFE0
ENDCHAR
STARTCHAR 0140
ENCODING 320
SWIDTH 1000 0
DWIDTH 24 0
BBX 6 18 9 -1
BITMAP
C0
C0
C0
C0
C0
C0
C0
CC
CC
C0
C0
C0
C0
C0
C0
C0
C0
C0
ENDCHAR
STARTCHAR 0141
ENCODING 321
SWIDTH 1000 0
DWIDTH 24 0
BBX 15 18 5 -1
BITMAP
0C00
0C00
0C00
0C40
0CC0
0D80
0F00
0E00
0C00
1C00
3C00
6C00
CC00
0C00
0C00
0C00
0C00
0FFE
ENDCHAR
STARTCHAR 0142
ENCODING 322
SWIDTH 1000 0
DWIDTH 24 0
BBX 6 18 9 -1
BITMAP
30
30
30
30
30
34
38
30
30
70
B0
30
30
30
30
30
30
30
ENDCHAR
STARTCHAR 0149
ENCODING 329
SWIDTH 1000 0
DWIDTH 24 0
BBX 14 17 5 -1
BITMAP
C000
C000
C000
4000
59E0
5BF8
9C18
1C0C
180C
180C
180C
180C
180C
180C
180C
180C
180C
ENDCHAR
STARTCHAR 014A
ENCODING 330
SWIDTH 1000 0
DWIDTH 24 0
BBX 13 22 5 -5
BITMAP
C018
E018
E018
F018
D818
D818
CC18
C618
C618
C318
C118
C198
C0D8
C0D8
C078
C038
C038
C018
0618
0218
03F0
01E0
ENDCHAR
STARTCHAR 014B
ENCODING 331
SWIDTH 1000 0
DWIDTH 24 0
BBX 10 17 7 -5
BITMAP
CF00
FF80
E0C0
C0C0
C0C0
C0C0
C0C0
C0C0
C0C0
C0C0
C0C0
C0C0
C0C0
10C0
10C0
1F80
0F00
ENDCHAR
STARTCHAR 0152
ENCODING 338
SWIDTH 1000 0
DWIDTH 24 0
BBX 19 18 3 -1
BITMAP
0FFFE0
1FFFE0
306000
606000
406000
C06000
C06000
C06000
C07FC0
C07FC0
C06000
C06000
C06000
406000
606000
306000
1FFFE0
0FFFE0
ENDCHAR
STARTCHAR 0153
ENCODING 339
SWIDTH 1000 0
DWIDTH 24 0
BBX 19 13 2 -1
BITMAP
1F0F00
3F9FC0
60F040
C0E060
C06020
C07FE0
C07FE0
C06000
C06060
C0E060
60B0C0
3F9FC0
1E0F00
ENDCHAR
STARTCHAR 0166
ENCODING 358
SWIDTH 1000 0
DWIDTH 24 0
BBX 13 18 6 -1
BITMAP
FFF8
FFF8
0600
0600
0600
0600
0600
0600
3FC0
3FC0
0600
0600
0600
0600
0600
0600
0600
0600
ENDCHAR
STARTCHAR 0167
ENCODING 359
SWIDTH 1000 0
DWIDTH 24 0
BBX 6 17 9 -1
BITMAP
30
30
30
30
FC
FC
30
FC
FC
30
30
30
30
30
30
3C
1C
ENDCHAR
STARTCHAR 02BC
ENCODING 700
SWIDTH 1000 0
DWIDTH 24 0
BBX 3 6 11 12
BITMAP
C0
E0
E0
40
40
80
ENDCHAR
STARTCHAR 02C7
ENCODING 711
SWIDTH 1000 0
DWIDTH 24 0
BBX 10 3 7 15
BITMAP
C0C0
3300
0C00
ENDCHAR
STARTCHAR 02D8
ENCODING 728
SWIDTH 1000 0
DWIDTH 24 0
BBX 10 4 7 15
BITMAP
8040
4080
7F80
1E00
ENDCHAR
STARTCHAR 02D9
ENCODING 729
SWIDTH 1000 0
DWIDTH 24 0
BBX 3 3 10 14
BITMAP
E0
E0
E0
ENDCHAR
STARTCHAR 02DA
ENCODING 730
SWIDTH 1000 0
DWIDTH 24 0
BBX 5 7 9 13
BITMAP
20
70
88
88
88
F8
70
ENDCHAR
STARTCHAR 02DB
ENCODING 731
SWIDTH 1000 0
DWIDTH 24 0
BBX 4 5 10 -5
BITMAP
40
80
80
F0
E0
ENDCHAR
STARTCHAR 02DC
ENCODING 732
SWIDTH 1000 0
DWIDTH 24 0
BBX 11 2 6 15
BITMAP
7E00
87E0
ENDCHAR
STARTCHAR 02DD
ENCODING 733
SWIDTH 1000 0
DWIDTH 24 0
BBX 8 6 8 13
BITMAP
33
22
66
44
84
88
ENDCHAR
STARTCHAR 0391
ENCODING 913
SWIDTH 1000 0
DWIDTH 24 0
BBX 14 18 5 -1
BITMAP
0300
0300
0780
0480
0CC0
0CC0
0840
1860
1860
1020
3030
3FF0
2010
6018
6018
4008
C00C
C00C
ENDCHAR
STARTCHAR 0392
ENCODING 914
SWIDTH 1000 0
DWIDTH 24 0
BBX 13 18 6 -1
BITMAP
FFC0
FFF0
C030
C018
C018
C018
C030
C070
FFC0
FFF0
C030
C018
C018
C018
C018
C030
FFF0
FFC0
ENDCHAR
STARTCHAR 0393
ENCODING 915
SWIDTH 1000 0
DWIDTH 24 0
BBX 11 18 6 -1
BITMAP
FFE0
FFE0
C000
C000
C000
C000
C000
C000
C000
C000
C000
C000
C000
C000
C000
C000
C000
C000
ENDCHAR
STARTCHAR 0394
ENCODING 916
SWIDTH 1000 0
DWIDTH 24 0
BBX 14 18 5 -1
BITMAP
0300
0300
0780
0780
0480
0CC0
0840
0840
1860
1020
3030
3030
2010
6018
6018
4008
C00C
FFFC
ENDCHAR
STARTCHAR 0395
ENCODING 917
SWIDTH 1000 0
DWIDTH 24 0
BBX 11 18 6 -1
BITMAP
FFE0
FFE0
C000
C000
C000
C000
C000
C000
FFE0
FFE0
C000
C000
C000
C000
C000
C000
FFE0
FFE0
ENDCHAR
STARTCHAR 0396
ENCODING 918
SWIDTH 1000 0
DWIDTH 24 0
BBX 13 18 6 -1
BITMAP
7FF8
7FF8
0030
0030
0060
00C0
0180
0180
0300
0600
0C00
0C00
1800
3000
7000
6000
FFF8
FFF8
ENDCHAR
STARTCHAR 0397
ENCODING 919
SWIDTH 1000 0
DWIDTH 24 0
BBX 13 18 5 -1
BITMAP
C018
C018
C018
C018
C018
C018
C018
FFF8
FFF8
C018
C018
C018
C018
C018
C018
C018
C018
C018
ENDCHAR
STARTCHAR 0398
ENCODING 920
SWIDTH 1000 0
DWIDTH 24 0
BBX 16 18 4 -1
BITMAP
07E0
1FF0
3818
600C
6006
C006
C002
DFF3
DFF3
C003
C003
C002
C006
6006
600C
301C
1FF0
07E0
ENDCHAR
STARTCHAR 0399
ENCODING 921
SWIDTH 1000 0
DWIDTH 24 0
BBX 2 18 11 -1
BITMAP
C0
C0
C0
C0
C0
C0
C0
C0
C0
C0
C0
C0
C0
C0
C0
C0
C0
C0
ENDCHAR
STARTCHAR 039A
ENCODING 922
SWIDTH 1000 0
DWIDTH 24 0
BBX 13 18 5 -1
BITMAP
C030
C060
C0C0
C1C0
C380
C700
C600
CC00
DE00
F600
E300
C180
C180
C0C0
C060
C060
C030
C018
ENDCHAR
STARTCHAR 039B
ENCODING 923
SWIDTH 1000 0
DWIDTH 24 0
BBX 14 18 5 -1
BITMAP
0300
0300
0780
0480
0CC0
0CC0
0840
1860
1860
1020
3030
3030
2010
6018
6018
4008
C00C
C00C
ENDCHAR
STARTCHAR 039C
ENCODING 924
SWIDTH 1000 0
DWIDTH 24 0
BBX 16 18 4 -1
BITMAP
E007
E007
E007
F00F
F00F
D00B
D81B
D81B
C813
CC33
C423
C423
C663
C243
C3C3
C3C3
C183
C183
ENDCHAR
STARTCHAR 039D
ENCODING 925
SWIDTH 1000 0
DWIDTH 24 0
BBX 13 18 5 -1
BITMAP
C018
E018
E018
F018
D818
D818
CC18
C618
C618
C318
C318
C198
C0D8
C0D8
C078
C038
C038
C018
ENDCHAR
STARTCHAR 039E
ENCODING 926
SWIDTH 1000 0
DWIDTH 24 0
BBX 14 18 5 -1
BITMAP
FFFC
FFFC
0000
0000
0000
0000
0000
0000
3FE0
3FE0
0000
0000
0000
0000
0000
0000
FFFC
FFFC
ENDCHAR
STARTCHAR 039F
ENCODING 927
SWIDTH 1000 0
DWIDTH 24 0
BBX 16 18 4 -1
BITMAP
07E0
1FF0
3818
600C
6006
C006
C002
C003
C003
C003
C003
C002
C006
6006
600C
301C
1FF0
07E0
ENDCHAR
STARTCHAR 03A0
ENCODING 928
SWIDTH 1000 0
DWIDTH 24 0
BBX 12 18 6 -1
BITMAP
FFF0
FFF0
C030
C030
C030
C030
C030
C030
C030
C030
C030
C030
C030
C030
C030
C030
C030
C030
ENDCHAR
STARTCHAR 03A1
ENCODING 929
SWIDTH 1000 0
DWIDTH 24 0
BBX 12 18 6 -1
BITMAP
FF80
FFE0
C060
C030
C030
C030
C030
C030
C060
FFC0
FE00
C000
C000
C000
C000
C000
C000
C000
ENDCHAR
STARTCHAR 03A3
ENCODING 931
SWIDTH 1000 0
DWIDTH 24 0
BBX 12 18 6 -1
BITMAP
FFF0
FFF0
6000
3000
1800
1800
0C00
0600
0200
0600
0C00
0C00
1800
3000
6000
6000
FFF0
FFF0
ENDCHAR
STARTCHAR 03A4
ENCODING 932
SWIDTH 1000 0
DWIDTH 24 0
BBX 13 18 6 -1
BITMAP
FFF8
FFF8
0600
0600
0600
0600
0600
0600
0600
0600
0600
0600
0600
0600
0600
0600
0600
0600
ENDCHAR
STARTCHAR 03A5
ENCODING 933
SWIDTH 1000 0
DWIDTH 24 0
BBX 14 18 5 -1
BITMAP
C00C
4018
6010
3030
3060
1860
08C0
0C80
0780
0700
0300
0300
0300
0300
0300
0300
0300
0300
ENDCHAR
STARTCHAR 03A6
ENCODING 934
SWIDTH 1000 0
DWIDTH 24 0
BBX 16 18 4 -1
BITMAP
0180
0180
0180
1FF8
399C
6186
C186
C183
C183
C183
C182
6186
718C
3FF8
0FF0
0180
0180
0180
ENDCHAR
STARTCHAR 03A7
ENCODING 935
SWIDTH 1000 0
DWIDTH 24 0
BBX 14 18 5 -1
BITMAP
6018
6018
3030
1860
1860
0CC0
0480
0780
0300
0300
0780
0CC0
0C40
1860
3030
3030
6018
C00C
ENDCHAR
STARTCHAR 03A8
ENCODING 936
SWIDTH 1000 0
DWIDTH 24 0
BBX 16 18 3 -1
BITMAP
0180
C183
E187
3186
3184
3184
3184
3184
3184
3184
398C
1FF8
07F0
0180
0180
0180
0180
0180
ENDCHAR
STARTCHAR 03A9
ENCODING 937
SWIDTH 1000 0
DWIDTH 24 0
BBX 14 18 5 -1
BITMAP
0F80
3FE0
7030
6018
C018
C00C
C00C
C00C
C008
C018
6018
3070
1DE0
0D80
CD8C
CD8C
CD8C
FDFC
ENDCHAR
STARTCHAR 03B1
ENCODING 945
SWIDTH 1000 0
DWIDTH 24 0
BBX 11 13 7 -1
BITMAP
3C40
7E40
63C0
C1C0
C180
C180
C180
C180
C100
C100
4380
76E0
3CC0
ENDCHAR
STARTCHAR 03B2
ENCODING 946
SWIDTH 1000 0
DWIDTH 24 0
BBX 10 22 7 -5
BITMAP
3E00
7F00
C180
C180
C180
C180
C180
C100
CF00
CF00
C180
C080
C0C0
C0C0
C080
C180
FF00
FE00
C000
C000
C000
C000
ENDCHAR
STARTCHAR 03B3
ENCODING 947
SWIDTH 1000 0
DWIDTH 24 0
BBX 10 17 7 -5
BITMAP
C0C0
4180
6100
3300
3600
1E00
0C00
0C00
1E00
3200
3300
6100
6180
6180
6100
3F00
1E00
ENDCHAR
STARTCHAR 03B4
ENCODING 948
SWIDTH 1000 0
DWIDTH 24 0
BBX 10 18 7 -1
BITMAP
1E00
3F00
2180
2000
3000
1800
0C00
3F00
6180
40C0
C0C0
C0C0
C0C0
C0C0
C0C0
6180
7F80
1E00
ENDCHAR
STARTCHAR 03B5
ENCODING 949
SWIDTH 1000 0
DWIDTH 24 0
BBX 10 14 7 -1
BITMAP
1E00
7F80
4180
C080
C000
6000
3C00
7C00
C000
C000
C0C0
C180
7F80
3E00
ENDCHAR
STARTCHAR 03B6
ENCODING 950
SWIDTH 1000 0
DWIDTH 24 0
BBX 9 22 7 -5
BITMAP
7E00
7E00
0400
0C00
1800
3000
3000
6000
6000
4000
C000
C000
C000
C000
C000
7000
3F00
0380
0180
0180
1F80
0F00
ENDCHAR
STARTCHAR 03B7
ENCODING 951
SWIDTH 1000 0
DWIDTH 24 0
BBX 10 15 7 -4
BITMAP
DE00
FE00
C300
C300
C300
C300
C300
C300
C300
C300
C300
C300
C300
0340
01C0
ENDCHAR
STARTCHAR 03B8
ENCODING 952
SWIDTH 1000 0
DWIDTH 24 0
BBX 10 18 7 -1
BITMAP
1E00
3F00
6180
4080
C0C0
C0C0
C0C0
FFC0
FFC0
C0C0
C0C0
C0C0
C0C0
C0C0
6180
6180
3F00
1E00
ENDCHAR
STARTCHAR 03B9
ENCODING 953
SWIDTH 1000 0
DWIDTH 24 0
BBX 6 13 9 -1
BITMAP
C0
C0
C0
C0
C0
C0
C0
C0
C0
C0
CC
F8
78
ENDCHAR
STARTCHAR 03BA
ENCODING 954
SWIDTH 1000 0
DWIDTH 24 0
BBX 10 13 7 -1
BITMAP
C180
C300
C600
CC00
D800
F800
EC00
C600
C600
C300
C100
C180
C0C0
ENDCHAR
STARTCHAR 03BB
ENCODING 955
SWIDTH 1000 0
DWIDTH 24 0
BBX 10 19 7 -2
BITMAP
C000
E000
2000
2000
3000
3000
1000
1000
1800
3800
3800
2800
6C00
6C00
4400
4600
C6C0
C7C0
0380
ENDCHAR
STARTCHAR 03BC
ENCODING 956
SWIDTH 1000 0
DWIDTH 24 0
BBX 9 17 7 -5
BITMAP
C180
C180
C180
C180
C180
C180
C180
C180
C180
C180
C380
FF80
FD80
C000
C000
C000
C000
ENDCHAR
STARTCHAR 03BD
ENCODING 957
SWIDTH 1000 0
DWIDTH 24 0
BBX 10 13 7 -1
BITMAP
C040
E0C0
20C0
2080
3180
3180
1100
1100
1B00
0A00
0A00
0E00
0E00
ENDCHAR
STARTCHAR 03BE
ENCODING 958
SWIDTH 1000 0
DWIDTH 24 0
BBX 9 22 8 -5
BITMAP
7C00
7C00
1800
3000
3000
3000
1800
0C00
3800
6000
C000
C000
C000
C000
C000
6000
3E00
0700
0180
0180
0F00
0E00
ENDCHAR
STARTCHAR 03BF
ENCODING 959
SWIDTH 1000 0
DWIDTH 24 0
BBX 10 13 7 -1
BITMAP
1E00
3F00
6180
C0C0
C0C0
C0C0
C0C0
C0C0
C0C0
C0C0
6180
3F00
1E00
ENDCHAR
STARTCHAR 03C0
ENCODING 960
SWIDTH 1000 0
DWIDTH 24 0
BBX 10 13 7 -1
BITMAP
FFC0
FFC0
3300
3300
3300
3300
3300
3300
3300
3300
3340
73C0
6180
ENDCHAR
STARTCHAR 03C1
ENCODING 961
SWIDTH 1000 0
DWIDTH 24 0
BBX 10 17 7 -5
BITMAP
1E00
3F00
6180
C0C0
C0C0
C0C0
C0C0
C0C0
C0C0
C0C0
E180
FF80
DE00
C000
C000
C000
C000
ENDCHAR
STARTCHAR 03C3
ENCODING 963
SWIDTH 1000 0
DWIDTH 24 0
BBX 10 14 7 -1
BITMAP
0FC0
3F00
6180
4080
C0C0
C0C0
C0C0
C0C0
C0C0
C0C0
C0C0
6180
3300
1E00
ENDCHAR
STARTCHAR 03C4
ENCODING 964
SWIDTH 1000 0
DWIDTH 24 0
BBX 10 13 7 -1
BITMAP
FFC0
FFC0
1800
1800
1800
1800
1800
1800
1800
1800
1900
1F00
0E00
ENDCHAR
STARTCHAR 03C5
ENCODING 965
SWIDTH 1000 0
DWIDTH 24 0
BBX 9 13 7 0
BITMAP
C300
C300
C100
C180
C180
C180
C180
C180
C180
C180
C180
7F00
3E00
ENDCHAR
STARTCHAR 03C6
ENCODING 966
SWIDTH 1000 0
DWIDTH 24 0
BBX 10 22 7 -5
BITMAP
0C00
0C00
0C00
0C00
0C00
3F00
7D80
6CC0
CCC0
CC40
CC40
CC40
CC40
CC40
CCC0
6CC0
6D80
3F00
0C00
0C00
0C00
0C00
ENDCHAR
STARTCHAR 03C7
ENCODING 967
SWIDTH 1000 0
DWIDTH 24 0
BBX 10 16 7 -5
BITMAP
E0C0
F080
1180
1300
1B00
1E00
0E00
0C00
0C00
1C00
1400
3600
2600
6200
C300
C1C0
ENDCHAR
STARTCHAR 03C8
ENCODING 968
SWIDTH 1000 0
DWIDTH 24 0
BBX 10 17 7 -5
BITMAP
CC40
4CC0
4CC0
4C80
6C80
6C80
6C80
6C80
6C80
6C80
6C80
7F80
3F00
0C00
0C00
0C00
0C00
ENDCHAR
STARTCHAR 03C9
ENCODING 969
SWIDTH 1000 0
DWIDTH 24 0
BBX 10 13 7 0
BITMAP
2180
6080
40C0
CCC0
CC40
CC40
CC40
CC40
CC40
CC40
CCC0
7FC0
7380
ENDCHAR
STARTCHAR 0401
ENCODING 1025
SWIDTH 1000 0
DWIDTH 24 0
BBX 11 21 6 -1
BITMAP
3300
3300
0000
FFE0
FFE0
C000
C000
C000
C000
C000
C000
FFC0
FFC0
C000
C000
C000
C000
C000
C000
FFE0
FFE0
ENDCHAR
STARTCHAR 0410
ENCODING 1040
SWIDTH 1000 0
DWIDTH 24 0
BBX 14 18 5 -1
BITMAP
0300
0300
0780
0480
0CC0
0CC0
0840
1860
1860
1020
3030
3FF0
2010
6018
6018
4008
C00C
C00C
ENDCHAR
STARTCHAR 0411
ENCODING 1041
SWIDTH 1000 0
DWIDTH 24 0
BBX 13 18 6 -1
BITMAP
FFE0
FFE0
C000
C000
C000
C000
C000
C000
FFC0
FFF0
C030
C018
C018
C018
C018
C030
FFF0
FFC0
ENDCHAR
STARTCHAR 0412
ENCODING 1042
SWIDTH 1000 0
DWIDTH 24 0
BBX 13 18 5 -1
BITMAP
FFC0
FFF0
C030
C018
C018
C018
C010
C070
FFC0
FFF0
C030
C018
C018
C018
C018
C030
FFF0
FFC0
ENDCHAR
STARTCHAR 0413
ENCODING 1043
SWIDTH 1000 0
DWIDTH 24 0
BBX 11 18 6 -1
BITMAP
FFE0
FFE0
C000
C000
C000
C000
C000
C000
C000
C000
C000
C000
C000
C000
C000
C000
C000
C000
ENDCHAR
STARTCHAR 0414
ENCODING 1044
SWIDTH 1000 0
DWIDTH 24 0
BBX 17 21 3 -4
BITMAP
07FE00
07FE00
060600
060600
060600
060600
060600
060600
060600
060600
040600
040600
0C0600
0C0600
080600
180600
3FFE00
7FFE00
C00180
C00080
800080
ENDCHAR
STARTCHAR 0415
ENCODING 1045
SWIDTH 1000 0
DWIDTH 24 0
BBX 11 18 6 -1
BITMAP
FFE0
FFE0
C000
C000
C000
C000
C000
C000
FFE0
FFE0
C000
C000
C000
C000
C000
C000
FFE0
FFE0
ENDCHAR
STARTCHAR 0416
ENCODING 1046
SWIDTH 1000 0
DWIDTH 24 0
BBX 19 18 3 -1
BITMAP
C0C0E0
F0C3E0
18C700
0CC600
0CCC00
04CC00
06CC00
07F800
07F800
06C800
06C800
04CC00
0CCC00
0CCC00
0CC600
18C700
F0C3E0
C0C0E0
ENDCHAR
STARTCHAR 0417
ENCODING 1047
SWIDTH 1000 0
DWIDTH 24 0
BBX 11 18 6 -1
BITMAP
1F00
3FC0
60C0
4060
C060
C040
00C0
0780
0780
00C0
0060
0060
C060
C060
C060
60C0
3F80
1F00
ENDCHAR
STARTCHAR 0418
ENCODING 1048
SWIDTH 1000 0
DWIDTH 24 0
BBX 13 18 5 -1
BITMAP
C018
C018
C018
C038
C078
C0D8
C198
C198
C318
C618
CC18
CC18
D818
F018
E018
C018
C018
C018
ENDCHAR
STARTCHAR 0419
ENCODING 1049
SWIDTH 1000 0
DWIDTH 24 0
BBX 13 21 5 0
BITMAP
1040
0F80
0700
C018
C018
C018
C038
C078
C0D8
C198
C198
C318
C618
CC18
CC18
D818
F018
E018
C018
C018
C018
ENDCHAR
STARTCHAR 041A
ENCODING 1050
SWIDTH 1000 0
DWIDTH 24 0
BBX 13 18 5 -1
BITMAP
C030
C060
C0C0
C1C0
C380
C700
C600
CC00
DE00
F600
E300
C180
C180
C0C0
C060
C060
C030
C018
ENDCHAR
STARTCHAR 041B
ENCODING 1051
SWIDTH 1000 0
DWIDTH 24 0
BBX 14 18 5 -2
BITMAP
0FFC
0FFC
0C0C
0C0C
0C0C
0C0C
0C0C
0C0C
0C0C
0C0C
0C0C
080C
080C
080C
180C
300C
300C
E00C
ENDCHAR
STARTCHAR 041C
ENCODING 1052
SWIDTH 1000 0
DWIDTH 24 0
BBX 16 18 4 -1
BITMAP
E007
E007
E00F
F00F
F00B
D01B
D81B
D813
C833
CC33
CC23
C463
C663
C643
C2C3
C383
C183
C183
ENDCHAR
STARTCHAR 041D
ENCODING 1053
SWIDTH 1000 0
DWIDTH 24 0
BBX 12 18 6 -1
BITMAP
C030
C030
C030
C030
C030
C030
C030
FFF0
FFF0
C030
C030
C030
C030
C030
C030
C030
C030
C030
ENDCHAR
STARTCHAR 041E
ENCODING 1054
SWIDTH 1000 0
DWIDTH 24 0
BBX 15 18 5 -1
BITMAP
07C0
1FF0
3018
600C
600C
C006
C006
C006
C006
C006
C006
C006
C006
600C
600C
3018
1FF0
07C0
ENDCHAR
STARTCHAR 041F
ENCODING 1055
SWIDTH 1000 0
DWIDTH 24 0
BBX 13 18 6 -1
BITMAP
FFF8
FFF8
C018
C018
C018
C018
C018
C018
C018
C018
C018
C018
C018
C018
C018
C018
C018
C018
ENDCHAR
STARTCHAR 0420
ENCODING 1056
SWIDTH 1000 0
DWIDTH 24 0
BBX 12 18 6 -1
BITMAP
FF80
FFC0
C060
C020
C030
C030
C030
C060
C0E0
FFC0
FE00
C000
C000
C000
C000
C000
C000
C000
ENDCHAR
STARTCHAR 0421
ENCODING 1057
SWIDTH 1000 0
DWIDTH 24 0
BBX 14 18 5 -1
BITMAP
07C0
1FF0
3018
600C
600C
C004
C000
C000
C000
C000
C000
C004
C004
600C
6008
3018
1FF0
07C0
ENDCHAR
STARTCHAR 0422
ENCODING 1058
SWIDTH 1000 0
DWIDTH 24 0
BBX 12 18 6 -1
BITMAP
FFF0
FFF0
0600
0600
0600
0600
0600
0600
0600
0600
0600
0600
0600
0600
0600
0600
0600
0600
ENDCHAR
STARTCHAR 0423
ENCODING 1059
SWIDTH 1000 0
DWIDTH 24 0
BBX 10 18 7 -1
BITMAP
C040
C0C0
40C0
6080
2180
2180
3100
1300
1200
1A00
0E00
0C00
0400
0C00
0800
0800
7800
7000
ENDCHAR
STARTCHAR 0424
ENCODING 1060
SWIDTH 1000 0
DWIDTH 24 0
BBX 15 18 5 -1
BITMAP
0300
0300
0FE0
3B70
6318
630C
C304
C306
C306
C306
C304
430C
6318
3B70
0FE0
0300
0300
0300
ENDCHAR
STARTCHAR 0425
ENCODING 1061
SWIDTH 1000 0
DWIDTH 24 0
BBX 14 18 5 -1
BITMAP
6018
6018
3030
1860
1860
0CC0
0480
0780
0300
0300
0780
0CC0
0C40
1860
3030
3030
6018
C00C
ENDCHAR
STARTCHAR 0426
ENCODING 1062
SWIDTH 1000 0
DWIDTH 24 0
BBX 14 21 5 -4
BITMAP
C030
C030
C030
C030
C030
C030
C030
C030
C030
C030
C030
C030
C030
C030
C030
C030
C030
FFF0
000C
0004
0004
ENDCHAR
STARTCHAR 0427
ENCODING 1063
SWIDTH 1000 0
DWIDTH 24 0
BBX 10 18 7 -1
BITMAP
C0C0
C0C0
C0C0
C0C0
C0C0
C0C0
C0C0
C0C0
C0C0
C0C0
C0C0
63C0
7EC0
08C0
00C0
00C0
00C0
00C0
ENDCHAR
STARTCHAR 0428
ENCODING 1064
SWIDTH 1000 0
DWIDTH 24 0
BBX 14 18 5 -1
BITMAP
C304
C304
C304
C304
C304
C304
C304
C304
C304
C304
C304
C304
C304
C304
C304
C304
C304
FFFC
ENDCHAR
STARTCHAR 0429
ENCODING 1065
SWIDTH 1000 0
DWIDTH 24 0
BBX 17 21 3 -4
BITMAP
C30400
C30400
C30400
C30400
C30400
C30400
C30400
C30400
C30400
C30400
C30400
C30400
C30400
C30400
C30400
C30400
C30400
FFFE00
000100
000100
000180
ENDCHAR
STARTCHAR 042A
ENCODING 1066
SWIDTH 1000 0
DWIDTH 24 0
BBX 16 18 4 -1
BITMAP
FC00
FC00
0C00
0C00
0C00
0C00
0C00
0C00
0FF8
0FFE
0C06
0C03
0C03
0C03
0C03
0C06
0FFE
0FF8
ENDCHAR
STARTCHAR 042B
ENCODING 1067
SWIDTH 1000 0
DWIDTH 24 0
BBX 15 18 4 -1
BITMAP
C006
C006
C006
C006
C006
C006
C006
C006
FF86
FFC6
C066
C026
C036
C036
C026
C066
C3C6
FF86
ENDCHAR
STARTCHAR 042C
ENCODING 1068
SWIDTH 1000 0
DWIDTH 24 0
BBX 13 18 5 -1
BITMAP
C000
C000
C000
C000
C000
C000
C000
C000
FFC0
FFF0
C030
C018
C018
C018
C018
C030
C1F0
FFC0
ENDCHAR
STARTCHAR 042D
ENCODING 1069
SWIDTH 1000 0
DWIDTH 24 0
BBX 15 18 5 -1
BITMAP
0FC0
3FF0
7018
6008
C00C
0004
0004
0FFE
0FFE
0006
0006
C004
C00C
400C
6018
3038
1FF0
0FC0
ENDCHAR
STARTCHAR 042E
ENCODING 1070
SWIDTH 1000 0
DWIDTH 24 0
BBX 17 18 3 -1
BITMAP
C0F800
C1FE00
C38600
C30300
C60100
C60180
C60180
FE0180
FE0180
C60180
C60180
C60180
C60180
C20100
C30300
C18600
C1FE00
C07800
ENDCHAR
STARTCHAR 042F
ENCODING 1071
SWIDTH 1000 0
DWIDTH 24 0
BBX 13 18 6 -1
BITMAP
1FF8
7FF8
E018
C018
C018
C018
C018
6018
3FF8
3FF8
6018
C018
C018
C018
C018
C018
C018
8018
ENDCHAR
STARTCHAR 0430
ENCODING 1072
SWIDTH 1000 0
DWIDTH 24 0
BBX 11 13 6 -1
BITMAP
1F00
7F80
60C0
C0C0
00C0
01C0
3FC0
60C0
C0C0
C0C0
C1C0
FFE0
3E60
ENDCHAR
STARTCHAR 0431
ENCODING 1073
SWIDTH 1000 0
DWIDTH 24 0
BBX 12 18 6 0
BITMAP
0040
0180
0F00
1C00
3000
6F00
7FC0
60E0
C060
C020
C030
C030
C030
C020
4060
60E0
3FC0
1F00
ENDCHAR
STARTCHAR 0432
ENCODING 1074
SWIDTH 1000 0
DWIDTH 24 0
BBX 12 13 6 -1
BITMAP
FF80
FFE0
C060
C060
C060
FFC0
FFC0
C060
C030
C030
C020
FFE0
FFC0
ENDCHAR
STARTCHAR 0433
ENCODING 1075
SWIDTH 1000 0
DWIDTH 24 0
BBX 10 13 7 -1
BITMAP
FFC0
FFC0
C000
C000
C000
C000
C000
C000
C000
C000
C000
C000
C000
ENDCHAR
STARTCHAR 0434
ENCODING 1076
SWIDTH 1000 0
DWIDTH 24 0
BBX 16 16 4 -4
BITMAP
0FFC
0FFC
080C
080C
080C
080C
080C
080C
180C
100C
300C
7FFC
FFFC
C003
8003
8001
ENDCHAR
STARTCHAR 0435
ENCODING 1077
SWIDTH 1000 0
DWIDTH 24 0
BBX 10 13 7 -1
BITMAP
1F00
3F80
60C0
C040
C040
FFC0
FFC0
C000
C040
C040
60C0
3F80
1F00
ENDCHAR
STARTCHAR 0436
ENCODING 1078
SWIDTH 1000 0
DWIDTH 24 0
BBX 16 13 4 -1
BITMAP
C187
F18F
3998
19B0
0DB0
0FF0
0FF0
0DB0
09B0
1990
3998
F18F
C187
ENDCHAR
STARTCHAR 0437
ENCODING 1079
SWIDTH 1000 0
DWIDTH 24 0
BBX 11 13 6 -1
BITMAP
1F80
7FC0
6060
C060
00C0
0780
07C0
0060
C060
C060
C060
7FC0
1F00
ENDCHAR
STARTCHAR 0438
ENCODING 1080
SWIDTH 1000 0
DWIDTH 24 0
BBX 11 13 7 -1
BITMAP
C060
C060
C0E0
C1E0
C360
C660
CC60
D860
D060
E060
E060
C060
C060
ENDCHAR
STARTCHAR 0439
ENCODING 1081
SWIDTH 1000 0
DWIDTH 24 0
BBX 11 17 7 -1
BITMAP
2080
3100
1F00
0000
C060
C060
C0E0
C1E0
C360
C660
CC60
D860
D060
E060
E060
C060
C060
ENDCHAR
STARTCHAR 043A
ENCODING 1082
SWIDTH 1000 0
DWIDTH 24 0
BBX 10 13 7 -1
BITMAP
C0C0
C180
C700
CE00
D800
FC00
EC00
C600
C300
C300
C180
C0C0
C0C0
ENDCHAR
STARTCHAR 043B
ENCODING 1083
SWIDTH 1000 0
DWIDTH 24 0
BBX 13 14 6 -2
BITMAP
1FF8
1FF8
1818
1818
1818
1818
1018
1018
1018
3018
2018
6018
C018
8000
ENDCHAR
STARTCHAR 043C
ENCODING 1084
SWIDTH 1000 0
DWIDTH 24 0
BBX 15 13 5 -1
BITMAP
C006
E00E
E00E
F01E
D016
D836
C826
CC66
C446
C6C6
C286
C386
C106
ENDCHAR
STARTCHAR 043D
ENCODING 1085
SWIDTH 1000 0
DWIDTH 24 0
BBX 12 13 6 -1
BITMAP
C030
C030
C030
C030
C030
FFF0
FFF0
C030
C030
C030
C030
C030
C030
ENDCHAR
STARTCHAR 043E
ENCODING 1086
SWIDTH 1000 0
DWIDTH 24 0
BBX 12 13 6 -1
BITMAP
1F00
3FC0
60E0
4060
C020
C030
C030
C030
C020
4060
60E0
3FC0
1F00
ENDCHAR
STARTCHAR 043F
ENCODING 1087
SWIDTH 1000 0
DWIDTH 24 0
BBX 11 13 6 -1
BITMAP
FFE0
FFE0
C060
C060
C060
C060
C060
C060
C060
C060
C060
C060
C060
ENDCHAR
STARTCHAR 0440
ENCODING 1088
SWIDTH 1000 0
DWIDTH 24 0
BBX 11 17 6 -5
BITMAP
CF00
FF80
E0C0
C060
C060
C060
C060
C060
C060
C060
E0C0
FF80
CF00
C000
C000
C000
C000
ENDCHAR
STARTCHAR 0441
ENCODING 1089
SWIDTH 1000 0
DWIDTH 24 0
BBX 11 13 7 -1
BITMAP
1F00
3F80
60C0
4040
C000
C000
C000
C000
C060
4060
60C0
3F80
1F00
ENDCHAR
STARTCHAR 0442
ENCODING 1090
SWIDTH 1000 0
DWIDTH 24 0
BBX 12 13 6 -1
BITMAP
FFF0
FFF0
0600
0600
0600
0600
0600
0600
0600
0600
0600
0600
0600
ENDCHAR
STARTCHAR 0443
ENCODING 1091
SWIDTH 1000 0
DWIDTH 24 0
BBX 10 17 7 -5
BITMAP
80C0
C0C0
C080
4180
6180
2100
2300
3200
1200
1600
1C00
0C00
0C00
0800
1800
7800
7000
ENDCHAR
STARTCHAR 0444
ENCODING 1092
SWIDTH 1000 0
DWIDTH 24 0
BBX 16 22 4 -5
BITMAP
0180
0180
0180
0180
0180
1FF0
3FFC
618E
4186
C182
C183
C183
C183
C182
4186
618E
3FFC
1FF0
0180
0180
0180
0180
ENDCHAR
STARTCHAR 0445
ENCODING 1093
SWIDTH 1000 0
DWIDTH 24 0
BBX 10 13 7 -1
BITMAP
C0C0
6180
2100
3300
1E00
0C00
0C00
1E00
1200
3300
6180
4080
C0C0
ENDCHAR
STARTCHAR 0446
ENCODING 1094
SWIDTH 1000 0
DWIDTH 24 0
BBX 13 16 6 -4
BITMAP
C060
C060
C060
C060
C060
C060
C060
C060
C060
C060
C060
C060
FFE0
0018
0018
0008
ENDCHAR
STARTCHAR 0447
ENCODING 1095
SWIDTH 1000 0
DWIDTH 24 0
BBX 10 13 7 -1
BITMAP
C0C0
C0C0
C0C0
C0C0
C0C0
C0C0
C1C0
C1C0
7EC0
3CC0
00C0
00C0
00C0
ENDCHAR
STARTCHAR 0448
ENCODING 1096
SWIDTH 1000 0
DWIDTH 24 0
BBX 14 13 5 -1
BITMAP
C304
C304
C304
C304
C304
C304
C304
C304
C304
C304
C304
C304
FFFC
ENDCHAR
STARTCHAR 0449
ENCODING 1097
SWIDTH 1000 0
DWIDTH 24 0
BBX 17 16 4 -4
BITMAP
C30400
C30400
C30400
C30400
C30400
C30400
C30400
C30400
C30400
C30400
C30400
C30400
FFFE00
000300
000100
000180
ENDCHAR
STARTCHAR 044A
ENCODING 1098
SWIDTH 1000 0
DWIDTH 24 0
BBX 14 13 5 -1
BITMAP
F800
F800
1800
1800
1800
1F80
1FF8
1818
180C
180C
180C
1FF8
1FF0
ENDCHAR
STARTCHAR 044B
ENCODING 1099
SWIDTH 1000 0
DWIDTH 24 0
BBX 13 13 6 -1
BITMAP
C018
C018
C018
C018
C018
F818
FF98
C198
C0D8
C0D8
C0D8
C398
FF18
ENDCHAR
STARTCHAR 044C
ENCODING 1100
SWIDTH 1000 0
DWIDTH 24 0
BBX 11 13 7 -1
BITMAP
C000
C000
C000
C000
C000
FC00
FFC0
C0C0
C060
C060
C060
C1C0
FF80
ENDCHAR
STARTCHAR 044D
ENCODING 1101
SWIDTH 1000 0
DWIDTH 24 0
BBX 11 13 7 -1
BITMAP
1E00
7F80
C0C0
C040
0040
1FE0
1FE0
0060
8040
C0C0
60C0
7F80
1E00
ENDCHAR
STARTCHAR 044E
ENCODING 1102
SWIDTH 1000 0
DWIDTH 24 0
BBX 16 13 4 -1
BITMAP
C1F0
C3FC
C606
C606
CC02
FC03
FC03
CC03
C402
C606
C60E
C3FC
C0F0
ENDCHAR
STARTCHAR 044F
ENCODING 1103
SWIDTH 1000 0
DWIDTH 24 0
BBX 11 13 7 -1
BITMAP
3FE0
7FE0
C060
C060
C060
C060
3FE0
7FE0
4060
C060
C060
C060
C060
ENDCHAR
STARTCHAR 0451
ENCODING 1105
SWIDTH 1000 0
DWIDTH 24 0
BBX 10 17 7 -1
BITMAP
3300
3300
0000
0000
1F00
3F80
60C0
C040
C040
FFC0
FFC0
C000
C040
C040
60C0
3F80
1F00
ENDCHAR
STARTCHAR 2010
ENCODING 8208
SWIDTH 1000 0
DWIDTH 24 0
BBX 9 2 7 7
BITMAP
FF80
FF80
ENDCHAR
STARTCHAR 2013
ENCODING 8211
SWIDTH 1000 0
DWIDTH 24 0
BBX 7 2 8 7
BITMAP
FE
FE
ENDCHAR
STARTCHAR 2014
ENCODING 8212
SWIDTH 1000 0
DWIDTH 24 0
BBX 21 2 2 7
BITMAP
FFFFF8
FFFFF8
ENDCHAR
STARTCHAR 2016
ENCODING 8214
SWIDTH 1000 0
DWIDTH 24 0
BBX 6 24 9 -5
BITMAP
CC
CC
CC
CC
CC
CC
CC
CC
CC
CC
CC
CC
CC
CC
CC
CC
CC
CC
CC
CC
CC
CC
CC
CC
ENDCHAR
STARTCHAR 2018
ENCODING 8216
SWIDTH 1000 0
DWIDTH 24 0
BBX 2 6 11 13
BITMAP
40
C0
80
C0
C0
C0
ENDCHAR
STARTCHAR 2019
ENCODING 8217
SWIDTH 1000 0
DWIDTH 24 0
BBX 3 6 11 12
BITMAP
C0
E0
E0
40
40
80
ENDCHAR
STARTCHAR 201B
ENCODING 8219
SWIDTH 1000 0
DWIDTH 24 0
BBX 3 6 11 12
BITMAP
C0
E0
C0
80
80
40
ENDCHAR
STARTCHAR 201C
ENCODING 8220
SWIDTH 1000 0
DWIDTH 24 0
BBX 6 6 9 13
BITMAP
44
C8
98
D8
DC
CC
ENDCHAR
STARTCHAR 201D
ENCODING 8221
SWIDTH 1000 0
DWIDTH 24 0
BBX 6 6 9 12
BITMAP
CC
EC
EC
44
4C
88
ENDCHAR
STARTCHAR 201F
ENCODING 8223
SWIDTH 1000 0
DWIDTH 24 0
BBX 6 6 9 12
BITMAP
CC
FC
DC
98
88
44
ENDCHAR
STARTCHAR 2020
ENCODING 8224
SWIDTH 1000 0
DWIDTH 24 0
BBX 11 17 6 -1
BITMAP
0400
0400
0400
0400
0400
0400
FFE0
0400
0400
0400
0400
0400
0400
0400
0400
0400
0400
ENDCHAR
STARTCHAR 2021
ENCODING 8225
SWIDTH 1000 0
DWIDTH 24 0
BBX 11 17 6 -1
BITMAP
0400
0400
0400
0400
FFE0
0400
0400
0400
FFE0
0400
0400
0400
0400
0400
0400
0400
0400
ENDCHAR
STARTCHAR 2022
ENCODING 8226
SWIDTH 1000 0
DWIDTH 24 0
BBX 5 6 9 5
BITMAP
70
F8
F8
F8
F8
70
ENDCHAR
STARTCHAR 2025
ENCODING 8229
SWIDTH 1000 0
DWIDTH 24 0
BBX 14 3 5 7
BITMAP
C018
E01C
E01C
ENDCHAR
STARTCHAR 2026
ENCODING 8230
SWIDTH 1000 0
DWIDTH 24 0
BBX 16 3 4 7
BITMAP
C183
C183
C183
ENDCHAR
STARTCHAR 2030
ENCODING 8240
SWIDTH 1000 0
DWIDTH 24 0
BBX 20 18 2 -1
BITMAP
001000
782000
FC2000
844000
844000
848000
848000
FD2000
7B71E0
02DB30
048A10
048A10
088A10
188A10
108A10
308A10
205120
4070C0
ENDCHAR
STARTCHAR 2032
ENCODING 8242
SWIDTH 1000 0
DWIDTH 24 0
BBX 4 6 9 13
BITMAP
30
30
20
60
40
80
ENDCHAR
STARTCHAR 2033
ENCODING 8243
SWIDTH 1000 0
DWIDTH 24 0
BBX 7 6 10 13
BITMAP
36
66
64
48
88
90
ENDCHAR
STARTCHAR 2034
ENCODING 8244
SWIDTH 1000 0
DWIDTH 24 0
BBX 10 6 7 12
BITMAP
76C0
6D80
6D80
4900
D900
9200
ENDCHAR
STARTCHAR 2035
ENCODING 8245
SWIDTH 1000 0
DWIDTH 24 0
BBX 5 4 9 14
BITMAP
80
C0
30
08
ENDCHAR
STARTCHAR 2036
ENCODING 8246
SWIDTH 1000 0
DWIDTH 24 0
BBX 5 8 9 10
BITMAP
80
C0
30
08
80
C0
60
18
ENDCHAR
STARTCHAR 2039
ENCODING 8249
SWIDTH 1000 0
DWIDTH 24 0
BBX 17 21 3 -3
BITMAP
000180
000200
000C00
001000
006000
008000
030000
040000
180000
600000
C00000
200000
180000
040000
030000
008000
006000
001800
000400
000300
000080
ENDCHAR
STARTCHAR 203A
ENCODING 8250
SWIDTH 1000 0
DWIDTH 24 0
BBX 17 21 4 -3
BITMAP
C00000
200000
180000
040000
030000
008000
006000
001000
000C00
000300
000180
000200
000C00
001000
006000
018000
030000
0C0000
100000
600000
800000
ENDCHAR
STARTCHAR 203B
ENCODING 8251
SWIDTH 1000 0
DWIDTH 24 0
BBX 15 16 5 0
BITMAP
0100
4384
6308
3010
1830
0860
04C0
C286
E10E
4284
0440
0820
1010
2108
4384
0300
ENDCHAR
STARTCHAR 203C
ENCODING 8252
SWIDTH 1000 0
DWIDTH 24 0
BBX 8 19 8 -3
BITMAP
C3
C3
C3
C3
C3
C3
C3
C3
C3
C3
C3
C3
C3
C3
C3
00
00
C3
C3
ENDCHAR
STARTCHAR 2042
ENCODING 8258
SWIDTH 1000 0
DWIDTH 24 0
BBX 17 18 3 -1
BITMAP
008000
06B000
01C000
01C000
06B000
008000
008000
008000
000000
000000
100400
100400
D63580
380E00
380E00
D63580
100400
100400
ENDCHAR
STARTCHAR 2074
ENCODING 8308
SWIDTH 1000 0
DWIDTH 24 0
BBX 4 6 11 13
BITMAP
20
60
A0
A0
F0
20
ENDCHAR
STARTCHAR 207A
ENCODING 8314
SWIDTH 1000 0
DWIDTH 24 0
BBX 9 9 8 8
BITMAP
0800
0800
0800
0800
FF80
0800
0800
0800
0800
ENDCHAR
STARTCHAR 207B
ENCODING 8315
SWIDTH 1000 0
DWIDTH 24 0
BBX 8 1 8 13
BITMAP
FF
ENDCHAR
STARTCHAR 207C
ENCODING 8316
SWIDTH 1000 0
DWIDTH 24 0
BBX 8 4 8 11
BITMAP
FF
00
00
FF
ENDCHAR
STARTCHAR 207D
ENCODING 8317
SWIDTH 1000 0
DWIDTH 24 0
BBX 3 12 10 7
BITMAP
20
40
40
80
80
80
80
80
80
40
40
20
ENDCHAR
STARTCHAR 207E
ENCODING 8318
SWIDTH 1000 0
DWIDTH 24 0
BBX 3 12 10 7
BITMAP
80
40
40
20
20
20
20
20
20
40
40
80
ENDCHAR
STARTCHAR 207F
ENCODING 8319
SWIDTH 1000 0
DWIDTH 24 0
BBX 4 6 10 13
BITMAP
B0
F0
90
90
90
90
ENDCHAR
STARTCHAR 2081
ENCODING 8321
SWIDTH 1000 0
DWIDTH 24 0
BBX 2 6 11 -3
BITMAP
40
C0
40
40
40
40
ENDCHAR
STARTCHAR 2082
ENCODING 8322
SWIDTH 1000 0
DWIDTH 24 0
BBX 4 6 10 -2
BITMAP
F0
90
10
20
C0
F0
ENDCHAR
STARTCHAR 2083
ENCODING 8323
SWIDTH 1000 0
DWIDTH 24 0
BBX 4 6 10 -2
BITMAP
F0
90
20
30
F0
60
ENDCHAR
STARTCHAR 2084
ENCODING 8324
SWIDTH 1000 0
DWIDTH 24 0
BBX 4 6 11 -2
BITMAP
20
60
A0
A0
F0
20
ENDCHAR
STARTCHAR 20A9
ENCODING 8361
SWIDTH 1000 0
DWIDTH 24 0
BBX 20 17 2 -1
BITMAP
000020
606060
606060
20F040
20F040
3090C0
3090C0
FFFFF0
119880
190980
190980
090900
0B0D00
0E0700
0E0700
060600
060600
ENDCHAR
STARTCHAR 20AC
ENCODING 8364
SWIDTH 1000 0
DWIDTH 24 0
BBX 12 17 6 -1
BITMAP
07E0
1FE0
1800
3000
6000
FF80
FF00
6000
6000
FE00
FE00
6000
2000
3000
1810
1FF0
07C0
ENDCHAR
STARTCHAR 2103
ENCODING 8451
SWIDTH 1000 0
DWIDTH 24 0
BBX 16 18 4 -2
BITMAP
6000
9000
8800
91F8
630C
0602
0C03
0800
0800
0800
0800
0800
0801
0803
0C03
0606
030C
01F8
ENDCHAR
STARTCHAR 2109
ENCODING 8457
SWIDTH 1000 0
DWIDTH 24 0
BBX 16 18 4 -1
BITMAP
7000
8800
8BFF
8B00
7300
0300
0300
0300
0300
03FE
0300
0300
0300
0300
0300
0300
0300
0300
ENDCHAR
STARTCHAR 2113
ENCODING 8467
SWIDTH 1000 0
DWIDTH 24 0
BBX 8 17 8 -1
BITMAP
0E
0B
19
11
11
33
32
22
26
24
2C
28
30
30
E2
B6
1C
ENDCHAR
STARTCHAR 2116
ENCODING 8470
SWIDTH 1000 0
DWIDTH 24 0
BBX 20 17 2 -1
BITMAP
C08000
C08000
C08000
A08000
A08F00
909980
909080
98A040
88A040
8CA040
84A040
86A040
82A040
83A040
8190B0
8199B0
808F30
ENDCHAR
STARTCHAR 2121
ENCODING 8481
SWIDTH 1000 0
DWIDTH 24 0
BBX 19 17 2 -1
BITMAP
FFC020
040020
040020
040020
043C20
046620
044220
048120
048120
048120
04FF20
048020
048020
048120
044320
046220
043C20
ENDCHAR
STARTCHAR 2122
ENCODING 8482
SWIDTH 1000 0
DWIDTH 24 0
BBX 20 7 2 10
BITMAP
FF6030
086030
085050
0858D0
084890
084510
084710
ENDCHAR
STARTCHAR 2126
ENCODING 8486
SWIDTH 1000 0
DWIDTH 24 0
BBX 13 17 5 0
BITMAP
0FC0
3860
6030
4018
C008
8008
8008
C008
C008
4018
6030
38E0
0480
4488
4488
4488
7CF8
ENDCHAR
STARTCHAR 212B
ENCODING 8491
SWIDTH 1000 0
DWIDTH 24 0
BBX 12 18 6 -2
BITMAP
0600
0900
0900
0600
0000
0600
0600
0F00
0900
1900
1980
1080
30C0
3FC0
6060
6060
4020
C030
ENDCHAR
STARTCHAR 2153
ENCODING 8531
SWIDTH 1000 0
DWIDTH 24 0
BBX 14 21 5 -3
BITMAP
3000
3000
F000
300C
3008
3010
3020
3040
3080
0100
0200
0420
0878
1888
3088
2038
4030
8008
0088
00F8
0070
ENDCHAR
STARTCHAR 2154
ENCODING 8532
SWIDTH 1000 0
DWIDTH 24 0
BBX 15 21 5 -3
BITMAP
7800
FC00
C400
C404
0808
1018
2030
4060
FC40
FC80
0100
0210
043C
0844
1044
201C
601C
4002
0042
007E
003C
ENDCHAR
STARTCHAR 215B
ENCODING 8539
SWIDTH 1000 0
DWIDTH 24 0
BBX 14 21 5 -3
BITMAP
3000
3000
F000
300C
3018
3010
3020
3040
3080
0100
0200
0420
08F8
1888
3088
6070
40F8
8084
0084
00FC
0078
ENDCHAR
STARTCHAR 215C
ENCODING 8540
SWIDTH 1000 0
DWIDTH 24 0
BBX 14 22 5 -3
BITMAP
2000
7800
8800
8800
3804
3808
0410
8420
CC40
F880
0100
0200
0638
0C7C
1844
1044
2038
407C
0084
0084
00FC
0078
ENDCHAR
STARTCHAR 215D
ENCODING 8541
SWIDTH 1000 0
DWIDTH 24 0
BBX 14 20 5 -3
BITMAP
7C00
7C00
F804
8C08
0410
8420
FC40
7880
0100
0200
0638
0C7C
1844
107C
2078
40CC
8084
0084
00FC
0078
ENDCHAR
STARTCHAR 215E
ENCODING 8542
SWIDTH 1000 0
DWIDTH 24 0
BBX 14 21 5 -5
BITMAP
FC00
FC00
0808
1018
2010
2020
4040
4080
4100
0200
0400
0820
1070
3088
6088
4088
8070
00F8
0084
0084
0078
ENDCHAR
STARTCHAR 2160
ENCODING 8544
SWIDTH 1000 0
DWIDTH 24 0
BBX 2 18 11 -1
BITMAP
C0
C0
C0
C0
C0
C0
C0
C0
C0
C0
C0
C0
C0
C0
C0
C0
C0
C0
ENDCHAR
STARTCHAR 2161
ENCODING 8545
SWIDTH 1000 0
DWIDTH 24 0
BBX 8 18 8 -1
BITMAP
C3
C3
C3
C3
C3
C3
C3
C3
C3
C3
C3
C3
C3
C3
C3
C3
C3
C3
ENDCHAR
STARTCHAR 2162
ENCODING 8546
SWIDTH 1000 0
DWIDTH 24 0
BBX 12 18 6 -1
BITMAP
C610
C610
C610
C610
C610
C610
C610
C610
C610
C610
C610
C610
C610
C610
C610
C610
C610
C610
ENDCHAR
STARTCHAR 2163
ENCODING 8547
SWIDTH 1000 0
DWIDTH 24 0
BBX 16 18 4 -1
BITMAP
CC03
CC02
CC06
C406
C604
C604
C20C
C20C
C308
C318
C118
C198
C190
C1B0
C0B0
C0E0
C0E0
C060
ENDCHAR
STARTCHAR 2164
ENCODING 8548
SWIDTH 1000 0
DWIDTH 24 0
BBX 14 18 5 -1
BITMAP
C00C
4008
6018
6018
2010
3030
3030
1020
1060
1860
0840
08C0
0CC0
0480
0580
0780
0300
0300
ENDCHAR
STARTCHAR 2165
ENCODING 8549
SWIDTH 1000 0
DWIDTH 24 0
BBX 16 18 4 -1
BITMAP
C033
C033
4023
4063
6063
6043
20C3
30C3
30C3
1083
1183
1983
1903
0903
0B03
0F03
0E03
0603
ENDCHAR
STARTCHAR 2166
ENCODING 8550
SWIDTH 1000 0
DWIDTH 24 0
BBX 17 18 3 -1
BITMAP
C0CD80
C0CD80
40CD80
408D80
608D80
618D80
218D80
218D80
310D80
310D80
330D80
130D80
120D80
1A0D80
1E0D80
0E0D80
0E0D80
0C0D80
ENDCHAR
STARTCHAR 2167
ENCODING 8551
SWIDTH 1000 0
DWIDTH 24 0
BBX 18 18 3 -1
BITMAP
C13640
C13640
433640
433640
433640
623640
623640
623640
263640
263640
263640
343640
343640
343640
1C3640
1C3640
1C3640
183640
ENDCHAR
STARTCHAR 2168
ENCODING 8552
SWIDTH 1000 0
DWIDTH 24 0
BBX 17 18 4 -1
BITMAP
C60300
C60300
C30600
C30400
C18C00
C09800
C0D800
C07000
C06000
C07000
C0D000
C0D800
C18C00
C18C00
C30600
C60200
C60300
CC0180
ENDCHAR
STARTCHAR 2169
ENCODING 8553
SWIDTH 1000 0
DWIDTH 24 0
BBX 14 18 5 -1
BITMAP
6018
6018
3030
1860
1860
0CC0
0480
0780
0300
0300
0780
0CC0
0C40
1860
3030
3030
6018
C00C
ENDCHAR
STARTCHAR 2170
ENCODING 8560
SWIDTH 1000 0
DWIDTH 24 0
BBX 2 18 11 -1
BITMAP
C0
C0
C0
00
00
C0
C0
C0
C0
C0
C0
C0
C0
C0
C0
C0
C0
C0
ENDCHAR
STARTCHAR 2171
ENCODING 8561
SWIDTH 1000 0
DWIDTH 24 0
BBX 8 18 8 -1
BITMAP
C3
C3
C3
00
00
C3
C3
C3
C3
C3
C3
C3
C3
C3
C3
C3
C3
C3
ENDCHAR
STARTCHAR 2172
ENCODING 8562
SWIDTH 1000 0
DWIDTH 24 0
BBX 12 18 6 -1
BITMAP
C610
C610
C610
0000
0000
C610
C610
C610
C610
C610
C610
C610
C610
C610
C610
C610
C610
C610
ENDCHAR
STARTCHAR 2173
ENCODING 8563
SWIDTH 1000 0
DWIDTH 24 0
BBX 13 18 5 -1
BITMAP
C000
C000
C000
0000
0000
C808
CC18
CC18
C410
C430
C630
C220
C220
C360
C140
C140
C1C0
C180
ENDCHAR
STARTCHAR 2174
ENCODING 8564
SWIDTH 1000 0
DWIDTH 24 0
BBX 10 13 7 -1
BITMAP
80C0
C0C0
4080
4080
6180
2100
2100
3300
1200
1200
1E00
0C00
0C00
ENDCHAR
STARTCHAR 2175
ENCODING 8565
SWIDTH 1000 0
DWIDTH 24 0
BBX 13 18 6 -1
BITMAP
0018
0018
0018
0000
0000
8198
8198
C118
C318
4318
6218
6218
2618
2418
3418
1C18
1818
1818
ENDCHAR
STARTCHAR 2176
ENCODING 8566
SWIDTH 1000 0
DWIDTH 24 0
BBX 15 18 5 -1
BITMAP
0036
0036
0036
0000
0000
8136
8336
C336
4236
4236
4636
6436
2436
2436
2C36
3836
1836
1836
ENDCHAR
STARTCHAR 2177
ENCODING 8567
SWIDTH 1000 0
DWIDTH 24 0
BBX 18 18 3 -1
BITMAP
0036C0
0036C0
0036C0
000000
000000
C136C0
C136C0
4336C0
4336C0
6236C0
2236C0
2636C0
2636C0
3436C0
1436C0
1C36C0
1C36C0
1836C0
ENDCHAR
STARTCHAR 2178
ENCODING 8568
SWIDTH 1000 0
DWIDTH 24 0
BBX 14 18 5 -1
BITMAP
C000
C000
C000
0000
0000
C418
C618
C230
C320
C1E0
C0C0
C0C0
C1C0
C120
C330
C610
C418
CC0C
ENDCHAR
STARTCHAR 2179
ENCODING 8569
SWIDTH 1000 0
DWIDTH 24 0
BBX 10 13 7 -1
BITMAP
C0C0
6180
2100
3300
1E00
0C00
0C00
1E00
1200
3300
6180
4080
C0C0
ENDCHAR
STARTCHAR 2190
ENCODING 8592
SWIDTH 1000 0
DWIDTH 24 0
BBX 22 7 1 4
BITMAP
100000
100000
600000
FFFFFC
600000
300000
100000
ENDCHAR
STARTCHAR 2191
ENCODING 8593
SWIDTH 1000 0
DWIDTH 24 0
BBX 7 24 9 -4
BITMAP
10
38
7C
92
10
10
10
10
10
10
10
10
10
10
10
10
10
10
10
10
10
10
10
10
ENDCHAR
STARTCHAR 2192
ENCODING 8594
SWIDTH 1000 0
DWIDTH 24 0
BBX 22 6 1 5
BITMAP
000020
000018
FFFFFC
000018
000030
000020
ENDCHAR
STARTCHAR 2193
ENCODING 8595
SWIDTH 1000 0
DWIDTH 24 0
BBX 7 24 8 -4
BITMAP
08
08
08
08
08
08
08
08
08
08
08
08
08
08
08
08
08
08
08
88
6A
3C
1C
08
ENDCHAR
STARTCHAR 2194
ENCODING 8596
SWIDTH 1000 0
DWIDTH 24 0
BBX 22 7 1 4
BITMAP
100000
100020
600018
FFFFFC
600018
300030
100020
ENDCHAR
STARTCHAR 2195
ENCODING 8597
SWIDTH 1000 0
DWIDTH 24 0
BBX 7 24 9 -4
BITMAP
10
38
7C
92
10
10
10
10
10
10
10
10
10
10
10
10
10
10
10
10
D4
78
38
10
ENDCHAR
STARTCHAR 2196
ENCODING 8598
SWIDTH 1000 0
DWIDTH 24 0
BBX 21 23 1 -5
BITMAP
600000
780000
600000
500000
880000
040000
060000
020000
010000
008000
004000
002000
001000
000800
000400
000200
000300
000100
000080
000040
000020
000010
000008
ENDCHAR
STARTCHAR 2197
ENCODING 8599
SWIDTH 1000 0
DWIDTH 24 0
BBX 20 23 2 -5
BITMAP
000030
0000F0
000030
000050
000090
000100
000200
000400
000400
000800
001000
002000
004000
008000
010000
020000
040000
080000
080000
100000
200000
400000
800000
ENDCHAR
STARTCHAR 2198
ENCODING 8600
SWIDTH 1000 0
DWIDTH 24 0
BBX 20 22 2 -4
BITMAP
800000
400000
200000
100000
080000
040000
020000
010000
010000
008000
004000
002000
001000
000800
000400
000200
000100
000080
000090
000050
000030
0001F0
ENDCHAR
STARTCHAR 2199
ENCODING 8601
SWIDTH 1000 0
DWIDTH 24 0
BBX 21 22 1 -4
BITMAP
000008
000010
000020
000040
000080
000100
000200
000400
000800
000800
001000
002000
004000
008000
010000
020000
040000
080000
900000
500000
600000
7C0000
ENDCHAR
STARTCHAR 21B0
ENCODING 8624
SWIDTH 1000 0
DWIDTH 24 0
BBX 19 23 3 -5
BITMAP
200000
200000
600000
FFFFE0
E00020
600020
200020
000020
000020
000020
000020
000020
000020
000020
000020
000020
000020
000020
000020
000020
000020
000020
000020
ENDCHAR
STARTCHAR 21B1
ENCODING 8625
SWIDTH 1000 0
DWIDTH 24 0
BBX 19 23 2 -5
BITMAP
000080
0000C0
0000C0
FFFFE0
8000E0
8000C0
800080
800000
800000
800000
800000
800000
800000
800000
800000
800000
800000
800000
800000
800000
800000
800000
800000
ENDCHAR
STARTCHAR 21B2
ENCODING 8626
SWIDTH 1000 0
DWIDTH 24 0
BBX 19 23 3 -3
BITMAP
000020
000020
000020
000020
000020
000020
000020
000020
000020
000020
000020
000020
000020
000020
000020
000020
200020
600020
600020
FFFFE0
E00000
600000
200000
ENDCHAR
STARTCHAR 21B3
ENCODING 8627
SWIDTH 1000 0
DWIDTH 24 0
BBX 19 22 2 -2
BITMAP
800000
800000
800000
800000
800000
800000
800000
800000
800000
800000
800000
800000
800000
800000
800000
800080
8000C0
8000C0
FFFFE0
0000E0
0000C0
000080
ENDCHAR
STARTCHAR 21B4
ENCODING 8628
SWIDTH 1000 0
DWIDTH 24 0
BBX 19 22 2 -5
BITMAP
FFFF80
000080
000080
000080
000080
000080
000080
000080
000080
000080
000080
000080
000080
000080
000080
000080
000080
000080
000080
0003E0
0001C0
000080
ENDCHAR
STARTCHAR 21BC
ENCODING 8636
SWIDTH 1000 0
DWIDTH 24 0
BBX 21 5 2 7
BITMAP
020000
0C0000
380000
700000
FFFFF8
ENDCHAR
STARTCHAR 21C0
ENCODING 8640
SWIDTH 1000 0
DWIDTH 24 0
BBX 21 5 1 7
BITMAP
000200
000180
0000C0
000070
FFFFF8
ENDCHAR
STARTCHAR 21C4
ENCODING 8644
SWIDTH 1000 0
DWIDTH 24 0
BBX 22 14 1 1
BITMAP
000020
000018
FFFFFC
000018
000030
000020
000000
100000
100000
600000
FFFFFC
600000
300000
100000
ENDCHAR
STARTCHAR 21C5
ENCODING 8645
SWIDTH 1000 0
DWIDTH 24 0
BBX 14 24 5 -4
BITMAP
1010
3810
7C10
9210
1010
1010
1010
1010
1010
1010
1010
1010
1010
1010
1010
1010
1010
1010
1010
1010
10D4
1078
1038
1010
ENDCHAR
STARTCHAR 21CD
ENCODING 8653
SWIDTH 1000 0
DWIDTH 24 0
BBX 21 14 2 0
BITMAP
000800
081000
101000
201000
3FFFF8
402000
802000
802000
402000
3FFFF8
204000
104000
084000
008000
ENDCHAR
STARTCHAR 21CF
ENCODING 8655
SWIDTH 1000 0
DWIDTH 24 0
BBX 21 14 1 0
BITMAP
001000
001080
001080
001040
FFFFE0
002010
002008
004008
004010
FFFFE0
004040
008040
008080
008000
ENDCHAR
STARTCHAR 21D0
ENCODING 8656
SWIDTH 1000 0
DWIDTH 24 0
BBX 21 12 2 1
BITMAP
080000
100000
200000
3FFFF8
400000
800000
800000
400000
3FFFF8
200000
100000
080000
ENDCHAR
STARTCHAR 21D1
ENCODING 8657
SWIDTH 1000 0
DWIDTH 24 0
BBX 20 24 2 -4
BITMAP
010800
010800
030C00
050A00
090900
110880
210840
410820
410820
810810
010800
010800
010800
010800
010800
010800
010800
010800
010800
010800
010800
010800
010800
010800
ENDCHAR
STARTCHAR 21D2
ENCODING 8658
SWIDTH 1000 0
DWIDTH 24 0
BBX 21 12 1 1
BITMAP
000080
000080
000040
FFFFE0
000010
000008
000008
000010
FFFFE0
000040
000040
000080
ENDCHAR
STARTCHAR 21D3
ENCODING 8659
SWIDTH 1000 0
DWIDTH 24 0
BBX 20 23 2 -4
BITMAP
010800
010800
010800
010800
010800
010800
010800
010800
010800
010800
010800
010800
010800
010800
810810
410820
210840
110880
110880
090900
050A00
030C00
010800
ENDCHAR
STARTCHAR 21D4
ENCODING 8660
SWIDTH 1000 0
DWIDTH 24 0
BBX 20 12 2 1
BITMAP
080200
100100
200080
3FFFC0
400020
800010
800010
400020
3FFFC0
200080
100100
080100
ENDCHAR
STARTCHAR 21E0
ENCODING 8672
SWIDTH 1000 0
DWIDTH 24 0
BBX 21 9 1 3
BITMAP
080000
180000
380000
79CE38
F9CE38
79CE38
380000
180000
080000
ENDCHAR
STARTCHAR 21E1
ENCODING 8673
SWIDTH 1000 0
DWIDTH 24 0
BBX 9 21 7 -3
BITMAP
0800
1C00
3E00
7F00
FF80
0000
0000
1C00
1C00
1C00
0000
0000
1C00
1C00
1C00
0000
0000
0000
1C00
1C00
1C00
ENDCHAR
STARTCHAR 21E2
ENCODING 8674
SWIDTH 1000 0
DWIDTH 24 0
BBX 21 9 2 3
BITMAP
000080
0000C0
0000E0
E71CF0
E71CF8
E71CF0
0000E0
0000C0
000080
ENDCHAR
STARTCHAR 21E3
ENCODING 8675
SWIDTH 1000 0
DWIDTH 24 0
BBX 9 21 7 -4
BITMAP
1C00
1C00
1C00
0000
0000
1C00
1C00
1C00
0000
0000
0000
1C00
1C00
1C00
0000
0000
FF80
7F00
3E00
1C00
0800
ENDCHAR
STARTCHAR 21E6
ENCODING 8678
SWIDTH 1000 0
DWIDTH 24 0
BBX 21 17 2 -2
BITMAP
008000
018000
028000
048000
088000
10FFF8
200008
400008
800008
400008
200008
100008
08FFF8
048000
028000
018000
008000
ENDCHAR
STARTCHAR 21E7
ENCODING 8679
SWIDTH 1000 0
DWIDTH 24 0
BBX 16 22 4 -3
BITMAP
0180
0240
0420
0810
1008
2004
4002
F81F
0810
0810
0810
0810
0810
0810
0810
0810
0810
0810
0810
0810
0810
0FF0
ENDCHAR
STARTCHAR 21E8
ENCODING 8680
SWIDTH 1000 0
DWIDTH 24 0
BBX 20 16 2 -1
BITMAP
000800
000C00
000A00
000900
FFF880
800040
800020
800010
800010
800020
800040
FFF880
000900
000A00
000C00
000800
ENDCHAR
STARTCHAR 21E9
ENCODING 8681
SWIDTH 1000 0
DWIDTH 24 0
BBX 16 22 4 -4
BITMAP
0FF0
0810
0810
0810
0810
0810
0810
0810
0810
0810
0810
0810
0810
0810
F81F
8002
4004
2008
1010
0820
0440
0380
ENDCHAR
STARTCHAR 2200
ENCODING 8704
SWIDTH 1000 0
DWIDTH 24 0
BBX 14 17 5 0
BITMAP
C00C
C00C
4008
6018
6018
3FF0
3030
1020
1860
1860
0840
0CC0
0CC0
0480
0780
0300
0300
ENDCHAR
STARTCHAR 2202
ENCODING 8706
SWIDTH 1000 0
DWIDTH 24 0
BBX 8 10 8 2
BITMAP
3C
42
03
1F
63
43
C6
86
CC
70
ENDCHAR
STARTCHAR 2203
ENCODING 8707
SWIDTH 1000 0
DWIDTH 24 0
BBX 12 17 6 0
BITMAP
FFF0
0030
0030
0030
0030
0030
0030
0030
7FF0
0030
0030
0030
0030
0030
0030
0030
FFF0
ENDCHAR
STARTCHAR 2206
ENCODING 8710
SWIDTH 1000 0
DWIDTH 24 0
BBX 16 16 4 0
BITMAP
0180
0180
02C0
02C0
0460
0460
0470
0830
0830
1018
1018
200C
200C
4006
7FFE
FFFF
ENDCHAR
STARTCHAR 2207
ENCODING 8711
SWIDTH 1000 0
DWIDTH 24 0
BBX 18 14 3 0
BITMAP
FFFFC0
400080
600180
300300
100200
180600
080400
040C00
061800
021000
033000
01E000
00C000
00C000
ENDCHAR
STARTCHAR 2208
ENCODING 8712
SWIDTH 1000 0
DWIDTH 24 0
BBX 17 13 4 1
BITMAP
1FFF80
300000
400000
C00000
800000
800000
FFFF80
800000
800000
C00000
400000
300000
1FFF80
ENDCHAR
STARTCHAR 2209
ENCODING 8713
SWIDTH 1000 0
DWIDTH 24 0
BBX 14 15 5 -1
BITMAP
0040
0040
1FFC
2040
4080
8080
8080
FFFC
8100
8100
4100
6200
1FFC
0200
0200
ENDCHAR
STARTCHAR 220B
ENCODING 8715
SWIDTH 1000 0
DWIDTH 24 0
BBX 17 13 3 1
BITMAP
FFFC00
000600
000100
000180
000080
000080
FFFF80
000080
000080
000180
000100
000600
FFFC00
ENDCHAR
STARTCHAR 220C
ENCODING 8716
SWIDTH 1000 0
DWIDTH 24 0
BBX 14 15 5 -1
BITMAP
0100
0100
FFE0
0110
0208
0204
0204
FFFC
0404
0404
0408
0818
FFE0
0800
0800
ENDCHAR
STARTCHAR 220F
ENCODING 8719
SWIDTH 1000 0
DWIDTH 24 0
BBX 15 17 4 0
BITMAP
FFFE
1830
1830
1830
1830
1830
1830
1830
1830
1830
1830
1830
1830
1830
1830
1830
1830
ENDCHAR
STARTCHAR 2211
ENCODING 8721
SWIDTH 1000 0
DWIDTH 24 0
BBX 12 17 6 0
BITMAP
FFF0
E000
7000
3000
1800
0C00
0600
0300
0380
0700
0E00
0C00
1800
3000
6000
C000
FFF0
ENDCHAR
STARTCHAR 2213
ENCODING 8723
SWIDTH 1000 0
DWIDTH 24 0
BBX 15 15 5 -1
BITMAP
FFFE
0000
0000
0100
0100
0100
0100
0100
FFFE
0100
0100
0100
0100
0100
0100
ENDCHAR
STARTCHAR 221A
ENCODING 8730
SWIDTH 1000 0
DWIDTH 24 0
BBX 18 16 3 -2
BITMAP
00FFC0
008000
010000
010000
010000
020000
020000
020000
040000
040000
440000
C80000
280000
280000
180000
100000
ENDCHAR
STARTCHAR 221D
ENCODING 8733
SWIDTH 1000 0
DWIDTH 24 0
BBX 16 9 4 3
BITMAP
3C0F
4331
8120
80C0
8040
80C0
8120
4330
3C0F
ENDCHAR
STARTCHAR 221E
ENCODING 8734
SWIDTH 1000 0
DWIDTH 24 0
BBX 18 9 5 3
BITMAP
3C0F00
633180
C120C0
80C040
804040
80C040
8120C0
433080
3C0F00
ENDCHAR
STARTCHAR 221F
ENCODING 8735
SWIDTH 1000 0
DWIDTH 24 0
BBX 14 13 5 2
BITMAP
8000
8000
8000
8000
8000
8000
8000
8000
8000
8000
8000
8000
FFFC
ENDCHAR
STARTCHAR 2220
ENCODING 8736
SWIDTH 1000 0
DWIDTH 24 0
BBX 15 14 4 1
BITMAP
0008
0010
0020
0040
0080
0100
0300
0200
0400
0800
1000
2000
4000
FFFE
ENDCHAR
STARTCHAR 2222
ENCODING 8738
SWIDTH 1000 0
DWIDTH 24 0
BBX 14 13 5 1
BITMAP
0080
004C
0030
00E0
0720
1810
6010
E010
1C10
0320
00E0
0058
0084
ENDCHAR
STARTCHAR 2225
ENCODING 8741
SWIDTH 1000 0
DWIDTH 24 0
BBX 14 15 5 0
BITMAP
0044
0084
0108
0110
0210
0420
0420
0840
0880
1080
2100
2100
4200
4400
8400
ENDCHAR
STARTCHAR 2226
ENCODING 8742
SWIDTH 1000 0
DWIDTH 24 0
BBX 14 16 5 0
BITMAP
2044
1084
1108
0908
0A10
0420
0620
0A40
0940
1080
2180
2140
4240
4420
8420
0010
ENDCHAR
STARTCHAR 2227
ENCODING 8743
SWIDTH 1000 0
DWIDTH 24 0
BBX 16 14 4 1
BITMAP
0180
0180
0240
0240
0420
0420
0810
0810
1008
1008
2004
2004
4002
C003
ENDCHAR
STARTCHAR 2228
ENCODING 8744
SWIDTH 1000 0
DWIDTH 24 0
BBX 14 14 5 1
BITMAP
8004
8004
4008
4008
2010
2010
1020
1020
0840
0840
0480
0480
0300
0300
ENDCHAR
STARTCHAR 2229
ENCODING 8745
SWIDTH 1000 0
DWIDTH 24 0
BBX 13 17 5 -1
BITMAP
0F80
3060
4010
4018
8008
8008
8008
8008
8008
8008
8008
8008
8008
8008
8008
8008
8008
ENDCHAR
STARTCHAR 222A
ENCODING 8746
SWIDTH 1000 0
DWIDTH 24 0
BBX 13 17 5 -1
BITMAP
8008
8008
8008
8008
8008
8008
8008
8008
8008
8008
8008
8008
8008
4018
4010
3060
0F80
ENDCHAR
STARTCHAR 222B
ENCODING 8747
SWIDTH 1000 0
DWIDTH 24 0
BBX 10 20 7 -2
BITMAP
0380
06C0
0400
0400
0C00
0C00
0C00
0C00
0C00
0C00
0C00
0800
0800
0800
0800
0800
1800
1800
9000
6000
ENDCHAR
STARTCHAR 222C
ENCODING 8748
SWIDTH 1000 0
DWIDTH 24 0
BBX 16 20 4 -2
BITMAP
01C6
0249
0618
0618
0410
0410
0410
0410
0C30
0C30
0C30
0C30
0C30
0C30
0C30
0820
0820
0820
DB40
71C0
ENDCHAR
STARTCHAR 222E
ENCODING 8750
SWIDTH 1000 0
DWIDTH 24 0
BBX 10 20 7 -2
BITMAP
0380
02C0
0400
0400
0400
0C00
0C00
3F00
2D00
4980
4980
4900
2A00
1C00
0800
0800
1800
1000
9000
6000
ENDCHAR
STARTCHAR 2234
ENCODING 8756
SWIDTH 1000 0
DWIDTH 24 0
BBX 14 12 3 2
BITMAP
0300
0300
0000
0000
0000
0000
0000
0000
0000
0000
C00C
C00C
ENDCHAR
STARTCHAR 2235
ENCODING 8757
SWIDTH 1000 0
DWIDTH 24 0
BBX 14 12 5 1
BITMAP
C00C
C00C
0000
0000
0000
0000
0000
0000
0000
0000
0300
0300
ENDCHAR
STARTCHAR 2236
ENCODING 8758
SWIDTH 1000 0
DWIDTH 24 0
BBX 4 10 10 2
BITMAP
F0
60
00
00
00
00
00
00
60
F0
ENDCHAR
STARTCHAR 2237
ENCODING 8759
SWIDTH 1000 0
DWIDTH 24 0
BBX 9 10 7 3
BITMAP
C180
C180
0000
0000
0000
0000
0000
0000
C180
C180
ENDCHAR
STARTCHAR 223D
ENCODING 8765
SWIDTH 1000 0
DWIDTH 24 0
BBX 18 9 3 3
BITMAP
3C0E00
603180
C020C0
804040
804040
808040
8100C0
630180
3C0F00
ENDCHAR
STARTCHAR 2243
ENCODING 8771
SWIDTH 1000 0
DWIDTH 24 0
BBX 17 7 3 5
BITMAP
3F8100
40FE00
000000
000000
000000
000000
FFFF80
ENDCHAR
STARTCHAR 2245
ENCODING 8773
SWIDTH 1000 0
DWIDTH 24 0
BBX 17 11 3 2
BITMAP
1F0100
21C300
407C00
000000
000000
000000
000000
FFFF80
000000
000000
FFFF80
ENDCHAR
STARTCHAR 2248
ENCODING 8776
SWIDTH 1000 0
DWIDTH 24 0
BBX 14 8 5 3
BITMAP
7E04
81F8
0000
0000
0000
0000
7E04
81F8
ENDCHAR
STARTCHAR 2250
ENCODING 8784
SWIDTH 1000 0
DWIDTH 24 0
BBX 16 11 4 2
BITMAP
0080
01C0
0180
0000
0000
0000
FFFF
0000
0000
0000
FFFF
ENDCHAR
STARTCHAR 2251
ENCODING 8785
SWIDTH 1000 0
DWIDTH 24 0
BBX 16 14 4 0
BITMAP
0180
0380
0100
0000
FFFF
0000
0000
0000
FFFF
0000
0000
0180
0380
0100
ENDCHAR
STARTCHAR 2252
ENCODING 8786
SWIDTH 1000 0
DWIDTH 24 0
BBX 16 14 4 0
BITMAP
3000
3800
1000
0000
FFFF
0000
0000
0000
FFFF
0000
0000
0018
001C
0008
ENDCHAR
STARTCHAR 2253
ENCODING 8787
SWIDTH 1000 0
DWIDTH 24 0
BBX 16 14 4 0
BITMAP
0018
001C
0008
0000
FFFF
0000
0000
0000
FFFF
0000
0000
3000
3800
1000
ENDCHAR
STARTCHAR 225A
ENCODING 8794
SWIDTH 1000 0
DWIDTH 24 0
BBX 15 15 5 1
BITMAP
2008
2010
1010
1020
0820
0440
0480
0280
0300
0100
0000
FFFE
0000
0000
FFFE
ENDCHAR
STARTCHAR 2260
ENCODING 8800
SWIDTH 1000 0
DWIDTH 24 0
BBX 14 15 5 -1
BITMAP
0080
0080
0080
0180
0100
FFFC
0100
0300
0200
FFFC
0600
0400
0400
0400
0C00
ENDCHAR
STARTCHAR 2261
ENCODING 8801
SWIDTH 1000 0
DWIDTH 24 0
BBX 16 9 4 3
BITMAP
FFFF
0000
0000
0000
FFFF
0000
0000
0000
FFFF
ENDCHAR
STARTCHAR 2262
ENCODING 8802
SWIDTH 1000 0
DWIDTH 24 0
BBX 16 13 4 1
BITMAP
0010
0020
0020
FFFF
0040
0080
FFFF
0100
0200
0200
FFFF
0400
0800
ENDCHAR
STARTCHAR 2264
ENCODING 8804
SWIDTH 1000 0
DWIDTH 24 0
BBX 15 17 5 -1
BITMAP
0004
0018
0060
0180
0600
1800
6000
C000
3000
0C00
0300
0180
0060
0018
0004
0000
FFFE
ENDCHAR
STARTCHAR 2265
ENCODING 8805
SWIDTH 1000 0
DWIDTH 24 0
BBX 15 17 5 -1
BITMAP
C000
3000
0C00
0300
00C0
0070
0018
0004
0018
0060
0180
0600
1800
3000
4000
0000
FFFE
ENDCHAR
STARTCHAR 2266
ENCODING 8806
SWIDTH 1000 0
DWIDTH 24 0
BBX 15 16 5 1
BITMAP
0006
0038
01C0
0600
3800
C000
3800
0600
01C0
0038
0006
0000
FFFE
0000
0000
FFFE
ENDCHAR
STARTCHAR 2267
ENCODING 8807
SWIDTH 1000 0
DWIDTH 24 0
BBX 15 16 5 1
BITMAP
C000
3800
0700
00C0
0038
0006
0038
00C0
0700
3800
C000
0000
FFFE
0000
0000
FFFE
ENDCHAR
STARTCHAR 226E
ENCODING 8814
SWIDTH 1000 0
DWIDTH 24 0
BBX 14 16 5 -1
BITMAP
0040
004C
00B0
00C0
0380
0D00
3100
C100
6100
1A00
0600
0380
0260
0410
040C
0400
ENDCHAR
STARTCHAR 226F
ENCODING 8815
SWIDTH 1000 0
DWIDTH 24 0
BBX 14 15 5 -1
BITMAP
0080
C080
3080
0D00
0300
01C0
0230
020C
0218
0260
0580
0600
0C00
3400
C800
ENDCHAR
STARTCHAR 2270
ENCODING 8816
SWIDTH 1000 0
DWIDTH 24 0
BBX 15 21 5 -3
BITMAP
0020
0020
0044
0078
01C0
0780
3880
E080
3880
0700
01C0
0138
020C
0200
FFFE
0200
0400
FFFE
0400
0800
0800
ENDCHAR
STARTCHAR 2271
ENCODING 8817
SWIDTH 1000 0
DWIDTH 24 0
BBX 15 21 4 -3
BITMAP
0020
0040
4040
3840
0740
01C0
00B8
008E
0138
01C0
0700
3900
6200
0200
FFFE
0400
0400
FFFE
0400
0800
0800
ENDCHAR
STARTCHAR 2272
ENCODING 8818
SWIDTH 1000 0
DWIDTH 24 0
BBX 15 15 5 0
BITMAP
000C
0038
01C0
0700
3800
E000
7000
1C00
0380
00E0
001C
0004
0000
7F02
81FC
ENDCHAR
STARTCHAR 2273
ENCODING 8819
SWIDTH 1000 0
DWIDTH 24 0
BBX 15 15 4 0
BITMAP
6000
3800
0700
01C0
0038
000E
001C
0070
0380
0E00
7000
4000
0000
3F02
C1FC
ENDCHAR
STARTCHAR 2276
ENCODING 8822
SWIDTH 1000 0
DWIDTH 24 0
BBX 16 15 4 0
BITMAP
000F
0070
0380
3C00
7800
0700
C0E0
381E
0701
00E0
001E
0038
01C0
0E00
F000
ENDCHAR
STARTCHAR 2277
ENCODING 8823
SWIDTH 1000 0
DWIDTH 24 0
BBX 16 15 4 0
BITMAP
F000
0E00
01C0
0038
001E
00E0
0703
381C
C0E0
0700
7800
1C00
0380
0070
000F
ENDCHAR
STARTCHAR 2279
ENCODING 8825
SWIDTH 1000 0
DWIDTH 24 0
BBX 16 20 4 -3
BITMAP
0020
0020
F040
0E40
01C0
0078
009E
00E0
0783
391C
C1E0
0700
7900
3E00
0380
0270
040F
0400
0400
0400
ENDCHAR
STARTCHAR 227A
ENCODING 8826
SWIDTH 1000 0
DWIDTH 24 0
BBX 15 13 5 1
BITMAP
0004
000C
0030
00E0
0380
1E00
F000
1C00
0300
00C0
0030
0018
0006
ENDCHAR
STARTCHAR 227B
ENCODING 8827
SWIDTH 1000 0
DWIDTH 24 0
BBX 15 13 4 1
BITMAP
4000
6000
1800
0E00
0380
00F0
001E
0070
0380
0600
1800
3000
C000
ENDCHAR
STARTCHAR 2280
ENCODING 8832
SWIDTH 1000 0
DWIDTH 24 0
BBX 15 16 5 -1
BITMAP
0100
0100
0106
0118
0130
01C0
0300
1D00
F100
0F00
0180
0160
0138
010C
0106
0100
ENDCHAR
STARTCHAR 2281
ENCODING 8833
SWIDTH 1000 0
DWIDTH 24 0
BBX 15 16 4 -1
BITMAP
0100
0100
C100
3100
1900
0700
0180
0170
011E
01E0
0380
0D00
3900
6100
C100
0100
ENDCHAR
STARTCHAR 2282
ENCODING 8834
SWIDTH 1000 0
DWIDTH 24 0
BBX 17 13 4 1
BITMAP
0FFF80
300000
400000
400000
800000
800000
800000
800000
800000
400000
400000
300000
1FFF80
ENDCHAR
STARTCHAR 2283
ENCODING 8835
SWIDTH 1000 0
DWIDTH 24 0
BBX 17 13 3 1
BITMAP
FFF800
000600
000100
000100
000080
000080
000080
000080
000080
000100
000100
000600
FFFC00
ENDCHAR
STARTCHAR 2284
ENCODING 8836
SWIDTH 1000 0
DWIDTH 24 0
BBX 14 15 5 -1
BITMAP
0040
0040
1FFC
2040
4080
8080
8080
8080
8100
8100
4100
6200
1FFC
0200
0200
ENDCHAR
STARTCHAR 2285
ENCODING 8837
SWIDTH 1000 0
DWIDTH 24 0
BBX 14 15 5 -1
BITMAP
0100
0100
FFE0
0110
0208
0204
0204
0404
0404
0404
0408
0818
FFE0
0800
0800
ENDCHAR
STARTCHAR 2286
ENCODING 8838
SWIDTH 1000 0
DWIDTH 24 0
BBX 17 15 4 0
BITMAP
0FFF80
300000
400000
800000
800000
800000
800000
800000
800000
400000
300000
1FFF80
000000
000000
FFFF80
ENDCHAR
STARTCHAR 2287
ENCODING 8839
SWIDTH 1000 0
DWIDTH 24 0
BBX 17 15 3 0
BITMAP
FFF800
000600
000100
000080
000080
000080
000080
000080
000080
000100
000600
FFFC00
000000
000000
FFFF80
ENDCHAR
STARTCHAR 228A
ENCODING 8842
SWIDTH 1000 0
DWIDTH 24 0
BBX 17 18 4 -3
BITMAP
1FFF80
600000
C00000
800000
800000
800000
800000
400000
600000
1FFF80
004000
008000
FFFF80
008000
008000
FFFF80
010000
010000
ENDCHAR
STARTCHAR 228B
ENCODING 8843
SWIDTH 1000 0
DWIDTH 24 0
BBX 17 18 3 -3
BITMAP
FFFC00
000300
000100
000080
000080
000080
000080
000100
000300
FFFC00
004000
004000
FFFF80
008000
008000
FFFF80
010000
010000
ENDCHAR
STARTCHAR 2295
ENCODING 8853
SWIDTH 1000 0
DWIDTH 24 0
BBX 19 20 2 -3
BITMAP
01F000
060C00
184300
304180
204080
404040
404040
804020
804020
BFFFA0
804020
804020
804020
404040
404040
204080
304180
180300
060C00
01F000
ENDCHAR
STARTCHAR 2296
ENCODING 8854
SWIDTH 1000 0
DWIDTH 24 0
BBX 19 20 2 -3
BITMAP
01F000
060C00
180300
300180
200080
400040
400040
800020
800020
BFFFA0
800020
800020
800020
400040
400040
200080
300180
180300
060C00
01F000
ENDCHAR
STARTCHAR 2297
ENCODING 8855
SWIDTH 1000 0
DWIDTH 24 0
BBX 19 20 2 -3
BITMAP
01F000
060C00
180300
300180
280280
440440
420C40
811820
80B020
80E020
80E020
80B020
811820
420840
440440
280280
300180
180300
060C00
01F000
ENDCHAR
STARTCHAR 22A3
ENCODING 8867
SWIDTH 1000 0
DWIDTH 24 0
BBX 12 15 6 0
BITMAP
0010
0010
0010
0010
0010
0010
0010
FFF0
0010
0010
0010
0010
0010
0010
0010
ENDCHAR
STARTCHAR 22A4
ENCODING 8868
SWIDTH 1000 0
DWIDTH 24 0
BBX 15 14 4 0
BITMAP
FFFE
0100
0100
0100
0100
0100
0100
0100
0100
0100
0100
0100
0100
0100
ENDCHAR
STARTCHAR 22A5
ENCODING 8869
SWIDTH 1000 0
DWIDTH 24 0
BBX 15 14 5 0
BITMAP
0100
0100
0100
0100
0100
0100
0100
0100
0100
0100
0100
0100
0100
FFFE
ENDCHAR
STARTCHAR 22BB
ENCODING 8891
SWIDTH 1000 0
DWIDTH 24 0
BBX 15 14 5 1
BITMAP
4008
2008
2010
1010
1020
0820
0840
0440
0280
0280
0100
0100
0000
FFFE
ENDCHAR
STARTCHAR 22BC
ENCODING 8892
SWIDTH 1000 0
DWIDTH 24 0
BBX 15 14 5 -1
BITMAP
FFFE
0000
0100
0100
0280
0280
0440
0440
0820
0820
1010
1010
2008
4008
ENDCHAR
STARTCHAR 22CE
ENCODING 8910
SWIDTH 1000 0
DWIDTH 24 0
BBX 12 14 6 2
BITMAP
0400
0600
0600
0600
0F00
0900
1980
1080
30C0
2040
6060
4020
8010
8010
ENDCHAR
STARTCHAR 22CF
ENCODING 8911
SWIDTH 1000 0
DWIDTH 24 0
BBX 12 13 6 0
BITMAP
8010
4020
6060
2040
30C0
1080
1980
0900
0900
0600
0600
0600
0400
ENDCHAR
STARTCHAR 22DA
ENCODING 8922
SWIDTH 1000 0
DWIDTH 24 0
BBX 15 17 4 -1
BITMAP
0006
0078
0F80
F000
1F00
00F8
0006
0000
FFFE
0000
C000
3E00
01E0
001E
01F0
3E00
C000
ENDCHAR
STARTCHAR 22DB
ENCODING 8923
SWIDTH 1000 0
DWIDTH 24 0
BBX 15 17 4 -1
BITMAP
C000
3E00
01E0
001E
01F0
3E00
C000
0000
FFFE
0000
0006
0078
0F80
F000
1F00
00F8
0006
ENDCHAR
STARTCHAR 22EE
ENCODING 8942
SWIDTH 1000 0
DWIDTH 24 0
BBX 2 16 11 -1
BITMAP
C0
C0
00
00
00
00
00
C0
C0
00
00
00
00
00
C0
C0
ENDCHAR
STARTCHAR 22EF
ENCODING 8943
SWIDTH 1000 0
DWIDTH 24 0
BBX 16 3 4 7
BITMAP
C183
C183
C183
ENDCHAR
STARTCHAR 2306
ENCODING 8966
SWIDTH 1000 0
DWIDTH 24 0
BBX 15 14 5 -1
BITMAP
FFFE
0000
FFFE
0000
0100
0300
0280
0480
0440
0820
1020
1010
2010
2008
ENDCHAR
STARTCHAR 2312
ENCODING 8978
SWIDTH 1000 0
DWIDTH 24 0
BBX 12 4 6 12
BITMAP
1F80
30C0
4020
8010
ENDCHAR
STARTCHAR 2314
ENCODING 8980
SWIDTH 1000 0
DWIDTH 24 0
BBX 14 14 5 -1
BITMAP
0FC0
7038
8004
8008
4008
2010
2010
1020
1020
0840
0840
0480
0500
0300
ENDCHAR
STARTCHAR 2460
ENCODING 9312
SWIDTH 1000 0
DWIDTH 24 0
BBX 21 24 1 -5
BITMAP
002000
03FE00
070700
1801C0
100040
203020
607030
41F010
C1F010
803008
803008
803008
803008
803008
803008
C03018
403010
603030
203020
100040
1801C0
060700
03FE00
002000
ENDCHAR
STARTCHAR 2461
ENCODING 9313
SWIDTH 1000 0
DWIDTH 24 0
BBX 21 22 1 -4
BITMAP
01FC00
07FF00
0C0180
18FCC0
308660
618230
410210
410210
800208
800408
800808
801008
806008
80C008
408010
410010
61FE30
31FE60
1800C0
0C0180
07FF00
01FC00
ENDCHAR
STARTCHAR 2462
ENCODING 9314
SWIDTH 1000 0
DWIDTH 24 0
BBX 21 22 1 -4
BITMAP
01FC00
07FF00
0C0180
1878C0
30FC60
618630
410210
410210
800608
803C08
803C08
800408
800208
820208
420210
430210
618430
30FC60
1820C0
0C0180
07FF00
01FC00
ENDCHAR
STARTCHAR 2463
ENCODING 9315
SWIDTH 1000 0
DWIDTH 24 0
BBX 21 22 1 -4
BITMAP
01FC00
07FF00
0C0180
1800C0
301860
603830
403810
405810
805808
809808
819808
811808
821808
83FE08
43FE10
401810
601830
301860
1800C0
0C0180
07FF00
01FC00
ENDCHAR
STARTCHAR 2464
ENCODING 9316
SWIDTH 1000 0
DWIDTH 24 0
BBX 21 22 1 -4
BITMAP
01FC00
07FF00
0C0180
19FCC0
31FC60
610030
410010
410010
817808
81FC08
830408
800208
800208
800208
420210
420610
610C30
30F860
1800C0
0C0180
07FF00
01FC00
ENDCHAR
STARTCHAR 2465
ENCODING 9317
SWIDTH 1000 0
DWIDTH 24 0
BBX 21 22 1 -4
BITMAP
01FC00
07FF00
0C0180
1878C0
30FC60
618430
410210
430010
822008
82F808
838408
830608
820208
820208
420210
410610
618C30
30F860
1800C0
0C0180
07FF00
01FC00
ENDCHAR
STARTCHAR 2466
ENCODING 9318
SWIDTH 1000 0
DWIDTH 24 0
BBX 21 22 1 -4
BITMAP
01FC00
07FF00
0C0180
1800C0
31FE60
61FE30
400410
400810
801808
801008
803008
802008
806008
806008
404010
404010
60C030
30C060
1800C0
0C0180
07FF00
01FC00
ENDCHAR
STARTCHAR 2467
ENCODING 9319
SWIDTH 1000 0
DWIDTH 24 0
BBX 21 22 1 -4
BITMAP
01FC00
07FF00
0C0180
1878C0
30FC60
618630
410210
410210
818608
80FC08
80FC08
810408
820208
820208
420210
420210
610430
31FC60
1820C0
0C0180
07FF00
01FC00
ENDCHAR
STARTCHAR 2468
ENCODING 9320
SWIDTH 1000 0
DWIDTH 24 0
BBX 21 22 1 -4
BITMAP
01FC00
07FF00
0C0180
18F0C0
31FC60
610430
420210
420210
820208
820208
830608
818E08
80FA08
802208
400210
430410
618C30
31F860
1800C0
0C0180
07FF00
01FC00
ENDCHAR
STARTCHAR 2469
ENCODING 9321
SWIDTH 1000 0
DWIDTH 24 0
BBX 21 24 1 -5
BITMAP
002000
03FE00
070700
1801C0
100440
201F20
631130
4F3190
CF2090
832088
832088
832088
832088
832088
832088
C32098
433190
631130
231F20
130440
1801C0
060700
03FE00
002000
ENDCHAR
STARTCHAR 246A
ENCODING 9322
SWIDTH 1000 0
DWIDTH 24 0
BBX 21 24 1 -5
BITMAP
002000
03FE00
070700
1801C0
100040
218220
638630
4F9E10
CF9E10
818608
818608
818608
818608
818608
818608
C18618
418610
618630
218620
100040
1801C0
060700
03FE00
002000
ENDCHAR
STARTCHAR 246B
ENCODING 9323
SWIDTH 1000 0
DWIDTH 24 0
BBX 21 24 1 -5
BITMAP
002000
03FE00
070700
1801C0
100040
233F20
6321B0
4F4090
CF4090
834088
830108
830108
830208
830C08
831008
C32018
434010
637FB0
237FA0
100040
1801C0
060700
03FE00
002000
ENDCHAR
STARTCHAR 246C
ENCODING 9324
SWIDTH 1000 0
DWIDTH 24 0
BBX 21 23 1 -4
BITMAP
002000
03FE00
070700
1801C0
300060
203F20
6321B0
4F4090
CF4098
830088
830F08
830F08
830108
830088
834088
434090
434090
432130
233F20
130040
080080
060300
01FC00
ENDCHAR
STARTCHAR 246D
ENCODING 9325
SWIDTH 1000 0
DWIDTH 24 0
BBX 21 24 1 -5
BITMAP
002000
03FE00
070700
1801C0
100040
230320
630730
4F0710
CF0B10
830B08
831308
831308
832308
832308
837F88
C37F98
430310
630330
230320
100040
1801C0
060700
03FE00
002000
ENDCHAR
STARTCHAR 246E
ENCODING 9326
SWIDTH 1000 0
DWIDTH 24 0
BBX 21 23 1 -4
BITMAP
002000
03FE00
070700
1801C0
300060
233F20
633F30
4F2010
CF2018
832008
833F08
836108
834088
830088
830088
434090
434190
432130
233E20
100040
080080
060300
01FC00
ENDCHAR
STARTCHAR 246F
ENCODING 9327
SWIDTH 1000 0
DWIDTH 24 0
BBX 21 24 1 -5
BITMAP
002000
03FE00
070700
1801C0
100040
201F20
633130
4F2190
CF6090
834008
835F08
837108
836088
834088
834088
C34098
432090
633130
231F20
130040
1801C0
060700
03FE00
002000
ENDCHAR
STARTCHAR 2470
ENCODING 9328
SWIDTH 1000 0
DWIDTH 24 0
BBX 21 23 1 -5
BITMAP
01FC00
07FF00
0C0180
1800C0
337FE0
637FA0
4F0110
4F0310
830208
830408
830408
830C08
830808
830808
831818
431810
431830
231820
300060
1800C0
0E0780
03FE00
002000
ENDCHAR
STARTCHAR 2471
ENCODING 9329
SWIDTH 1000 0
DWIDTH 24 0
BBX 21 24 1 -5
BITMAP
002000
03FE00
070700
1801C0
100440
201F20
6331B0
4F2090
CF2090
832088
831F08
831F08
832108
834088
834088
C34098
434090
632130
233F20
130040
1801C0
060700
03FE00
002000
ENDCHAR
STARTCHAR 2472
ENCODING 9330
SWIDTH 1000 0
DWIDTH 24 0
BBX 21 23 1 -4
BITMAP
002000
03FE00
070700
1801C0
300060
201F20
6311B0
4F2090
CF2098
832088
8320C8
8320C8
8311C8
831EC8
830088
430090
432190
4311B0
231F20
130040
080080
060300
01FC00
ENDCHAR
STARTCHAR 2473
ENCODING 9331
SWIDTH 1000 0
DWIDTH 24 0
BBX 21 22 1 -4
BITMAP
01FC00
07FF00
0C0180
1B87C0
378FE0
6C48B0
485050
485050
805048
809048
809048
811048
821048
841048
480890
4FCF90
6FC730
300060
1800C0
0C0180
07FF00
01FC00
ENDCHAR
STARTCHAR 2474
ENCODING 9332
SWIDTH 1000 0
DWIDTH 24 0
BBX 21 24 1 -5
BITMAP
100040
200020
200020
600030
403010
403010
C07010
C1F018
C1F018
C03018
C03018
C03018
C03018
C03018
C03018
C03018
C03018
403010
403010
403010
400030
200020
200020
100040
ENDCHAR
STARTCHAR 2475
ENCODING 9333
SWIDTH 1000 0
DWIDTH 24 0
BBX 21 24 1 -5
BITMAP
100040
200020
200020
607830
41FE10
418610
C30310
C30318
C30318
C00218
C00618
C00C18
C01818
C06018
C0C018
C18018
C10018
430010
43FF10
43FF10
400030
200020
200020
100020
ENDCHAR
STARTCHAR 2476
ENCODING 9334
SWIDTH 1000 0
DWIDTH 24 0
BBX 21 24 1 -4
BITMAP
200040
200020
200020
400030
407810
41FE10
C18610
C30318
C30318
C00218
C00618
C03818
C03E18
C00218
C00318
C60318
C60318
C30310
438610
41FC10
400030
200020
200020
200040
ENDCHAR
STARTCHAR 2477
ENCODING 9335
SWIDTH 1000 0
DWIDTH 24 0
BBX 21 24 1 -4
BITMAP
300040
200020
200020
400030
400C10
401C10
C03C10
C02C18
C06C18
C0CC18
C08C18
C10C18
C30C18
C20C18
C7FE18
C7FE18
C00C18
C00C10
400C10
400C10
400030
200020
200020
100040
ENDCHAR
STARTCHAR 2478
ENCODING 9336
SWIDTH 1000 0
DWIDTH 24 0
BBX 21 24 1 -4
BITMAP
200040
200020
200020
400030
41FE10
41FE10
C10010
C10018
C10018
C30018
C3FC18
C38E18
C30618
C00218
C00318
C00318
C60218
C20610
430E10
41FC10
400030
200020
200020
200040
ENDCHAR
STARTCHAR 2479
ENCODING 9337
SWIDTH 1000 0
DWIDTH 24 0
BBX 21 24 1 -5
BITMAP
200040
200020
200020
400030
40FC10
418E10
C30610
C30218
C20018
C67818
C6FC18
C70618
C70218
C60318
C20318
C20318
C30218
C30610
41FC10
40F810
400030
200020
200020
200040
ENDCHAR
STARTCHAR 247A
ENCODING 9338
SWIDTH 1000 0
DWIDTH 24 0
BBX 21 24 1 -4
BITMAP
300040
200060
200020
400030
400010
43FE10
C3FE10
C00618
C00C18
C00818
C01018
C01018
C02018
C02018
C06018
C04018
C04018
C0C010
40C010
40C010
40C030
200020
200060
300040
ENDCHAR
STARTCHAR 247B
ENCODING 9339
SWIDTH 1000 0
DWIDTH 24 0
BBX 21 24 1 -5
BITMAP
100040
200020
200020
402030
41FC10
418C10
C30610
C30618
C30618
C30618
C1FC18
C0F818
C38E18
C20218
C60318
C60318
C20218
C30610
41FC10
40F810
400030
200020
200020
100040
ENDCHAR
STARTCHAR 247C
ENCODING 9340
SWIDTH 1000 0
DWIDTH 24 0
BBX 21 24 1 -4
BITMAP
200040
200020
200020
400030
40F810
41FC10
C30610
C20218
C60318
C60318
C60318
C20318
C30718
C1FF18
C0FB18
C00318
C20218
C30610
438E10
41FC10
402030
200020
200020
200040
ENDCHAR
STARTCHAR 247D
ENCODING 9341
SWIDTH 1000 0
DWIDTH 24 0
BBX 21 24 1 -5
BITMAP
100060
200020
200020
400030
400E10
431F90
C73198
DF3098
DF20D8
C320D8
C360D8
C360D8
C360D8
C360D8
C360D8
C320D8
C320D8
433098
433190
431F10
430030
200020
200020
100060
ENDCHAR
STARTCHAR 247E
ENCODING 9342
SWIDTH 1000 0
DWIDTH 24 0
BBX 21 24 1 -5
BITMAP
100040
200020
200020
600030
418110
418310
C38710
CF9F18
CF9F18
C18318
C18318
C18318
C18318
C18318
C18318
C18318
C18318
418310
418310
418310
400030
200020
200020
100040
ENDCHAR
STARTCHAR 247F
ENCODING 9343
SWIDTH 1000 0
DWIDTH 24 0
BBX 21 23 1 -5
BITMAP
200060
200020
600020
421E30
463F10
462190
DE6098
DE6098
C66098
C60098
C60118
C60218
C60418
C60818
C61018
C62018
C66010
467F90
467F90
400030
200020
200020
300040
ENDCHAR
STARTCHAR 2480
ENCODING 9344
SWIDTH 1000 0
DWIDTH 24 0
BBX 21 24 1 -5
BITMAP
200060
200020
200020
400030
401E10
463F10
C62198
DE4098
DE4098
C60098
C60118
C60E18
C60F98
C60098
C600D8
C660D8
C660D8
C660D8
463190
461F10
460430
200020
200020
200060
ENDCHAR
STARTCHAR 2481
ENCODING 9345
SWIDTH 1000 0
DWIDTH 24 0
BBX 21 24 1 -4
BITMAP
100040
200020
200020
600030
430190
430390
470390
DF0598
C30598
C30998
C31998
C31198
C33198
C32198
C36198
C37FD8
C37FD8
C30198
430190
430190
400010
200020
200020
100020
ENDCHAR
STARTCHAR 2482
ENCODING 9346
SWIDTH 1000 0
DWIDTH 24 0
BBX 21 24 1 -5
BITMAP
200060
200020
200020
400030
421F90
461F90
C61018
DE3018
DE2018
C62018
C62F18
C63198
C620D8
C600D8
C600D8
C600D8
C660D8
C660D8
463190
461F10
400430
200020
200020
200060
ENDCHAR
STARTCHAR 2483
ENCODING 9347
SWIDTH 1000 0
DWIDTH 24 0
BBX 21 23 1 -5
BITMAP
200020
200020
600030
400E10
463F90
462190
DE6098
DE60D8
C64018
C6CF18
C6DF98
C6E098
C6E0D8
C6C0D8
C640D8
C640D8
C660D8
463190
463F10
460030
200030
200020
300020
ENDCHAR
STARTCHAR 2484
ENCODING 9348
SWIDTH 1000 0
DWIDTH 24 0
BBX 21 24 1 -5
BITMAP
200020
200020
200030
400010
423FD0
463FD0
C60098
DE0118
DE0118
C60218
C60618
C60418
C60418
C60C18
C60818
C60818
C61818
461810
461810
461810
600030
200020
200020
100000
ENDCHAR
STARTCHAR 2485
ENCODING 9349
SWIDTH 1000 0
DWIDTH 24 0
BBX 21 24 1 -5
BITMAP
200040
200020
200020
400030
400F10
461F90
C63190
DE20D8
DE20D8
C62098
C61198
C60F18
C63F98
C62098
C640D8
C640D8
C640D8
C640D0
462190
463F90
460430
200020
200020
200040
ENDCHAR
STARTCHAR 2486
ENCODING 9350
SWIDTH 1000 0
DWIDTH 24 0
BBX 21 24 1 -5
BITMAP
300020
200020
200030
400010
400F10
463F90
C620D8
DE40D8
DE4058
C64058
C64078
C640F8
C620F8
C63F78
C61E58
C60058
C640D8
C660D8
463190
461F10
460010
200030
200020
300020
ENDCHAR
STARTCHAR 2487
ENCODING 9351
SWIDTH 1000 0
DWIDTH 24 0
BBX 21 23 1 -4
BITMAP
200020
200020
600030
470790
4F8FD0
48C850
D04858
D05038
D05038
C05038
C09038
C11038
C31038
C41038
CC1038
C80858
D00858
5FCFD0
5FC790
400010
600030
200020
200020
ENDCHAR
STARTCHAR 249C
ENCODING 9372
SWIDTH 1000 0
DWIDTH 24 0
BBX 21 24 1 -4
BITMAP
100040
200020
200020
600030
400010
400010
C0FC10
C18E18
C30618
C30618
C00618
C03E18
C1C618
C30618
C30618
C30618
C30F18
41F310
404010
400010
600030
200020
200020
100040
ENDCHAR
STARTCHAR 249D
ENCODING 9373
SWIDTH 1000 0
DWIDTH 24 0
BBX 21 24 1 -5
BITMAP
100040
200020
200020
630030
430010
430010
C30010
C33818
C3FC18
C38618
C30318
C30318
C30318
C30318
C30318
C30318
C30318
438610
43FE10
437810
400030
200020
200020
100040
ENDCHAR
STARTCHAR 249E
ENCODING 9374
SWIDTH 1000 0
DWIDTH 24 0
BBX 21 24 1 -4
BITMAP
200040
200020
200020
400030
400010
402010
C0F810
C18C18
C30618
C20218
C60018
C60018
C60018
C60018
C20218
C30618
C18C18
C1F810
402010
400010
400030
200020
200020
300040
ENDCHAR
STARTCHAR 249F
ENCODING 9375
SWIDTH 1000 0
DWIDTH 24 0
BBX 21 24 1 -5
BITMAP
100040
200020
200020
600630
400610
400610
C00610
C0E618
C3FE18
C30E18
C60618
C60618
C60618
C60618
C60618
C60618
C60618
430E10
43FE10
40F610
600030
200020
200020
100040
ENDCHAR
STARTCHAR 24A0
ENCODING 9376
SWIDTH 1000 0
DWIDTH 24 0
BBX 21 24 1 -4
BITMAP
200040
200020
200020
400030
400010
400010
C1F810
C18C18
C30618
C20218
C60218
C7FE18
C7FE18
C60018
C20218
C30618
C18C18
C1F810
400010
400010
400030
200020
200020
200040
ENDCHAR
STARTCHAR 24A1
ENCODING 9377
SWIDTH 1000 0
DWIDTH 24 0
BBX 21 24 1 -4
BITMAP
100040
200020
200020
600030
400010
403810
C06010
C06018
C06018
C0F818
C0F818
C06018
C06018
C06018
C06018
C06018
C06018
406010
406010
406010
606030
200020
200020
100040
ENDCHAR
STARTCHAR 24A2
ENCODING 9378
SWIDTH 1000 0
DWIDTH 24 0
BBX 21 24 1 -5
BITMAP
300040
200020
200020
400030
40F310
41FF10
C30710
C30718
C60318
C60318
C60318
C60318
C20318
C30718
C1FF18
C0F318
C20218
C30610
41FE10
40F810
400030
200020
200020
300040
ENDCHAR
STARTCHAR 24A3
ENCODING 9379
SWIDTH 1000 0
DWIDTH 24 0
BBX 21 24 1 -5
BITMAP
100040
200020
200020
630030
430010
430010
C30010
C33C18
C37E18
C38618
C30318
C30318
C30318
C30318
C30318
C30318
C30318
430310
430310
430310
400030
200020
200020
100040
ENDCHAR
STARTCHAR 24A4
ENCODING 9380
SWIDTH 1000 0
DWIDTH 24 0
BBX 21 24 1 -5
BITMAP
100040
200020
200020
600030
403010
403010
C00010
C00018
C03018
C03018
C03018
C03018
C03018
C03018
C03018
C03018
C03018
403010
403010
403010
600030
200020
200020
100040
ENDCHAR
STARTCHAR 24A5
ENCODING 9381
SWIDTH 1000 0
DWIDTH 24 0
BBX 21 24 1 -5
BITMAP
100040
200020
203020
603030
400010
400010
C03010
C03018
C03018
C03018
C03018
C03018
C03018
C03018
C03018
C03018
C03018
403010
403010
403010
403030
20E020
200020
100040
ENDCHAR
STARTCHAR 24A6
ENCODING 9382
SWIDTH 1000 0
DWIDTH 24 0
BBX 21 24 1 -4
BITMAP
100040
200020
200020
400030
430010
430010
C30010
C30018
C30018
C30618
C30C18
C31818
C33018
C36018
C3F018
C39018
C31818
C30C10
430410
430610
430330
200020
200020
100040
ENDCHAR
STARTCHAR 24A7
ENCODING 9383
SWIDTH 1000 0
DWIDTH 24 0
BBX 22 24 1 -5
BITMAP
100020
200020
200010
603010
403018
403018
C03008
C03008
C03008
C0300C
C0300C
C0300C
C0300C
C0300C
C0300C
C03008
C03008
403008
403018
403018
600010
200010
200020
100020
ENDCHAR
STARTCHAR 24A8
ENCODING 9384
SWIDTH 1000 0
DWIDTH 24 0
BBX 21 24 1 -4
BITMAP
300020
200020
200030
400030
400010
400010
DBEFD8
DC68D8
D83078
D83078
D83078
D83078
D83078
D83078
D83078
D83078
D83078
583078
400010
400010
600030
200020
200020
100060
ENDCHAR
STARTCHAR 24A9
ENCODING 9385
SWIDTH 1000 0
DWIDTH 24 0
BBX 21 24 1 -4
BITMAP
100040
200020
200020
400030
400010
400010
C37C10
C38E18
C30618
C30618
C30618
C30618
C30618
C30618
C30618
C30618
C30618
430610
400010
400010
400030
200020
200020
100040
ENDCHAR
STARTCHAR 24AA
ENCODING 9386
SWIDTH 1000 0
DWIDTH 24 0
BBX 21 24 1 -4
BITMAP
100040
200020
200020
600030
400010
400010
C0FC10
C18E18
C30618
C20318
C60318
C60318
C60318
C60318
C20318
C30618
C18E18
40FC10
400010
400010
400030
200020
200020
100040
ENDCHAR
STARTCHAR 24AB
ENCODING 9387
SWIDTH 1000 0
DWIDTH 24 0
BBX 21 24 1 -5
BITMAP
100040
200020
200020
600030
437810
43FC10
C38610
C30318
C30318
C30318
C30318
C30318
C30318
C30318
C38618
C3FE18
C37818
430010
430010
430010
600030
200020
200020
100040
ENDCHAR
STARTCHAR 24AC
ENCODING 9388
SWIDTH 1000 0
DWIDTH 24 0
BBX 21 24 1 -5
BITMAP
100040
200020
200020
400030
40F310
41FB10
C30710
C60718
C60318
C60318
C60318
C60318
C60318
C60718
C30718
C1FB18
C0F318
C00310
400310
400310
400030
200020
200020
100040
ENDCHAR
STARTCHAR 24AD
ENCODING 9389
SWIDTH 1000 0
DWIDTH 24 0
BBX 21 24 1 -4
BITMAP
100040
200020
200020
600030
400010
400010
C00010
C0CC18
C0D818
C0E018
C0C018
C0C018
C0C018
C0C018
C0C018
C0C018
C0C018
40C010
40C010
400010
400030
200020
200020
100040
ENDCHAR
STARTCHAR 24AE
ENCODING 9390
SWIDTH 1000 0
DWIDTH 24 0
BBX 21 24 1 -4
BITMAP
100040
200020
200020
600030
400010
400010
C0FC10
C18C18
C10618
C10618
C18018
C0F018
C01C18
C00618
C30618
C30618
C18E18
40FC10
400010
400010
600030
200020
200020
100040
ENDCHAR
STARTCHAR 24AF
ENCODING 9391
SWIDTH 1000 0
DWIDTH 24 0
BBX 21 24 1 -5
BITMAP
200040
200020
200020
400030
406010
406010
C06010
C1F818
C1F818
C06018
C06018
C06018
C06018
C06018
C06018
C06018
C06018
C06010
403810
400810
400030
200020
200020
300040
ENDCHAR
STARTCHAR 24B0
ENCODING 9392
SWIDTH 1000 0
DWIDTH 24 0
BBX 21 24 1 -4
BITMAP
300040
200020
200020
400030
400010
400010
C30610
C30618
C30618
C30618
C30618
C30618
C30618
C30618
C30618
C30618
C30E18
C1FE10
40F010
400010
400030
200020
200020
100040
ENDCHAR
STARTCHAR 24B1
ENCODING 9393
SWIDTH 1000 0
DWIDTH 24 0
BBX 21 24 1 -4
BITMAP
100040
200020
200020
600030
400010
400010
C00010
C30618
C30618
C10418
C10418
C18C18
C08818
C08818
C0D818
C05018
C05018
407010
402010
400010
400030
200020
200020
100040
ENDCHAR
STARTCHAR 24B2
ENCODING 9394
SWIDTH 1000 0
DWIDTH 24 0
BBX 21 24 1 -4
BITMAP
100040
200060
200020
600030
400030
400010
400010
D820D8
D870D8
C85098
C85098
CC5198
C4D918
C48918
C48918
C68B18
C30618
C30610
430610
400010
400030
200020
200020
100040
ENDCHAR
STARTCHAR 24B3
ENCODING 9395
SWIDTH 1000 0
DWIDTH 24 0
BBX 21 24 1 -4
BITMAP
100040
200020
200020
600030
400010
400010
C30610
C10C18
C08818
C0D818
C05018
C02018
C07018
C05018
C08818
C18C18
C10418
420210
400010
400010
400030
200020
200020
100040
ENDCHAR
STARTCHAR 24B4
ENCODING 9396
SWIDTH 1000 0
DWIDTH 24 0
BBX 21 24 1 -4
BITMAP
100040
200020
200020
600030
400010
430210
C10210
C10618
C18418
C08418
C08C18
C0C818
C04818
C05818
C03018
C03018
C03018
402010
402010
41E010
41C030
200020
200020
100040
ENDCHAR
STARTCHAR 24B5
ENCODING 9397
SWIDTH 1000 0
DWIDTH 24 0
BBX 21 24 1 -4
BITMAP
100040
200020
200020
400030
400010
400010
C1FE10
C1FE18
C00418
C00C18
C01818
C03018
C06018
C06018
C0C018
C18018
C38018
C3FE10
43FE10
400010
400030
200020
200020
100040
ENDCHAR
STARTCHAR 24B6
ENCODING 9398
SWIDTH 1000 0
DWIDTH 24 0
BBX 21 22 1 -4
BITMAP
01FC00
07FF00
0C0180
1820C0
307060
605030
405010
40D810
808808
808808
810408
810408
83FE08
820208
420210
460310
640130
300060
1800C0
0C0180
07FF00
01FC00
ENDCHAR
STARTCHAR 24B7
ENCODING 9399
SWIDTH 1000 0
DWIDTH 24 0
BBX 21 22 1 -4
BITMAP
01FC00
07FF00
0C0180
1FFCC0
37FE60
660330
460310
460310
860308
87FE08
87FE08
860308
860108
860188
460190
460110
660330
37FE60
1FF0C0
0C0180
07FF00
01FC00
ENDCHAR
STARTCHAR 24B8
ENCODING 9400
SWIDTH 1000 0
DWIDTH 24 0
BBX 21 22 1 -4
BITMAP
01FC00
07FF00
0C0180
18F8C0
31FC60
630630
460310
460110
840008
8C0008
8C0008
8C0008
8C0008
840108
460310
460210
638630
31FC60
1820C0
0C0180
07FF00
01FC00
ENDCHAR
STARTCHAR 24B9
ENCODING 9401
SWIDTH 1000 0
DWIDTH 24 0
BBX 21 22 1 -4
BITMAP
01FC00
07FF00
0C0180
1BE0C0
33FC60
630730
430310
430190
830188
830188
830188
830188
830188
830188
430190
430310
630730
33FC60
1BE0C0
0C0180
07FF00
01FC00
ENDCHAR
STARTCHAR 24BA
ENCODING 9402
SWIDTH 1000 0
DWIDTH 24 0
BBX 21 22 1 -4
BITMAP
01FC00
07FF00
0C0180
1BFEC0
33FE60
630030
430010
430010
830008
830008
83FE08
83FE08
830008
830008
430010
430010
630030
33FE60
1BFEC0
0C0180
07FF00
01FC00
ENDCHAR
STARTCHAR 24BB
ENCODING 9403
SWIDTH 1000 0
DWIDTH 24 0
BBX 21 22 1 -4
BITMAP
01FC00
07FF00
0C0180
1BFEC0
33FE60
630030
430010
430010
830008
830008
83FC08
83FC08
830008
830008
430010
430010
630030
330060
1800C0
0C0180
07FF00
01FC00
ENDCHAR
STARTCHAR 24BC
ENCODING 9404
SWIDTH 1000 0
DWIDTH 24 0
BBX 21 22 1 -4
BITMAP
01FC00
07FF00
0C0180
18F8C0
33FC60
670630
460210
4C0310
8C0008
8C0008
8C1F08
8C1F08
8C0108
8C0108
440310
460310
630530
31FD60
1800C0
0C0180
07FF00
01FC00
ENDCHAR
STARTCHAR 24BD
ENCODING 9405
SWIDTH 1000 0
DWIDTH 24 0
BBX 21 22 1 -4
BITMAP
01FC00
07FF00
0C0180
1E03C0
360360
660330
460310
460310
860308
87FF08
87FF08
860308
860308
860308
460310
460310
660330
360360
1800C0
0C0180
07FF00
01FC00
ENDCHAR
STARTCHAR 24BE
ENCODING 9406
SWIDTH 1000 0
DWIDTH 24 0
BBX 21 22 1 -4
BITMAP
01FC00
07FF00
0C0180
1830C0
303060
603030
403010
403010
803008
803008
803008
803008
803008
803008
403010
403010
603030
303060
1800C0
0C0180
07FF00
01FC00
ENDCHAR
STARTCHAR 24BF
ENCODING 9407
SWIDTH 1000 0
DWIDTH 24 0
BBX 21 24 1 -4
BITMAP
002000
03FE00
070700
1C0180
100040
200C20
600C30
400C10
400C10
800C08
800C08
800C08
800C08
800C08
800C08
830C18
430C10
430C10
219820
31F860
1800C0
0E0380
07FF00
00F800
ENDCHAR
STARTCHAR 24C0
ENCODING 9408
SWIDTH 1000 0
DWIDTH 24 0
BBX 21 22 1 -4
BITMAP
01FC00
07FF00
0C0180
1E02C0
360660
660C30
461810
463010
866008
86E008
87A008
873008
861008
860808
460C10
460410
660230
360360
1800C0
0C0180
07FF00
01FC00
ENDCHAR
STARTCHAR 24C1
ENCODING 9409
SWIDTH 1000 0
DWIDTH 24 0
BBX 21 22 1 -4
BITMAP
01FC00
07FF00
0C0180
1800C0
330060
630030
430010
430010
830008
830008
830008
830008
830008
830008
430010
430010
630030
33FE60
1800C0
0C0180
07FF00
01FC00
ENDCHAR
STARTCHAR 24C2
ENCODING 9410
SWIDTH 1000 0
DWIDTH 24 0
BBX 21 22 1 -4
BITMAP
01FC00
07FF00
0C0180
1C01C0
3E01E0
6E03F0
4E03D0
4F02D0
8D06C8
8D04C8
8C84C8
8C8CC8
8CC8C8
8C48C8
4C58D0
4C70D0
6C30F0
3C30E0
1800C0
0C0180
07FF00
01FC00
ENDCHAR
STARTCHAR 24C3
ENCODING 9411
SWIDTH 1000 0
DWIDTH 24 0
BBX 21 22 1 -4
BITMAP
01FC00
07FF00
0C0180
1E03C0
370360
670330
478310
468310
864308
866308
862308
863308
861308
860B08
460F10
460710
660730
360360
1800C0
0C0180
07FF00
01FC00
ENDCHAR
STARTCHAR 24C4
ENCODING 9412
SWIDTH 1000 0
DWIDTH 24 0
BBX 21 22 1 -4
BITMAP
01FC00
07FF00
0C0180
18F8C0
33FE60
670630
460310
4C0190
8C0188
8C0188
8C0188
8C0188
8C0188
8C0188
440310
460310
630630
31FC60
1820C0
0C0180
07FF00
01FC00
ENDCHAR
STARTCHAR 24C5
ENCODING 9413
SWIDTH 1000 0
DWIDTH 24 0
BBX 21 22 1 -4
BITMAP
01FC00
07FF00
0C0180
1BF0C0
33FE60
630330
430110
430190
830188
830308
83FF08
83FE08
830008
830008
430010
430010
630030
330060
1800C0
0C0180
07FF00
01FC00
ENDCHAR
STARTCHAR 24C6
ENCODING 9414
SWIDTH 1000 0
DWIDTH 24 0
BBX 21 22 1 -4
BITMAP
01FC00
07FF00
0C0180
18F8C0
33FE60
670730
460310
4C0190
8C0188
8C0188
8C0188
8C0188
8C0188
8C0188
440B10
460F10
630630
31FB60
1801C0
0C0180
07FF00
01FC00
ENDCHAR
STARTCHAR 24C7
ENCODING 9415
SWIDTH 1000 0
DWIDTH 24 0
BBX 21 22 1 -4
BITMAP
01FC00
07FF00
0C0180
1FFCC0
37FE60
660330
460310
460310
860308
860608
87FC08
87FE08
860208
860308
460310
460310
660330
360160
1800C0
0C0180
07FF00
01FC00
ENDCHAR
STARTCHAR 24C8
ENCODING 9416
SWIDTH 1000 0
DWIDTH 24 0
BBX 21 22 1 -4
BITMAP
01FC00
07FF00
0C0180
18F8C0
33FC60
630630
460210
460310
820008
838008
80F008
800E08
800308
860308
460310
460310
630630
31FC60
1800C0
0C0180
07FF00
01FC00
ENDCHAR
STARTCHAR 24C9
ENCODING 9417
SWIDTH 1000 0
DWIDTH 24 0
BBX 21 22 1 -4
BITMAP
01FC00
07FF00
0C0180
1800C0
33FF60
63FF30
403010
403010
803008
803008
803008
803008
803008
803008
403010
403010
603030
303060
1800C0
0C0180
07FF00
01FC00
ENDCHAR
STARTCHAR 24CA
ENCODING 9418
SWIDTH 1000 0
DWIDTH 24 0
BBX 21 23 1 -4
BITMAP
01F800
07FF00
0C0180
1800C0
300060
260320
460310
460310
860308
860308
860308
860308
860308
860308
860308
460310
420310
230620
31FE60
18F8C0
0C0180
07FF00
01FC00
ENDCHAR
STARTCHAR 24CB
ENCODING 9419
SWIDTH 1000 0
DWIDTH 24 0
BBX 21 22 1 -4
BITMAP
01FC00
07FF00
0C0180
1800C0
300060
660330
420310
420210
830608
810408
810408
818C08
808808
808808
40D810
405010
605030
307060
1820C0
0C0180
07FF00
01FC00
ENDCHAR
STARTCHAR 24CC
ENCODING 9420
SWIDTH 1000 0
DWIDTH 24 0
BBX 21 24 1 -4
BITMAP
002000
03FE00
070700
1C0180
100040
200020
707070
507050
5850D0
8850C8
885888
88C888
8C8888
848988
848908
858518
450510
470710
230620
330660
1800C0
0E0380
07FF00
00F800
ENDCHAR
STARTCHAR 24CD
ENCODING 9421
SWIDTH 1000 0
DWIDTH 24 0
BBX 21 22 1 -4
BITMAP
01FC00
07FF00
0C0180
1A02C0
330660
610430
418C10
40D810
805008
807008
802008
805008
80D808
808808
418C10
410410
620230
360360
1800C0
0C0180
07FF00
01FC00
ENDCHAR
STARTCHAR 24CE
ENCODING 9422
SWIDTH 1000 0
DWIDTH 24 0
BBX 21 23 1 -4
BITMAP
01F800
07FF00
0C0180
1800C0
300060
260120
420310
430210
810608
818408
80CC08
805808
807008
803008
803008
403010
403010
203020
303060
1830C0
0C0180
07FF00
01FC00
ENDCHAR
STARTCHAR 24CF
ENCODING 9423
SWIDTH 1000 0
DWIDTH 24 0
BBX 21 22 1 -4
BITMAP
01FC00
07FF00
0C0180
1BFFC0
33FF60
600230
400610
400C10
800808
801008
803008
802008
804008
808008
408010
410010
620030
33FF60
1BFFC0
0C0180
07FF00
01FC00
ENDCHAR
STARTCHAR 24D0
ENCODING 9424
SWIDTH 1000 0
DWIDTH 24 0
BBX 21 22 1 -4
BITMAP
01FC00
07FF00
0C0180
1800C0
300060
60FC30
418610
430610
830608
800E08
80FE08
818608
830608
830608
430A10
41FB10
604030
300060
1800C0
0C0180
07FF00
01FC00
ENDCHAR
STARTCHAR 24D1
ENCODING 9425
SWIDTH 1000 0
DWIDTH 24 0
BBX 21 24 1 -4
BITMAP
002000
03FE00
070700
1801C0
100040
230020
630030
430010
C33810
837E08
838608
838308
830308
830308
830308
C30318
430310
638230
23C620
137C40
1811C0
060700
03FE00
002000
ENDCHAR
STARTCHAR 24D2
ENCODING 9426
SWIDTH 1000 0
DWIDTH 24 0
BBX 21 22 1 -4
BITMAP
01FC00
07FF00
0C0180
1800C0
300060
60F830
418C10
410610
830208
830008
830008
830008
830008
830208
418410
41FC10
607830
300060
1800C0
0C0180
07FF00
01FC00
ENDCHAR
STARTCHAR 24D3
ENCODING 9427
SWIDTH 1000 0
DWIDTH 24 0
BBX 21 23 1 -4
BITMAP
01F800
07FF00
0C0180
1800C0
300660
200620
400610
40E610
83FE08
830E08
860608
860608
860608
860608
860608
460610
420610
230E20
31F660
1800C0
0C0180
07FF00
01FC00
ENDCHAR
STARTCHAR 24D4
ENCODING 9428
SWIDTH 1000 0
DWIDTH 24 0
BBX 21 22 1 -4
BITMAP
01FC00
07FF00
0C0180
1800C0
300060
61F830
438C10
430410
820408
87FE08
87FE08
860008
820608
830408
438C10
41F810
600030
300060
1800C0
0C0180
07FF00
01FC00
ENDCHAR
STARTCHAR 24D5
ENCODING 9429
SWIDTH 1000 0
DWIDTH 24 0
BBX 21 22 1 -4
BITMAP
01FC00
07FF00
0C0180
1838C0
303860
606030
406010
40F810
80F808
806008
806008
806008
806008
806008
406010
406010
606030
306060
1800C0
0C0180
07FF00
01FC00
ENDCHAR
STARTCHAR 24D6
ENCODING 9430
SWIDTH 1000 0
DWIDTH 24 0
BBX 21 22 1 -4
BITMAP
01FC00
07FF00
0C0180
1800C0
31FE60
638E30
430610
420610
860608
860608
860608
830608
830E08
81FE08
400610
420610
630C30
31FC60
1800C0
0C0180
07FF00
01FC00
ENDCHAR
STARTCHAR 24D7
ENCODING 9431
SWIDTH 1000 0
DWIDTH 24 0
BBX 21 24 1 -4
BITMAP
002000
03FE00
070700
1801C0
100040
230020
630030
430010
C33810
837C08
838608
830608
830608
830608
830608
C30618
430610
630630
230620
130640
1801C0
060700
03FE00
002000
ENDCHAR
STARTCHAR 24D8
ENCODING 9432
SWIDTH 1000 0
DWIDTH 24 0
BBX 21 22 1 -4
BITMAP
01FC00
07FF00
0C0180
1830C0
303060
600030
400010
400010
803008
803008
803008
803008
803008
803008
403010
403010
603030
303060
1830C0
0C0180
07FF00
01FC00
ENDCHAR
STARTCHAR 24D9
ENCODING 9433
SWIDTH 1000 0
DWIDTH 24 0
BBX 21 23 1 -3
BITMAP
01F800
07FF00
0C0180
1830C0
303060
200020
400010
403010
803018
803008
803008
803008
803008
803008
803008
403010
403010
203020
203020
107040
086180
060300
01FC00
ENDCHAR
STARTCHAR 24DA
ENCODING 9434
SWIDTH 1000 0
DWIDTH 24 0
BBX 21 22 1 -4
BITMAP
01FC00
07FF00
0C0180
1980C0
318060
618030
418010
418610
818C08
819808
81B008
81F008
81D008
819808
418C10
418410
618630
318260
1800C0
0C0180
07FF00
01FC00
ENDCHAR
STARTCHAR 24DB
ENCODING 9435
SWIDTH 1000 0
DWIDTH 24 0
BBX 21 22 1 -4
BITMAP
01FC00
07FF00
0C0180
1830C0
303060
603030
403010
403010
803008
803008
803008
803008
803008
803008
403010
403010
603030
303060
1800C0
0C0180
07FF00
01FC00
ENDCHAR
STARTCHAR 24DC
ENCODING 9436
SWIDTH 1000 0
DWIDTH 24 0
BBX 21 22 1 -4
BITMAP
01FC00
07FF00
0C0180
1800C0
300060
7BEFB0
5C68D0
5830D0
9830C8
9830C8
9830C8
9830C8
9830C8
9830C8
5830D0
5830D0
600030
300060
1800C0
0C0180
07FF00
01FC00
ENDCHAR
STARTCHAR 24DD
ENCODING 9437
SWIDTH 1000 0
DWIDTH 24 0
BBX 21 22 1 -4
BITMAP
01FC00
07FF00
0C0180
1800C0
300060
637C30
438E10
438610
830608
830608
830608
830608
830608
830608
430610
430610
600030
300060
1800C0
0C0180
07FF00
01FC00
ENDCHAR
STARTCHAR 24DE
ENCODING 9438
SWIDTH 1000 0
DWIDTH 24 0
BBX 21 22 1 -4
BITMAP
01FC00
07FF00
0C0180
1800C0
302060
61F830
418C10
430610
820208
860308
860308
860308
820208
830608
430610
41FC10
60F830
300060
1800C0
0C0180
07FF00
01FC00
ENDCHAR
STARTCHAR 24DF
ENCODING 9439
SWIDTH 1000 0
DWIDTH 24 0
BBX 21 22 1 -4
BITMAP
01FC00
07FF00
0C0180
1800C0
337C60
638630
430210
430310
830308
830308
830308
830308
830308
838608
437C10
430010
630030
330060
1B00C0
0C0180
07FF00
01FC00
ENDCHAR
STARTCHAR 24E0
ENCODING 9440
SWIDTH 1000 0
DWIDTH 24 0
BBX 21 22 1 -4
BITMAP
01FC00
07FF00
0C0180
1800C0
31F660
630E30
460610
460610
860608
860608
860608
860608
860608
830E08
41F610
400610
600630
300660
1806C0
0C0180
07FF00
01FC00
ENDCHAR
STARTCHAR 24E1
ENCODING 9441
SWIDTH 1000 0
DWIDTH 24 0
BBX 21 22 1 -4
BITMAP
01FC00
07FF00
0C0180
1800C0
300060
600030
40C810
40D810
80E008
80C008
80C008
80C008
80C008
80C008
40C010
40C010
60C030
300060
1800C0
0C0180
07FF00
01FC00
ENDCHAR
STARTCHAR 24E2
ENCODING 9442
SWIDTH 1000 0
DWIDTH 24 0
BBX 21 22 1 -4
BITMAP
01FC00
07FF00
0C0180
1800C0
302060
61F830
418C10
430610
810008
818008
807808
800408
830608
830608
418610
41FC10
602030
300060
1800C0
0C0180
07FF00
01FC00
ENDCHAR
STARTCHAR 24E3
ENCODING 9443
SWIDTH 1000 0
DWIDTH 24 0
BBX 21 24 1 -4
BITMAP
002000
03FE00
070700
1C0180
100040
204020
604030
404010
40F810
80F808
804008
804008
804008
804008
804008
804008
404010
404010
207820
203820
100040
080180
060300
01FC00
ENDCHAR
STARTCHAR 24E4
ENCODING 9444
SWIDTH 1000 0
DWIDTH 24 0
BBX 21 22 1 -4
BITMAP
01FC00
07FF00
0C0180
1800C0
300060
630630
430610
430610
830608
830608
830608
830608
830608
830608
430E10
41FE10
60F030
300060
1800C0
0C0180
07FF00
01FC00
ENDCHAR
STARTCHAR 24E5
ENCODING 9445
SWIDTH 1000 0
DWIDTH 24 0
BBX 21 22 1 -4
BITMAP
01FC00
07FF00
0C0180
1800C0
300060
600030
400010
430610
810408
810C08
818808
808808
809808
805008
405010
407010
602030
300060
1800C0
0C0180
07FF00
01FC00
ENDCHAR
STARTCHAR 24E6
ENCODING 9446
SWIDTH 1000 0
DWIDTH 24 0
BBX 21 24 1 -4
BITMAP
002000
03FE00
070700
1C0180
100040
200020
600030
4820D0
483090
8C5088
845188
845108
844908
868908
828B08
828A18
438610
410610
200020
300060
1800C0
0E0380
07FF00
00F800
ENDCHAR
STARTCHAR 24E7
ENCODING 9447
SWIDTH 1000 0
DWIDTH 24 0
BBX 21 22 1 -4
BITMAP
01FC00
07FF00
0C0180
1800C0
300060
610430
418C10
408810
805008
807008
802008
805008
80D808
808808
410410
430610
600030
300060
1800C0
0C0180
07FF00
01FC00
ENDCHAR
STARTCHAR 24E8
ENCODING 9448
SWIDTH 1000 0
DWIDTH 24 0
BBX 21 22 1 -4
BITMAP
01FC00
07FF00
0C0180
1800C0
300060
630230
410410
410410
808408
808808
808808
805808
805008
803008
403010
402010
602030
31E060
19C0C0
0C0180
07FF00
01FC00
ENDCHAR
STARTCHAR 24E9
ENCODING 9449
SWIDTH 1000 0
DWIDTH 24 0
BBX 21 22 1 -4
BITMAP
01FC00
07FF00
0C0180
1800C0
300060
61FE30
41FE10
400410
800808
801808
803008
802008
804008
808008
418010
41FE10
61FE30
300060
1800C0
0C0180
07FF00
01FC00
ENDCHAR
STARTCHAR 2500
ENCODING 9472
SWIDTH 1000 0
DWIDTH 24 0
BBX 24 1 0 7
BITMAP
FFFFFF
ENDCHAR
STARTCHAR 2501
ENCODING 9473
SWIDTH 1000 0
DWIDTH 24 0
BBX 24 1 0 6
BITMAP
FFFFFF
ENDCHAR
STARTCHAR 2502
ENCODING 9474
SWIDTH 1000 0
DWIDTH 24 0
BBX 1 24 11 -5
BITMAP
80
80
80
80
80
80
80
80
80
80
80
80
80
80
80
80
80
80
80
80
80
80
80
80
ENDCHAR
STARTCHAR 2503
ENCODING 9475
SWIDTH 1000 0
DWIDTH 24 0
BBX 1 24 11 -5
BITMAP
80
80
80
80
80
80
80
80
80
80
80
80
80
80
80
80
80
80
80
80
80
80
80
80
ENDCHAR
STARTCHAR 250C
ENCODING 9484
SWIDTH 1000 0
DWIDTH 24 0
BBX 13 13 11 -5
BITMAP
FFF8
8000
8000
8000
8000
8000
8000
8000
8000
8000
8000
8000
8000
ENDCHAR
STARTCHAR 250D
ENCODING 9485
SWIDTH 1000 0
DWIDTH 24 0
BBX 13 13 11 -5
BITMAP
FFF8
FFF8
8000
8000
8000
8000
8000
8000
8000
8000
8000
8000
8000
ENDCHAR
STARTCHAR 250E
ENCODING 9486
SWIDTH 1000 0
DWIDTH 24 0
BBX 13 13 11 -5
BITMAP
FFF8
C000
C000
C000
C000
C000
C000
C000
C000
C000
C000
C000
C000
ENDCHAR
STARTCHAR 250F
ENCODING 9487
SWIDTH 1000 0
DWIDTH 24 0
BBX 13 12 11 -5
BITMAP
FFF8
8000
8000
8000
8000
8000
8000
8000
8000
8000
8000
8000
ENDCHAR
STARTCHAR 2510
ENCODING 9488
SWIDTH 1000 0
DWIDTH 24 0
BBX 13 13 0 -5
BITMAP
FFF8
0008
0008
0008
0008
0008
0008
0008
0008
0008
0008
0008
0008
ENDCHAR
STARTCHAR 2511
ENCODING 9489
SWIDTH 1000 0
DWIDTH 24 0
BBX 13 13 0 -5
BITMAP
FFF8
FFF8
0008
0008
0008
0008
0008
0008
0008
0008
0008
0008
0008
ENDCHAR
STARTCHAR 2512
ENCODING 9490
SWIDTH 1000 0
DWIDTH 24 0
BBX 13 13 0 -5
BITMAP
FFF8
0018
0018
0018
0018
0018
0018
0018
0018
0018
0018
0018
0018
ENDCHAR
STARTCHAR 2513
ENCODING 9491
SWIDTH 1000 0
DWIDTH 24 0
BBX 12 12 0 -5
BITMAP
FFF0
0010
0010
0010
0010
0010
0010
0010
0010
0010
0010
0010
ENDCHAR
STARTCHAR 2514
ENCODING 9492
SWIDTH 1000 0
DWIDTH 24 0
BBX 13 12 11 8
BITMAP
8000
8000
8000
8000
8000
8000
8000
8000
8000
8000
8000
FFF8
ENDCHAR
STARTCHAR 2515
ENCODING 9493
SWIDTH 1000 0
DWIDTH 24 0
BBX 13 13 11 7
BITMAP
8000
8000
8000
8000
8000
8000
8000
8000
8000
8000
8000
FFF8
FFF8
ENDCHAR
STARTCHAR 2516
ENCODING 9494
SWIDTH 1000 0
DWIDTH 24 0
BBX 13 12 11 8
BITMAP
C000
C000
C000
C000
C000
C000
C000
C000
C000
C000
C000
FFF8
ENDCHAR
STARTCHAR 2517
ENCODING 9495
SWIDTH 1000 0
DWIDTH 24 0
BBX 13 12 11 7
BITMAP
8000
8000
8000
8000
8000
8000
8000
8000
8000
8000
8000
FFF8
ENDCHAR
STARTCHAR 2518
ENCODING 9496
SWIDTH 1000 0
DWIDTH 24 0
BBX 13 12 0 8
BITMAP
0008
0008
0008
0008
0008
0008
0008
0008
0008
0008
0008
FFF8
ENDCHAR
STARTCHAR 2519
ENCODING 9497
SWIDTH 1000 0
DWIDTH 24 0
BBX 13 13 0 7
BITMAP
0008
0008
0008
0008
0008
0008
0008
0008
0008
0008
0008
FFF8
FFF8
ENDCHAR
STARTCHAR 251A
ENCODING 9498
SWIDTH 1000 0
DWIDTH 24 0
BBX 13 12 0 8
BITMAP
0018
0018
0018
0018
0018
0018
0018
0018
0018
0018
0018
FFF8
ENDCHAR
STARTCHAR 251B
ENCODING 9499
SWIDTH 1000 0
DWIDTH 24 0
BBX 12 12 0 7
BITMAP
0010
0010
0010
0010
0010
0010
0010
0010
0010
0010
0010
FFF0
ENDCHAR
STARTCHAR 251C
ENCODING 9500
SWIDTH 1000 0
DWIDTH 24 0
BBX 13 24 11 -5
BITMAP
8000
8000
8000
8000
8000
8000
8000
8000
8000
8000
8000
FFF8
8000
8000
8000
8000
8000
8000
8000
8000
8000
8000
8000
8000
ENDCHAR
STARTCHAR 251D
ENCODING 9501
SWIDTH 1000 0
DWIDTH 24 0
BBX 13 24 11 -5
BITMAP
8000
8000
8000
8000
8000
8000
8000
8000
8000
8000
8000
FFF8
FFF8
8000
8000
8000
8000
8000
8000
8000
8000
8000
8000
8000
ENDCHAR
STARTCHAR 251E
ENCODING 9502
SWIDTH 1000 0
DWIDTH 24 0
BBX 13 24 11 -4
BITMAP
C000
C000
C000
C000
C000
C000
C000
C000
C000
C000
C000
FFF8
8000
8000
8000
8000
8000
8000
8000
8000
8000
8000
8000
8000
ENDCHAR
STARTCHAR 251F
ENCODING 9503
SWIDTH 1000 0
DWIDTH 24 0
BBX 13 24 11 -5
BITMAP
8000
8000
8000
8000
8000
8000
8000
8000
8000
8000
8000
FFF8
C000
C000
C000
C000
C000
C000
C000
C000
C000
C000
C000
C000
ENDCHAR
STARTCHAR 2520
ENCODING 9504
SWIDTH 1000 0
DWIDTH 24 0
BBX 13 24 11 -5
BITMAP
C000
C000
C000
C000
C000
C000
C000
C000
C000
C000
C000
FFF8
C000
C000
C000
C000
C000
C000
C000
C000
C000
C000
C000
C000
ENDCHAR
STARTCHAR 2521
ENCODING 9505
SWIDTH 1000 0
DWIDTH 24 0
BBX 13 24 11 -4
BITMAP
C000
C000
C000
C000
C000
C000
C000
C000
C000
C000
C000
FFF8
FFF8
8000
8000
8000
8000
8000
8000
8000
8000
8000
8000
8000
ENDCHAR
STARTCHAR 2522
ENCODING 9506
SWIDTH 1000 0
DWIDTH 24 0
BBX 13 24 11 -5
BITMAP
8000
8000
8000
8000
8000
8000
8000
8000
8000
8000
8000
FFF8
FFF8
C000
C000
C000
C000
C000
C000
C000
C000
C000
C000
C000
ENDCHAR
STARTCHAR 2523
ENCODING 9507
SWIDTH 1000 0
DWIDTH 24 0
BBX 13 24 11 -5
BITMAP
8000
8000
8000
8000
8000
8000
8000
8000
8000
8000
8000
FFF8
8000
8000
8000
8000
8000
8000
8000
8000
8000
8000
8000
8000
ENDCHAR
STARTCHAR 2524
ENCODING 9508
SWIDTH 1000 0
DWIDTH 24 0
BBX 13 24 0 -5
BITMAP
0008
0008
0008
0008
0008
0008
0008
0008
0008
0008
0008
FFF8
0008
0008
0008
0008
0008
0008
0008
0008
0008
0008
0008
0008
ENDCHAR
STARTCHAR 2525
ENCODING 9509
SWIDTH 1000 0
DWIDTH 24 0
BBX 13 24 0 -5
BITMAP
0008
0008
0008
0008
0008
0008
0008
0008
0008
0008
0008
FFF8
FFF8
0008
0008
0008
0008
0008
0008
0008
0008
0008
0008
0008
ENDCHAR
STARTCHAR 2526
ENCODING 9510
SWIDTH 1000 0
DWIDTH 24 0
BBX 13 24 0 -5
BITMAP
0018
0018
0018
0018
0018
0018
0018
0018
0018
0018
0018
FFF8
0010
0010
0010
0010
0010
0010
0010
0010
0010
0010
0010
0010
ENDCHAR
STARTCHAR 2527
ENCODING 9511
SWIDTH 1000 0
DWIDTH 24 0
BBX 13 24 0 -4
BITMAP
0010
0010
0010
0010
0010
0010
0010
0010
0010
0010
0010
FFF0
0018
0018
0018
0018
0018
0018
0018
0018
0018
0018
0018
0018
ENDCHAR
STARTCHAR 2528
ENCODING 9512
SWIDTH 1000 0
DWIDTH 24 0
BBX 13 24 0 -5
BITMAP
0018
0018
0018
0018
0018
0018
0018
0018
0018
0018
0018
FFF8
0018
0018
0018
0018
0018
0018
0018
0018
0018
0018
0018
0018
ENDCHAR
STARTCHAR 2529
ENCODING 9513
SWIDTH 1000 0
DWIDTH 24 0
BBX 13 24 0 -5
BITMAP
0018
0018
0018
0018
0018
0018
0018
0018
0018
0018
0018
FFF8
FFF0
0010
0010
0010
0010
0010
0010
0010
0010
0010
0010
0010
ENDCHAR
STARTCHAR 252A
ENCODING 9514
SWIDTH 1000 0
DWIDTH 24 0
BBX 13 24 0 -4
BITMAP
0010
0010
0010
0010
0010
0010
0010
0010
0010
0010
0010
FFF0
FFF8
0018
0018
0018
0018
0018
0018
0018
0018
0018
0018
0018
ENDCHAR
STARTCHAR 252B
ENCODING 9515
SWIDTH 1000 0
DWIDTH 24 0
BBX 12 24 0 -5
BITMAP
0010
0010
0010
0010
0010
0010
0010
0010
0010
0010
0010
FFF0
0010
0010
0010
0010
0010
0010
0010
0010
0010
0010
0010
0010
ENDCHAR
STARTCHAR 252C
ENCODING 9516
SWIDTH 1000 0
DWIDTH 24 0
BBX 24 13 0 -5
BITMAP
FFFFFF
000800
000800
000800
000800
000800
000800
000800
000800
000800
000800
000800
000800
ENDCHAR
STARTCHAR 252D
ENCODING 9517
SWIDTH 1000 0
DWIDTH 24 0
BBX 24 13 0 -5
BITMAP
FFFFFF
FFF800
000800
000800
000800
000800
000800
000800
000800
000800
000800
000800
000800
ENDCHAR
STARTCHAR 252E
ENCODING 9518
SWIDTH 1000 0
DWIDTH 24 0
BBX 24 13 0 -5
BITMAP
FFFFFF
000FFF
000800
000800
000800
000800
000800
000800
000800
000800
000800
000800
000800
ENDCHAR
STARTCHAR 252F
ENCODING 9519
SWIDTH 1000 0
DWIDTH 24 0
BBX 24 13 0 -5
BITMAP
FFFFFF
FFFFFF
000800
000800
000800
000800
000800
000800
000800
000800
000800
000800
000800
ENDCHAR
STARTCHAR 2530
ENCODING 9520
SWIDTH 1000 0
DWIDTH 24 0
BBX 24 13 0 -5
BITMAP
FFFFFF
001800
001800
001800
001800
001800
001800
001800
001800
001800
001800
001800
001800
ENDCHAR
STARTCHAR 2531
ENCODING 9521
SWIDTH 1000 0
DWIDTH 24 0
BBX 24 13 0 -5
BITMAP
FFFFFF
FFF800
001800
001800
001800
001800
001800
001800
001800
001800
001800
001800
001800
ENDCHAR
STARTCHAR 2532
ENCODING 9522
SWIDTH 1000 0
DWIDTH 24 0
BBX 24 13 0 -5
BITMAP
FFFFFF
001FFF
001800
001800
001800
001800
001800
001800
001800
001800
001800
001800
001800
ENDCHAR
STARTCHAR 2533
ENCODING 9523
SWIDTH 1000 0
DWIDTH 24 0
BBX 24 12 0 -5
BITMAP
FFFFFF
001000
001000
001000
001000
001000
001000
001000
001000
001000
001000
001000
ENDCHAR
STARTCHAR 2534
ENCODING 9524
SWIDTH 1000 0
DWIDTH 24 0
BBX 24 12 0 8
BITMAP
000800
000800
000800
000800
000800
000800
000800
000800
000800
000800
000800
FFFFFF
ENDCHAR
STARTCHAR 2535
ENCODING 9525
SWIDTH 1000 0
DWIDTH 24 0
BBX 24 13 0 7
BITMAP
000800
000800
000800
000800
000800
000800
000800
000800
000800
000800
000800
FFFFFF
FFF000
ENDCHAR
STARTCHAR 2536
ENCODING 9526
SWIDTH 1000 0
DWIDTH 24 0
BBX 24 13 0 7
BITMAP
000800
000800
000800
000800
000800
000800
000800
000800
000800
000800
000800
FFFFFF
000FFF
ENDCHAR
STARTCHAR 2537
ENCODING 9527
SWIDTH 1000 0
DWIDTH 24 0
BBX 24 13 0 7
BITMAP
000800
000800
000800
000800
000800
000800
000800
000800
000800
000800
000800
FFFFFF
FFFFFF
ENDCHAR
STARTCHAR 2538
ENCODING 9528
SWIDTH 1000 0
DWIDTH 24 0
BBX 24 12 0 8
BITMAP
001800
001800
001800
001800
001800
001800
001800
001800
001800
001800
001800
FFFFFF
ENDCHAR
STARTCHAR 2539
ENCODING 9529
SWIDTH 1000 0
DWIDTH 24 0
BBX 24 13 0 7
BITMAP
001800
001800
001800
001800
001800
001800
001800
001800
001800
001800
001800
FFFFFF
FFF000
ENDCHAR
STARTCHAR 253A
ENCODING 9530
SWIDTH 1000 0
DWIDTH 24 0
BBX 24 13 0 7
BITMAP
001800
001800
001800
001800
001800
001800
001800
001800
001800
001800
001800
FFFFFF
000FFF
ENDCHAR
STARTCHAR 253B
ENCODING 9531
SWIDTH 1000 0
DWIDTH 24 0
BBX 24 12 0 7
BITMAP
001000
001000
001000
001000
001000
001000
001000
001000
001000
001000
001000
FFFFFF
ENDCHAR
STARTCHAR 253C
ENCODING 9532
SWIDTH 1000 0
DWIDTH 24 0
BBX 24 24 0 -5
BITMAP
000800
000800
000800
000800
000800
000800
000800
000800
000800
000800
000800
FFFFFF
000800
000800
000800
000800
000800
000800
000800
000800
000800
000800
000800
000800
ENDCHAR
STARTCHAR 253D
ENCODING 9533
SWIDTH 1000 0
DWIDTH 24 0
BBX 24 24 0 -5
BITMAP
000800
000800
000800
000800
000800
000800
000800
000800
000800
000800
000800
FFF800
FFFFFF
000800
000800
000800
000800
000800
000800
000800
000800
000800
000800
000800
ENDCHAR
STARTCHAR 253E
ENCODING 9534
SWIDTH 1000 0
DWIDTH 24 0
BBX 24 24 0 -5
BITMAP
000800
000800
000800
000800
000800
000800
000800
000800
000800
000800
000800
FFFFFF
000FFF
000800
000800
000800
000800
000800
000800
000800
000800
000800
000800
000800
ENDCHAR
STARTCHAR 253F
ENCODING 9535
SWIDTH 1000 0
DWIDTH 24 0
BBX 24 24 0 -5
BITMAP
000800
000800
000800
000800
000800
000800
000800
000800
000800
000800
000800
FFFFFF
FFFFFF
000800
000800
000800
000800
000800
000800
000800
000800
000800
000800
000800
ENDCHAR
STARTCHAR 2540
ENCODING 9536
SWIDTH 1000 0
DWIDTH 24 0
BBX 24 24 0 -4
BITMAP
001800
001800
001800
001800
001800
001800
001800
001800
001800
001800
001800
FFFFFF
001000
001000
001000
001000
001000
001000
001000
001000
001000
001000
001000
001000
ENDCHAR
STARTCHAR 2541
ENCODING 9537
SWIDTH 1000 0
DWIDTH 24 0
BBX 24 24 0 -4
BITMAP
001000
001000
001000
001000
001000
001000
001000
001000
001000
001000
001000
FFFFFF
001800
001800
001800
001800
001800
001800
001800
001800
001800
001800
001800
001800
ENDCHAR
STARTCHAR 2542
ENCODING 9538
SWIDTH 1000 0
DWIDTH 24 0
BBX 24 24 0 -5
BITMAP
001800
001800
001800
001800
001800
001800
001800
001800
001800
001800
001800
FFFFFF
001800
001800
001800
001800
001800
001800
001800
001800
001800
001800
001800
001800
ENDCHAR
STARTCHAR 2543
ENCODING 9539
SWIDTH 1000 0
DWIDTH 24 0
BBX 24 24 0 -4
BITMAP
001800
001800
001800
001800
001800
001800
001800
001800
001800
001800
001800
FFFFFF
FFF000
001000
001000
001000
001000
001000
001000
001000
001000
001000
001000
001000
ENDCHAR
STARTCHAR 2544
ENCODING 9540
SWIDTH 1000 0
DWIDTH 24 0
BBX 24 24 0 -4
BITMAP
001800
001800
001800
001800
001800
001800
001800
001800
001800
001800
001800
FFFFFF
001FFF
001000
001000
001000
001000
001000
001000
001000
001000
001000
001000
001000
ENDCHAR
STARTCHAR 2545
ENCODING 9541
SWIDTH 1000 0
DWIDTH 24 0
BBX 24 24 0 -4
BITMAP
001000
001000
001000
001000
001000
001000
001000
001000
001000
001000
001000
FFFFFF
FFF800
001800
001800
001800
001800
001800
001800
001800
001800
001800
001800
001800
ENDCHAR
STARTCHAR 2546
ENCODING 9542
SWIDTH 1000 0
DWIDTH 24 0
BBX 24 24 0 -4
BITMAP
001000
001000
001000
001000
001000
001000
001000
001000
001000
001000
001000
FFFFFF
001FFF
001800
001800
001800
001800
001800
001800
001800
001800
001800
001800
001800
ENDCHAR
STARTCHAR 2547
ENCODING 9543
SWIDTH 1000 0
DWIDTH 24 0
BBX 24 24 0 -4
BITMAP
001800
001800
001800
001800
001800
001800
001800
001800
001800
001800
001800
FFFFFF
FFFFFF
001000
001000
001000
001000
001000
001000
001000
001000
001000
001000
001000
ENDCHAR
STARTCHAR 2548
ENCODING 9544
SWIDTH 1000 0
DWIDTH 24 0
BBX 24 24 0 -4
BITMAP
001000
001000
001000
001000
001000
001000
001000
001000
001000
001000
001000
FFFFFF
FFFFFF
001800
001800
001800
001800
001800
001800
001800
001800
001800
001800
001800
ENDCHAR
STARTCHAR 2549
ENCODING 9545
SWIDTH 1000 0
DWIDTH 24 0
BBX 24 24 0 -5
BITMAP
001800
001800
001800
001800
001800
001800
001800
001800
001800
001800
001800
FFFFFF
FFF800
001800
001800
001800
001800
001800
001800
001800
001800
001800
001800
001800
ENDCHAR
STARTCHAR 254A
ENCODING 9546
SWIDTH 1000 0
DWIDTH 24 0
BBX 24 24 0 -5
BITMAP
001800
001800
001800
001800
001800
001800
001800
001800
001800
001800
001800
FFFFFF
001FFF
001800
001800
001800
001800
001800
001800
001800
001800
001800
001800
001800
ENDCHAR
STARTCHAR 254B
ENCODING 9547
SWIDTH 1000 0
DWIDTH 24 0
BBX 24 24 0 -5
BITMAP
001000
001000
001000
001000
001000
001000
001000
001000
001000
001000
001000
FFFFFF
001000
001000
001000
001000
001000
001000
001000
001000
001000
001000
001000
001000
ENDCHAR
STARTCHAR 2592
ENCODING 9618
SWIDTH 1000 0
DWIDTH 24 0
BBX 18 18 3 -2
BITMAP
FFFFC0
800040
AA9540
800040
AA9540
800040
AA9540
800040
AA9540
800040
800040
AA9540
800040
AA9540
800040
AA9540
800040
FFFFC0
ENDCHAR
STARTCHAR 25A0
ENCODING 9632
SWIDTH 1000 0
DWIDTH 24 0
BBX 16 16 4 0
BITMAP
FFFF
FFFF
FFFF
FFFF
FFFF
FFFF
FFFF
FFFF
FFFF
FFFF
FFFF
FFFF
FFFF
FFFF
FFFF
FFFF
ENDCHAR
STARTCHAR 25A1
ENCODING 9633
SWIDTH 1000 0
DWIDTH 24 0
BBX 16 16 4 -1
BITMAP
FFFF
8001
8001
8001
8001
8001
8001
8001
8001
8001
8001
8001
8001
8001
8001
FFFF
ENDCHAR
STARTCHAR 25A3
ENCODING 9635
SWIDTH 1000 0
DWIDTH 24 0
BBX 18 18 3 -2
BITMAP
FFFFC0
800040
800040
9FFC40
9FFC40
9FFC40
9FFC40
9FFC40
9FFC40
9FFC40
9FFC40
9FFC40
9FFC40
9FFC40
800040
800040
800040
FFFFC0
ENDCHAR
STARTCHAR 25A4
ENCODING 9636
SWIDTH 1000 0
DWIDTH 24 0
BBX 18 18 3 -2
BITMAP
FFFFC0
800040
FFFFC0
800040
800040
FFFFC0
800040
FFFFC0
800040
800040
FFFFC0
800040
FFFFC0
800040
FFFFC0
800040
800040
FFFFC0
ENDCHAR
STARTCHAR 25A5
ENCODING 9637
SWIDTH 1000 0
DWIDTH 24 0
BBX 18 18 3 -2
BITMAP
FFFFC0
A52940
A52940
A52940
A52940
A52940
A52940
A52940
A52940
A52940
A52940
A52940
A52940
A52940
A52940
A52940
A52940
FFFFC0
ENDCHAR
STARTCHAR 25A6
ENCODING 9638
SWIDTH 1000 0
DWIDTH 24 0
BBX 18 18 3 -2
BITMAP
FFFFC0
A52940
FFFFC0
A52940
A52940
FFFFC0
A52940
FFFFC0
A52940
A52940
FFFFC0
A52940
FFFFC0
A52940
FFFFC0
A52940
A52940
FFFFC0
ENDCHAR
STARTCHAR 25A7
ENCODING 9639
SWIDTH 1000 0
DWIDTH 24 0
BBX 18 18 3 -2
BITMAP
FFFFC0
C44440
A22240
911140
8888C0
C44440
A22240
911140
8888C0
C44440
A22240
911140
8888C0
C44440
A22240
911140
8888C0
FFFFC0
ENDCHAR
STARTCHAR 25A8
ENCODING 9640
SWIDTH 1000 0
DWIDTH 24 0
BBX 18 18 3 -2
BITMAP
FFFFC0
8888C0
911140
A22240
C44440
8888C0
911140
A22240
C44440
8888C0
911140
A22240
C44440
8888C0
911140
A22240
C44440
FFFFC0
ENDCHAR
STARTCHAR 25A9
ENCODING 9641
SWIDTH 1000 0
DWIDTH 24 0
BBX 18 18 3 -2
BITMAP
FFFFC0
CCCCC0
B33340
B33340
CCCCC0
CCCCC0
B33340
B33340
CCCCC0
DCCCC0
B33340
F33340
CCCCC0
CCCCC0
B33340
B33340
CCCCC0
FFFFC0
ENDCHAR
STARTCHAR 25B1
ENCODING 9649
SWIDTH 1000 0
DWIDTH 24 0
BBX 16 10 4 2
BITMAP
1FFF
2001
2002
2002
4002
4004
4004
4004
8004
FFF8
ENDCHAR
STARTCHAR 25B2
ENCODING 9650
SWIDTH 1000 0
DWIDTH 24 0
BBX 18 14 3 1
BITMAP
00C000
01C000
01E000
03F000
03F000
07F800
0FFC00
0FFC00
1FFE00
3FFE00
3FFF00
7FFF80
7FFF80
FFFFC0
ENDCHAR
STARTCHAR 25B3
ENCODING 9651
SWIDTH 1000 0
DWIDTH 24 0
BBX 18 14 3 1
BITMAP
00C000
014000
012000
021000
021000
040800
080400
080400
100200
200200
200100
400080
400080
FFFFC0
ENDCHAR
STARTCHAR 25B5
ENCODING 9653
SWIDTH 1000 0
DWIDTH 24 0
BBX 18 14 3 1
BITMAP
00C000
01C000
01E000
033000
033000
061800
0C0C00
0C0C00
180600
300200
300300
600180
7FFF80
FFFFC0
ENDCHAR
STARTCHAR 25B6
ENCODING 9654
SWIDTH 1000 0
DWIDTH 24 0
BBX 14 18 5 -2
BITMAP
8000
E000
F000
FC00
FF00
FF80
FFE0
FFF0
FFFC
FFF8
FFF0
FFC0
FF80
FE00
F800
F000
C000
8000
ENDCHAR
STARTCHAR 25B7
ENCODING 9655
SWIDTH 1000 0
DWIDTH 24 0
BBX 15 18 4 -2
BITMAP
C000
A000
9800
8600
8100
80C0
8020
8018
8006
800C
8010
8060
8080
8300
8C00
9000
E000
8000
ENDCHAR
STARTCHAR 25B9
ENCODING 9657
SWIDTH 1000 0
DWIDTH 24 0
BBX 15 19 4 -3
BITMAP
8000
C000
F000
F800
CE00
C700
C1C0
C0F0
C038
C00E
C01C
C078
C0E0
C380
C700
DC00
F800
E000
8000
ENDCHAR
STARTCHAR 25BC
ENCODING 9660
SWIDTH 1000 0
DWIDTH 24 0
BBX 18 14 3 0
BITMAP
FFFFC0
7FFF80
7FFF80
3FFF00
1FFE00
1FFE00
0FFC00
07F800
07F800
03F000
03F000
01E000
00C000
00C000
ENDCHAR
STARTCHAR 25BD
ENCODING 9661
SWIDTH 1000 0
DWIDTH 24 0
BBX 18 14 3 -1
BITMAP
FFFFC0
400080
400080
200100
200100
100200
080400
080400
040800
021000
021000
012000
014000
00C000
ENDCHAR
STARTCHAR 25BF
ENCODING 9663
SWIDTH 1000 0
DWIDTH 24 0
BBX 18 15 3 -1
BITMAP
FFFFC0
FFFFC0
600180
300300
300300
180600
180600
0C0C00
061800
061800
033000
01E000
01E000
00C000
008000
ENDCHAR
STARTCHAR 25C0
ENCODING 9664
SWIDTH 1000 0
DWIDTH 24 0
BBX 14 18 5 -2
BITMAP
0004
001C
003C
00FC
03FC
07FC
1FFC
3FFC
FFFC
7FFC
3FFC
0FFC
07FC
01FC
007C
003C
000C
0004
ENDCHAR
STARTCHAR 25C1
ENCODING 9665
SWIDTH 1000 0
DWIDTH 24 0
BBX 15 18 5 -2
BITMAP
0006
000A
0032
00C2
0102
0602
0802
3002
C002
6002
1002
0C02
0202
0182
0062
0012
000E
0002
ENDCHAR
STARTCHAR 25C3
ENCODING 9667
SWIDTH 1000 0
DWIDTH 24 0
BBX 15 19 5 -3
BITMAP
0002
0006
001E
003E
00E6
01C6
0706
1E06
3806
E006
7006
3806
0E06
0386
01C6
0076
003E
000E
0002
ENDCHAR
STARTCHAR 25C6
ENCODING 9670
SWIDTH 1000 0
DWIDTH 24 0
BBX 20 20 2 -3
BITMAP
006000
00F000
01F800
03FC00
07FE00
0FFF00
1FFF80
3FFFC0
7FFFE0
FFFFF0
FFFFF0
7FFFE0
3FFFC0
1FFF80
0FFF00
07FE00
03FC00
01F800
00F000
006000
ENDCHAR
STARTCHAR 25C7
ENCODING 9671
SWIDTH 1000 0
DWIDTH 24 0
BBX 20 20 2 -3
BITMAP
006000
009000
010800
020400
040200
080100
100080
200040
400020
800010
800010
400020
200040
100080
080100
040200
020400
010800
009000
006000
ENDCHAR
STARTCHAR 25C8
ENCODING 9672
SWIDTH 1000 0
DWIDTH 24 0
BBX 20 20 2 -3
BITMAP
006000
009000
010800
020400
046200
08F100
11F880
23FC40
47FE20
8FFF10
8FFF10
47FE20
23FC40
11F880
08F100
046200
020400
010800
009000
006000
ENDCHAR
STARTCHAR 25C9
ENCODING 9673
SWIDTH 1000 0
DWIDTH 24 0
BBX 19 19 3 -2
BITMAP
01F000
0E0C00
180300
200180
600080
400040
80E040
83F020
83F820
83F820
83F820
83F820
81F040
400040
6000C0
200180
180300
0C0E00
03F800
ENDCHAR
STARTCHAR 25CA
ENCODING 9674
SWIDTH 1000 0
DWIDTH 24 0
BBX 16 20 4 -3
BITMAP
0180
03C0
07E0
0660
0C30
1818
381C
700E
E007
C003
C003
6006
300C
381C
1C38
0E70
0660
03C0
0180
0180
ENDCHAR
STARTCHAR 25CB
ENCODING 9675
SWIDTH 1000 0
DWIDTH 24 0
BBX 18 18 3 -2
BITMAP
03F000
0C0C00
100200
200100
400080
400080
800040
800040
800040
800040
800040
800040
400080
400080
200100
100200
0C0C00
03F000
ENDCHAR
STARTCHAR 25CC
ENCODING 9676
SWIDTH 1000 0
DWIDTH 24 0
BBX 22 22 1 -4
BITMAP
003000
030300
000000
100020
000000
000000
400008
400008
000000
000000
800004
800004
000000
000000
400008
400008
000000
000000
100020
000000
030300
003000
ENDCHAR
STARTCHAR 25CE
ENCODING 9678
SWIDTH 1000 0
DWIDTH 24 0
BBX 19 19 2 -2
BITMAP
01F000
060C00
180300
300080
21F080
460C40
480240
880220
900120
900120
900120
900120
880220
4C0640
460C40
21F080
100100
0C0600
03F800
ENDCHAR
STARTCHAR 25CF
ENCODING 9679
SWIDTH 1000 0
DWIDTH 24 0
BBX 18 18 3 -2
BITMAP
03F000
0FFC00
1FFE00
3FFF00
7FFF80
7FFF80
FFFFC0
FFFFC0
FFFFC0
FFFFC0
FFFFC0
FFFFC0
7FFF80
7FFF80
3FFF00
1FFE00
0FFC00
03F000
ENDCHAR
STARTCHAR 25D0
ENCODING 9680
SWIDTH 1000 0
DWIDTH 24 0
BBX 18 19 3 -2
BITMAP
03F000
0F8C00
1F8200
3F8100
7F8180
FF8080
FF8040
FF8040
FF8040
FF8040
FF8040
FF8040
FF8040
FF8080
7F8180
3F8100
1F8200
0F8C00
03F000
ENDCHAR
STARTCHAR 25D1
ENCODING 9681
SWIDTH 1000 0
DWIDTH 24 0
BBX 19 19 3 -2
BITMAP
01F000
0E3C00
183F00
303F80
603FC0
403FC0
803FC0
803FE0
803FE0
803FE0
803FE0
803FE0
803FE0
403FC0
603FC0
203F80
183F00
0E3E00
03F800
ENDCHAR
STARTCHAR 25E6
ENCODING 9702
SWIDTH 1000 0
DWIDTH 24 0
BBX 12 12 6 1
BITMAP
1F80
70E0
4020
C030
8010
8010
8010
8010
C030
6060
39C0
1F80
ENDCHAR
STARTCHAR 25EF
ENCODING 9711
SWIDTH 1000 0
DWIDTH 24 0
BBX 22 21 1 -3
BITMAP
00FC00
030300
0C00C0
100020
200010
200010
400008
400008
800004
800004
800004
800004
800004
800008
400008
400008
200010
100020
080040
060180
01FE00
ENDCHAR
STARTCHAR 2605
ENCODING 9733
SWIDTH 1000 0
DWIDTH 24 0
BBX 18 17 3 -1
BITMAP
008000
00C000
00C000
00C000
01E000
01E000
FFFFC0
7FFF80
3FFF00
0FFC00
07F800
07F800
0FFC00
0FFC00
0E1C00
1C0E00
100200
ENDCHAR
STARTCHAR 2606
ENCODING 9734
SWIDTH 1000 0
DWIDTH 24 0
BBX 18 17 3 -1
BITMAP
008000
00C000
00C000
014000
012000
012000
FE1FC0
400080
300300
080400
040800
040800
080800
09E400
0A1400
140A00
180600
ENDCHAR
STARTCHAR 260E
ENCODING 9742
SWIDTH 1000 0
DWIDTH 24 0
BBX 20 16 2 -1
BITMAP
03FC00
1FFF80
7FFFE0
FB0DF0
FBFDF0
FBFDF0
F70CF0
060600
0E0700
1C0380
3C0380
3E07C0
3E07C0
3F0FC0
7FFFC0
7FFFC0
ENDCHAR
STARTCHAR 260F
ENCODING 9743
SWIDTH 1000 0
DWIDTH 24 0
BBX 21 16 1 -1
BITMAP
00F800
0F0780
33FF60
4E8A90
8AFA88
860288
8A7AC8
758530
060280
0A0240
120240
220220
210420
20F820
200020
3FFFE0
ENDCHAR
STARTCHAR 261C
ENCODING 9756
SWIDTH 1000 0
DWIDTH 24 0
BBX 18 7 3 3
BITMAP
3FF000
C10CC0
7EE3C0
0550C0
03C8C0
03C1C0
03FEC0
ENDCHAR
STARTCHAR 261D
ENCODING 9757
SWIDTH 1000 0
DWIDTH 24 0
BBX 8 17 8 -2
BITMAP
40
A0
A0
A0
B0
AC
AE
ED
AD
B3
91
92
82
42
44
7E
7E
ENDCHAR
STARTCHAR 261E
ENCODING 9758
SWIDTH 1000 0
DWIDTH 24 0
BBX 18 7 3 3
BITMAP
03FF80
CC4040
F1FF80
C2A800
C4F000
E0F000
DFF000
ENDCHAR
STARTCHAR 261F
ENCODING 9759
SWIDTH 1000 0
DWIDTH 24 0
BBX 8 18 8 -1
BITMAP
7E
42
7E
24
42
92
92
91
A7
BD
ED
AE
B0
A0
A0
A0
A0
40
ENDCHAR
STARTCHAR 262F
ENCODING 9775
SWIDTH 1000 0
DWIDTH 24 0
BBX 19 19 2 -2
BITMAP
01F000
060C00
180300
300080
200080
400040
400040
800FA0
801FA0
803FE0
C07FE0
C0FFE0
7FFFE0
7FFFC0
3FFFC0
3FFF80
1FFF00
07FE00
01F800
ENDCHAR
STARTCHAR 2640
ENCODING 9792
SWIDTH 1000 0
DWIDTH 24 0
BBX 14 21 5 -3
BITMAP
0780
0840
1020
1020
1020
1020
1020
0840
0780
0200
0200
0200
FFFC
0200
0200
0200
0200
0200
0200
0200
0200
ENDCHAR
STARTCHAR 2642
ENCODING 9794
SWIDTH 1000 0
DWIDTH 24 0
BBX 11 20 7 -2
BITMAP
0400
0E00
1500
2480
44C0
C440
8420
0400
0400
0400
0400
0400
1B00
2080
4040
4040
4040
4080
2180
1E00
ENDCHAR
STARTCHAR 2660
ENCODING 9824
SWIDTH 1000 0
DWIDTH 24 0
BBX 16 20 4 -2
BITMAP
0100
0380
03C0
07E0
0FF0
1FF0
1FF8
3FFC
7FFC
7FFE
FFFE
FFFF
FFFF
FFFF
7FFE
3B9C
03C0
03C0
07C0
07E0
ENDCHAR
STARTCHAR 2661
ENCODING 9825
SWIDTH 1000 0
DWIDTH 24 0
BBX 17 18 4 -2
BITMAP
3C1E00
622300
C14100
814080
808080
800080
800080
C00100
400100
600300
200200
300400
100C00
080800
041000
022000
014000
008000
ENDCHAR
STARTCHAR 2663
ENCODING 9827
SWIDTH 1000 0
DWIDTH 24 0
BBX 19 20 2 -3
BITMAP
00F000
03F800
03FC00
07FC00
07FC00
07FC00
03F800
01F800
3CF780
7FFFC0
FFFFE0
FFFFE0
FFFFE0
FFFFE0
7FFFE0
7EEFC0
19F300
01F000
01F000
01F000
ENDCHAR
STARTCHAR 2664
ENCODING 9828
SWIDTH 1000 0
DWIDTH 24 0
BBX 16 20 4 -2
BITMAP
0100
0280
06C0
0460
0820
1010
1008
2004
4004
4002
8003
8001
8001
8001
46E2
3ABC
0280
0440
0440
07C0
ENDCHAR
STARTCHAR 2665
ENCODING 9829
SWIDTH 1000 0
DWIDTH 24 0
BBX 17 18 4 -2
BITMAP
3C3E00
7E7F00
FF7F00
FF7F80
FFFF80
FFFF80
FFFF80
7FFF00
7FFF00
7FFE00
3FFE00
1FFC00
1FF800
0FF800
07F000
03E000
01C000
008000
ENDCHAR
STARTCHAR 2667
ENCODING 9831
SWIDTH 1000 0
DWIDTH 24 0
BBX 19 20 2 -3
BITMAP
01F000
030800
040400
040400
040400
040400
020800
031800
3DB780
43B840
800020
800020
800020
80B020
43B840
3D9780
011000
011000
011000
01F000
ENDCHAR
STARTCHAR 2668
ENCODING 9832
SWIDTH 1000 0
DWIDTH 24 0
BBX 19 19 2 -2
BITMAP
002000
002000
026400
026C00
024C00
06CC00
06CC00
026C00
036400
036600
036600
1B6780
236C40
426C20
C24820
E45060
7803E0
3FFF80
0FFE00
ENDCHAR
STARTCHAR 2669
ENCODING 9833
SWIDTH 1000 0
DWIDTH 24 0
BBX 4 18 10 -2
BITMAP
10
10
10
10
10
10
10
10
10
10
10
10
10
30
F0
F0
E0
80
ENDCHAR
STARTCHAR 266A
ENCODING 9834
SWIDTH 1000 0
DWIDTH 24 0
BBX 10 18 7 -2
BITMAP
0800
0C00
0E00
0F00
0F80
0B80
08C0
0840
0840
0840
0840
0880
0900
1800
7800
7800
F000
4000
ENDCHAR
STARTCHAR 266C
ENCODING 9836
SWIDTH 1000 0
DWIDTH 24 0
BBX 14 16 5 -1
BITMAP
007C
0FFC
0FC4
0C0C
08FC
0FFC
0F84
0804
0804
0804
081C
083C
1878
7830
F000
E000
ENDCHAR
STARTCHAR 266D
ENCODING 9837
SWIDTH 1000 0
DWIDTH 24 0
BBX 8 16 8 -1
BITMAP
C0
C0
C0
C0
C0
DC
E6
C3
C3
C3
C3
C2
C6
CC
F8
E0
ENDCHAR
STARTCHAR 266F
ENCODING 9839
SWIDTH 1000 0
DWIDTH 24 0
BBX 12 20 6 -3
BITMAP
0080
1080
1080
1080
1080
17F0
FFE0
F080
1080
1080
1080
1080
10F0
FFF0
FC80
1080
1080
1080
1080
1000
ENDCHAR
STARTCHAR 2716
ENCODING 10006
SWIDTH 1000 0
DWIDTH 24 0
BBX 18 17 3 -2
BITMAP
080400
1C0E00
3E1F00
7F3F80
FFFFC0
7FFF80
3FFF00
1FFE00
0FFC00
0FFC00
1FFE00
3FFF00
7FFF80
7FFF80
3F3F00
1E1E00
0C0C00
ENDCHAR
STARTCHAR 271A
ENCODING 10010
SWIDTH 1000 0
DWIDTH 24 0
BBX 19 19 2 -2
BITMAP
01F800
01F800
01F800
01F800
01F800
01F800
01F800
FFFFE0
FFFFE0
FFFFE0
FFFFE0
FFFFE0
FFFFE0
01F800
01F800
01F800
01F800
01F800
01F800
ENDCHAR
STARTCHAR 273D
ENCODING 10045
SWIDTH 1000 0
DWIDTH 24 0
BBX 12 13 6 0
BITMAP
0600
0600
0600
C630
E470
3DC0
0600
0900
74E0
E670
4620
0600
0600
ENDCHAR
STARTCHAR 2756
ENCODING 10070
SWIDTH 1000 0
DWIDTH 24 0
BBX 18 18 3 -2
BITMAP
00C000
01E000
03F000
07F800
03F000
11E200
38C700
7C0F80
FE1FC0
FE1FC0
7C0F80
38C700
11E200
03F000
07F800
03F000
01E000
00C000
ENDCHAR
STARTCHAR 2776
ENCODING 10102
SWIDTH 1000 0
DWIDTH 24 0
BBX 21 21 1 -4
BITMAP
01FC00
07FF00
0FFF80
1FDFC0
3FDFE0
7FDFF0
7E1FF0
FFDFF8
FFDFF8
FFDFF8
FFDFF8
FFDFF8
FFDFF8
FFDFF8
7FDFF0
7FDFF0
3FDFE0
3FDFE0
1FFFC0
07FF00
03FE00
ENDCHAR
STARTCHAR 2777
ENCODING 10103
SWIDTH 1000 0
DWIDTH 24 0
BBX 21 21 1 -3
BITMAP
00F800
07FF00
0FFF80
1F87C0
3F7BE0
7EFDF0
7EFDF0
FCFDF8
FFFDF8
FFFBF8
FFF3F8
FFCFF8
FF9FF8
FF3FF8
7E7FF0
7CFFF0
3C01E0
1FFFE0
0FFFC0
07FF00
01FC00
ENDCHAR
STARTCHAR 2778
ENCODING 10104
SWIDTH 1000 0
DWIDTH 24 0
BBX 22 21 1 -4
BITMAP
00FC00
07FF00
0FFFC0
1F87E0
3E7BF0
7EFDF0
7CFDF8
7CFDF8
FFF9FC
FFC3FC
FFC3FC
FFF9FC
FFFCFC
7DFCF8
7DFCF8
7CFCF8
3E79F0
1F07E0
0FFFC0
07FF80
01FE00
ENDCHAR
STARTCHAR 2779
ENCODING 10105
SWIDTH 1000 0
DWIDTH 24 0
BBX 21 22 1 -4
BITMAP
00FC00
03FF00
0FFFC0
1FF7E0
3FE7E0
3FE7F0
7FD7F8
7F97F8
7FB7F8
FF77F8
FE77F8
FEF7F8
7DF7F8
7C01F8
7C01F8
7FF7F0
3FF7F0
1FF7E0
1FFFC0
0FFF80
03FF00
007800
ENDCHAR
STARTCHAR 277A
ENCODING 10106
SWIDTH 1000 0
DWIDTH 24 0
BBX 21 21 2 -4
BITMAP
01FC00
07FF00
0FFF80
3E03C0
3E03E0
7EFFF0
7EFFF0
FEFFF8
FEFFF8
FC67F8
FCFBF8
FFFDF8
FFFDF8
FFFDF8
FDFDF0
7DF9F0
3EF3E0
3F0FC0
1FFF80
07FF00
01FC00
ENDCHAR
STARTCHAR 277B
ENCODING 10107
SWIDTH 1000 0
DWIDTH 24 0
BBX 21 21 1 -4
BITMAP
01FC00
07FF00
0FFF80
1FCFC0
3F03E0
7E7BF0
7EF9F0
7DFDF8
FDFFF8
FD07F8
FCFBF8
FCFDF8
FDFDF8
7DFDF8
7CFDF0
7EF9F0
3E73E0
1F07E0
0FFFC0
07FF00
01FC00
ENDCHAR
STARTCHAR 277C
ENCODING 10108
SWIDTH 1000 0
DWIDTH 24 0
BBX 21 21 1 -3
BITMAP
01FC00
07FF00
0FFF80
1FFFE0
3E01E0
7FFDF0
7FFBF0
FFF7F8
FFF7F8
FFEFF8
FFCFF8
FFDFF8
FFDFF8
FF9FF8
7FBFF0
7FBFF0
3FBFE0
1FBFE0
0FFFC0
07FF00
01FC00
ENDCHAR
STARTCHAR 277D
ENCODING 10109
SWIDTH 1000 0
DWIDTH 24 0
BBX 21 21 1 -4
BITMAP
01FC00
07FF00
0FFF80
1FDFE0
3E03E0
7E7BF0
7CFDF0
FCFDF8
FEFFF8
FE7BF8
FF87F8
FEFBF8
FDFDF8
FDFDF8
7DFDF0
7DFDF0
3EFBE0
1F07E0
0FFFC0
07FF00
01FC00
ENDCHAR
STARTCHAR 277E
ENCODING 10110
SWIDTH 1000 0
DWIDTH 24 0
BBX 21 21 1 -4
BITMAP
01FC00
07FF00
0FFF80
1F8FC0
3E23E0
7EFBF0
7CFDF0
FDFDF8
FDFDF8
FCFDF8
FEF9F8
FE71F8
FF05F8
FFFDF8
7CFDF0
7EFBF0
3E73E0
3F07E0
1FFFC0
07FF00
01FC00
ENDCHAR
STARTCHAR 277F
ENCODING 10111
SWIDTH 1000 0
DWIDTH 24 0
BBX 21 21 2 -4
BITMAP
01F800
07FF00
1FFF80
3FF3C0
3DE0E0
7DDE70
E1DE70
FD9F78
FDBF78
FDBF78
FDBF78
FDBF78
FDBF78
FDBF78
FD9F70
7DDE70
7DCCE0
3DE1E0
1FFFC0
0FFF00
03FE00
ENDCHAR
STARTCHAR 278A
ENCODING 10122
SWIDTH 1000 0
DWIDTH 24 0
BBX 21 22 2 -4
BITMAP
01F800
07FF00
1FFF80
3FCFC0
3F8FE0
7E0FF0
FE0FF0
FE0FF0
FF8FF8
FF8FF8
FF8FF8
FF8FF8
FF8FF8
FF8FF8
FF8FF0
7F8FF0
7F8FE0
3F8FE0
1F8FC0
0FFF80
07FE00
00F800
ENDCHAR
STARTCHAR 278B
ENCODING 10123
SWIDTH 1000 0
DWIDTH 24 0
BBX 21 21 1 -4
BITMAP
01FC00
07FF00
0F8780
1F03C0
3E03E0
7E31F0
7E71F0
FFF3F8
FFE3F8
FFE3F8
FFC7F8
FFC7F8
FF8FF8
FF1FF8
7F1FF8
7E3FF0
3E03E0
1E03E0
0FFFC0
07FF00
01FC00
ENDCHAR
STARTCHAR 278C
ENCODING 10124
SWIDTH 1000 0
DWIDTH 24 0
BBX 21 21 2 -3
BITMAP
01F800
07FF00
1FFF80
3F0FC0
3E07E0
7E07F0
FE63F0
FE63F0
FFE7F8
FF87F8
FF8FF8
FF87F8
FFE3F8
FFE3F0
FE63F0
7E63F0
3E07E0
3F0FC0
1FFF80
07FF00
01F800
ENDCHAR
STARTCHAR 278D
ENCODING 10125
SWIDTH 1000 0
DWIDTH 24 0
BBX 21 21 1 -3
BITMAP
00F800
03FF00
0FFF80
1FC7C0
3FC7E0
7F87F0
7F87F0
7F07F8
FF47F8
FE47F8
FE47F8
FC47F8
FC03F8
7C03F8
7FC7F0
7FC7F0
3FC7E0
1FC7C0
0FFF80
07FF00
01FC00
ENDCHAR
STARTCHAR 278E
ENCODING 10126
SWIDTH 1000 0
DWIDTH 24 0
BBX 21 22 2 -4
BITMAP
01FC00
07FF00
0FFF80
1E07C0
3E07E0
7E07F0
7E7FF0
FE7FF0
FE07F8
FE03F8
FE63F8
FFE3F8
FFE3F8
FFE3F8
FE63F0
7E63F0
7E03F0
3F07E0
1F8FC0
0FFF80
07FF00
00F800
ENDCHAR
STARTCHAR 278F
ENCODING 10127
SWIDTH 1000 0
DWIDTH 24 0
BBX 21 22 1 -4
BITMAP
00F800
07FE00
0FFF80
1F87C0
3F03E0
7E23F0
7E33F0
7E33F0
FE3FF8
FE07F8
FE03F8
FE33F8
FE33F8
FE33F8
7E33F0
7E33F0
7E03F0
3E03E0
1F0FC0
0FFF80
07FF00
00F800
ENDCHAR
STARTCHAR 2790
ENCODING 10128
SWIDTH 1000 0
DWIDTH 24 0
BBX 21 22 1 -4
BITMAP
01FC00
07FF00
0FFF80
1E03C0
3E03E0
7E03F0
7FE3F0
7FE3F8
FFE3F8
FFE7F8
FFC7F8
FFC7F8
FFC7F8
FFCFF8
7F8FF8
7F8FF0
7F8FF0
3F9FE0
1F1FC0
0FFF80
07FF00
00F800
ENDCHAR
STARTCHAR 2791
ENCODING 10129
SWIDTH 1000 0
DWIDTH 24 0
BBX 21 21 1 -3
BITMAP
01FC00
07FF00
0FFF80
1F07C0
3E03E0
7E23F0
7E33F0
FE33F8
FE33F8
FF07F8
FF07F8
FE03F8
FE33F8
FE33F8
7E33F0
7E33F0
3E03E0
1F07C0
0FFF80
07FF00
01FC00
ENDCHAR
STARTCHAR 2792
ENCODING 10130
SWIDTH 1000 0
DWIDTH 24 0
BBX 21 21 1 -3
BITMAP
01FC00
07FF00
0FFF80
1F07C0
3F03E0
7E33F0
7E33F0
7E33F8
FE33F8
FE33F8
FE03F8
FF03F8
FF93F8
7FF3F8
7E33F0
7E33F0
3E03E0
1F07C0
0FFF80
07FF00
01FC00
ENDCHAR
STARTCHAR 2793
ENCODING 10131
SWIDTH 1000 0
DWIDTH 24 0
BBX 21 21 1 -2
BITMAP
01FE00
07FF00
1FFFC0
1EF1E0
3CE0E0
70C070
70C670
FCC678
FCC678
FCC678
FCC678
FCC678
FCC678
FCC678
7CC670
7CC670
3CC060
1CE0C0
0FFF80
07FF00
01FC00
ENDCHAR
STARTCHAR 3000
ENCODING 12288
SWIDTH 1000 0
DWIDTH 24 0
BBX 0 0 0 0
BITMAP
ENDCHAR
STARTCHAR 3001
ENCODING 12289
SWIDTH 1000 0
DWIDTH 24 0
BBX 4 3 10 -3
BITMAP
C0
70
30
ENDCHAR
STARTCHAR 3002
ENCODING 12290
SWIDTH 1000 0
DWIDTH 24 0
BBX 6 5 9 -4
BITMAP
78
88
84
84
78
ENDCHAR
STARTCHAR 3003
ENCODING 12291
SWIDTH 1000 0
DWIDTH 24 0
BBX 9 7 7 4
BITMAP
1980
3180
3300
2200
4200
4400
8800
ENDCHAR
STARTCHAR 3008
ENCODING 12296
SWIDTH 1000 0
DWIDTH 24 0
BBX 9 20 9 -3
BITMAP
0100
0300
0200
0400
0800
1000
1000
2000
4000
8000
4000
4000
2000
1000
0800
0800
0400
0200
0100
0080
ENDCHAR
STARTCHAR 3009
ENCODING 12297
SWIDTH 1000 0
DWIDTH 24 0
BBX 8 20 8 -3
BITMAP
80
40
20
20
10
08
04
02
02
01
01
02
04
0C
08
10
20
40
C0
80
ENDCHAR
STARTCHAR 300A
ENCODING 12298
SWIDTH 1000 0
DWIDTH 24 0
BBX 9 21 8 -3
BITMAP
0480
0500
0900
0A00
1400
1400
2800
4800
5000
9000
A000
A000
9000
5000
2800
2400
1400
1200
0A00
0500
0500
ENDCHAR
STARTCHAR 300B
ENCODING 12299
SWIDTH 1000 0
DWIDTH 24 0
BBX 9 21 7 -3
BITMAP
9000
5000
4800
2800
1400
1200
0A00
0900
0500
0280
0280
0280
0480
0500
0900
0A00
1400
2400
2800
4800
5000
ENDCHAR
STARTCHAR 300C
ENCODING 12300
SWIDTH 1000 0
DWIDTH 24 0
BBX 6 10 8 7
BITMAP
FC
80
80
80
80
80
80
80
80
80
ENDCHAR
STARTCHAR 300D
ENCODING 12301
SWIDTH 1000 0
DWIDTH 24 0
BBX 7 10 8 -3
BITMAP
02
02
02
02
02
02
02
02
02
FE
ENDCHAR
STARTCHAR 300E
ENCODING 12302
SWIDTH 1000 0
DWIDTH 24 0
BBX 7 11 8 7
BITMAP
FE
82
BE
A0
A0
A0
A0
A0
A0
A0
E0
ENDCHAR
STARTCHAR 300F
ENCODING 12303
SWIDTH 1000 0
DWIDTH 24 0
BBX 7 10 8 -3
BITMAP
0E
0A
0A
0A
0A
0A
0A
0A
FA
FE
ENDCHAR
STARTCHAR 3010
ENCODING 12304
SWIDTH 1000 0
DWIDTH 24 0
BBX 7 21 9 -3
BITMAP
FE
FC
F8
F0
F0
E0
E0
C0
C0
C0
C0
C0
C0
C0
E0
E0
E0
F0
F8
FC
FE
ENDCHAR
STARTCHAR 3011
ENCODING 12305
SWIDTH 1000 0
DWIDTH 24 0
BBX 8 21 8 -3
BITMAP
FF
3F
1F
0F
0F
07
07
07
03
03
03
03
03
07
07
07
0F
0F
1F
3F
7F
ENDCHAR
STARTCHAR 3012
ENCODING 12306
SWIDTH 1000 0
DWIDTH 24 0
BBX 19 18 2 -2
BITMAP
FFFFE0
FFFFE0
000000
000000
000000
FFFFE0
FFFFE0
006000
006000
006000
006000
006000
006000
006000
006000
006000
006000
006000
ENDCHAR
STARTCHAR 3013
ENCODING 12307
SWIDTH 1000 0
DWIDTH 24 0
BBX 16 5 4 5
BITMAP
FFFF
0000
0000
0000
FFFF
ENDCHAR
STARTCHAR 3014
ENCODING 12308
SWIDTH 1000 0
DWIDTH 24 0
BBX 6 21 9 -4
BITMAP
04
18
60
C0
80
80
80
80
80
80
80
80
80
80
80
80
80
80
C0
30
0C
ENDCHAR
STARTCHAR 3015
ENCODING 12309
SWIDTH 1000 0
DWIDTH 24 0
BBX 6 21 9 -4
BITMAP
80
60
18
0C
04
04
04
04
04
04
04
04
04
04
04
04
04
04
0C
30
C0
ENDCHAR
STARTCHAR 3016
ENCODING 12310
SWIDTH 1000 0
DWIDTH 24 0
BBX 7 21 8 -3
BITMAP
FE
C4
C4
C8
C8
C8
D0
D0
D0
D0
D0
D0
D0
D0
D0
C8
C8
C8
C4
C4
FE
ENDCHAR
STARTCHAR 3017
ENCODING 12311
SWIDTH 1000 0
DWIDTH 24 0
BBX 7 21 8 -3
BITMAP
FE
46
46
26
26
26
16
16
16
16
16
16
16
16
16
26
26
26
46
46
FE
ENDCHAR
STARTCHAR 3018
ENCODING 12312
SWIDTH 1000 0
DWIDTH 24 0
BBX 8 22 8 -3
BITMAP
02
0D
36
D8
A0
A0
A0
A0
A0
A0
A0
A0
A0
A0
A0
A0
A0
B0
48
36
0E
02
ENDCHAR
STARTCHAR 3019
ENCODING 12313
SWIDTH 1000 0
DWIDTH 24 0
BBX 8 22 8 -3
BITMAP
40
B0
6C
1B
05
05
05
05
05
05
05
05
05
05
05
05
05
0D
12
6C
B0
40
ENDCHAR
STARTCHAR 301E
ENCODING 12318
SWIDTH 1000 0
DWIDTH 24 0
BBX 8 5 8 11
BITMAP
33
22
66
44
88
ENDCHAR
STARTCHAR 301F
ENCODING 12319
SWIDTH 1000 0
DWIDTH 24 0
BBX 8 5 8 -4
BITMAP
33
22
46
44
88
ENDCHAR
STARTCHAR 3020
ENCODING 12320
SWIDTH 1000 0
DWIDTH 24 0
BBX 18 16 3 0
BITMAP
030000
01E000
063C00
03CF00
707980
8C2F00
8E6180
804000
404400
4804C0
240040
230840
10F040
0C0380
031C00
00E000
ENDCHAR
STARTCHAR 3036
ENCODING 12342
SWIDTH 1000 0
DWIDTH 24 0
BBX 21 21 1 -3
BITMAP
00F800
070700
080080
100040
200020
4FFFD0
4FFFD0
400008
800008
800008
8FFFC8
8FFFC8
803008
803008
403010
403010
203020
103040
083080
060300
01FC00
ENDCHAR
STARTCHAR 3041
ENCODING 12353
SWIDTH 1000 0
DWIDTH 24 0
BBX 13 16 5 -3
BITMAP
0400
0C00
0D80
7F00
0800
0880
0980
0FE0
3930
6B18
4A18
8E18
8C18
9C10
7470
00C0
ENDCHAR
STARTCHAR 3042
ENCODING 12354
SWIDTH 1000 0
DWIDTH 24 0
BBX 16 20 4 -3
BITMAP
0200
0300
0300
0270
3FF0
3E00
0620
0630
06F8
07FE
1E66
3663
66C3
4683
C783
C303
C706
7F8E
003C
0018
ENDCHAR
STARTCHAR 3043
ENCODING 12355
SWIDTH 1000 0
DWIDTH 24 0
BBX 14 10 5 0
BITMAP
C000
C020
C030
C010
C018
4008
400C
6000
6600
3C00
ENDCHAR
STARTCHAR 3044
ENCODING 12356
SWIDTH 1000 0
DWIDTH 24 0
BBX 17 14 3 0
BITMAP
C00000
C00000
C00C00
C00C00
C00600
C00300
C00300
400380
600180
600100
610000
330000
3E0000
1C0000
ENDCHAR
STARTCHAR 3045
ENCODING 12357
SWIDTH 1000 0
DWIDTH 24 0
BBX 8 15 8 -2
BITMAP
18
0C
00
00
3E
E3
C1
01
01
01
03
03
06
0C
08
ENDCHAR
STARTCHAR 3046
ENCODING 12358
SWIDTH 1000 0
DWIDTH 24 0
BBX 11 19 7 -2
BITMAP
0800
0E00
0780
0100
0000
0200
1F80
78C0
E040
0060
0060
0060
0040
00C0
00C0
0180
0380
0700
0600
ENDCHAR
STARTCHAR 3047
ENCODING 12359
SWIDTH 1000 0
DWIDTH 24 0
BBX 13 15 6 -2
BITMAP
0400
0700
0300
0000
0000
7F00
6300
0600
0400
0A00
1F00
3100
6100
C188
C0F8
ENDCHAR
STARTCHAR 3048
ENCODING 12360
SWIDTH 1000 0
DWIDTH 24 0
BBX 16 19 4 -2
BITMAP
0200
0380
01E0
00C0
0000
0000
0FC0
3FE0
21C0
0180
0300
0600
0FC0
0EC0
18C0
30C0
6060
E07F
403F
ENDCHAR
STARTCHAR 3049
ENCODING 12361
SWIDTH 1000 0
DWIDTH 24 0
BBX 14 14 5 -1
BITMAP
0800
0800
0E18
7E0C
0800
0800
0FE0
1C30
3810
4818
8810
8830
4860
38C0
ENDCHAR
STARTCHAR 304A
ENCODING 12362
SWIDTH 1000 0
DWIDTH 24 0
BBX 17 18 3 -1
BITMAP
0C0000
0C0000
0C0400
0C8700
7F8180
7C0080
0C0000
0C0000
0DF800
0FFE00
1C0700
3C0300
6C0300
CC0300
CC0600
6C0E00
7C3C00
181000
ENDCHAR
STARTCHAR 304B
ENCODING 12363
SWIDTH 1000 0
DWIDTH 24 0
BBX 18 17 3 -1
BITMAP
030000
030000
060000
060600
07E300
FFF100
7C3180
0C30C0
083080
183000
183000
303000
303000
606000
606000
C3E000
43C000
ENDCHAR
STARTCHAR 304C
ENCODING 12364
SWIDTH 1000 0
DWIDTH 24 0
BBX 19 18 3 -1
BITMAP
000080
030060
060100
060080
060400
07C600
FE6300
EC3180
0C3180
183080
183000
102000
302000
306000
606000
60E000
C3C000
C38000
ENDCHAR
STARTCHAR 304D
ENCODING 12365
SWIDTH 1000 0
DWIDTH 24 0
BBX 12 20 6 -3
BITMAP
1800
1800
0D80
0F80
7E00
0600
0370
07E0
FF80
7180
00C0
00E0
7F60
E0F0
C020
C000
C000
7000
3F80
0F80
ENDCHAR
STARTCHAR 304E
ENCODING 12366
SWIDTH 1000 0
DWIDTH 24 0
BBX 16 20 4 -2
BITMAP
1802
180B
0D8C
0F80
7E00
0600
03F0
07E0
FF80
7180
00C0
00C0
7F60
E0F0
C020
C000
C000
7000
3F80
0F80
ENDCHAR
STARTCHAR 304F
ENCODING 12367
SWIDTH 1000 0
DWIDTH 24 0
BBX 8 19 8 -3
BITMAP
04
06
0E
0C
18
38
30
60
C0
C0
60
30
38
18
0C
0E
06
07
03
ENDCHAR
STARTCHAR 3050
ENCODING 12368
SWIDTH 1000 0
DWIDTH 24 0
BBX 13 19 5 -3
BITMAP
0400
0600
0E00
0C10
1848
1868
3020
6000
C000
C000
6000
3000
3800
1800
0C00
0E00
0600
0300
0300
ENDCHAR
STARTCHAR 3051
ENCODING 12369
SWIDTH 1000 0
DWIDTH 24 0
BBX 16 18 4 -2
BITMAP
6018
6018
6018
401B
C3FF
C3F8
C018
C018
C018
C018
D018
D018
E030
E030
6030
6060
40E0
00C0
ENDCHAR
STARTCHAR 3052
ENCODING 12370
SWIDTH 1000 0
DWIDTH 24 0
BBX 20 20 2 -2
BITMAP
000060
0019A0
701890
601840
601800
601F00
43FF00
43F800
C01800
C01800
C01800
C01800
501800
501000
703000
703000
607000
30E000
00C000
004000
ENDCHAR
STARTCHAR 3053
ENCODING 12371
SWIDTH 1000 0
DWIDTH 24 0
BBX 14 15 5 0
BITMAP
3FF0
3FE0
0000
0000
0000
0000
0000
0000
0000
4000
C000
C000
E00C
7FF8
0FF0
ENDCHAR
STARTCHAR 3054
ENCODING 12372
SWIDTH 1000 0
DWIDTH 24 0
BBX 17 17 3 0
BITMAP
000180
000680
3FE200
3FE200
000000
000000
000000
000000
000000
000000
000000
400000
C00000
C00000
E01800
7FF800
0FF000
ENDCHAR
STARTCHAR 3055
ENCODING 12373
SWIDTH 1000 0
DWIDTH 24 0
BBX 12 19 6 -3
BITMAP
1800
0C00
0C00
0670
07F0
FF80
7300
0180
0180
00C0
00C0
7F60
E0F0
C060
C000
C000
7000
3F80
0F80
ENDCHAR
STARTCHAR 3056
ENCODING 12374
SWIDTH 1000 0
DWIDTH 24 0
BBX 16 20 4 -2
BITMAP
0002
080B
0C0D
0C04
0660
07F0
FF80
F300
0180
0180
00C0
00C0
3F60
E0F0
C060
C000
C000
7000
3F80
0F80
ENDCHAR
STARTCHAR 3057
ENCODING 12375
SWIDTH 1000 0
DWIDTH 24 0
BBX 12 18 6 -2
BITMAP
C000
C000
C000
C000
C000
C000
C000
C000
C000
C000
C000
C000
C000
C030
C070
C0E0
61C0
3F00
ENDCHAR
STARTCHAR 3058
ENCODING 12376
SWIDTH 1000 0
DWIDTH 24 0
BBX 12 18 6 -2
BITMAP
C040
C120
C090
C040
C000
C000
C000
C000
C000
C000
C000
C000
C020
C030
C070
40E0
61C0
3F00
ENDCHAR
STARTCHAR 3059
ENCODING 12377
SWIDTH 1000 0
DWIDTH 24 0
BBX 16 19 4 -2
BITMAP
00C0
00C0
00C0
03FF
FFFF
E0C0
00C0
00C0
0FC0
1CC0
18C0
18C0
18C0
0FC0
06C0
01C0
0180
0700
0F00
ENDCHAR
STARTCHAR 305A
ENCODING 12378
SWIDTH 1000 0
DWIDTH 24 0
BBX 18 21 3 -2
BITMAP
000080
008240
00C140
00C100
00C000
FFFF00
FEFF00
00C000
00C000
0FC000
1DC000
18C000
18C000
18C000
0FC000
0EC000
01C000
018000
030000
0F0000
060000
ENDCHAR
STARTCHAR 305B
ENCODING 12379
SWIDTH 1000 0
DWIDTH 24 0
BBX 20 17 2 -2
BITMAP
000600
040600
060600
060600
060600
061FF0
FFFFF0
7E0600
060600
060600
060600
061C00
061800
060000
060000
038700
01FF00
ENDCHAR
STARTCHAR 305C
ENCODING 12380
SWIDTH 1000 0
DWIDTH 24 0
BBX 20 17 2 -2
BITMAP
000040
001920
0C18B0
0C18C0
0C1800
0C1800
0FFFC0
FFFFC0
CC1800
0C1800
0C1800
0C7800
0C7000
0C0000
0C0000
070C00
03FC00
ENDCHAR
STARTCHAR 305D
ENCODING 12381
SWIDTH 1000 0
DWIDTH 24 0
BBX 13 20 6 -4
BITMAP
07C0
7FC0
4180
0300
0600
0C00
1800
31F8
7FF8
F9E0
C380
0700
0600
0C00
0C00
0C00
0C00
0700
03E0
00E0
ENDCHAR
STARTCHAR 305E
ENCODING 12382
SWIDTH 1000 0
DWIDTH 24 0
BBX 17 20 4 -4
BITMAP
07C000
7FC000
418100
030480
060200
0C0000
180000
31F800
7FF800
F9E000
C38000
060000
060000
0C0000
0C0000
0C0000
0C0000
070000
03E000
00E000
ENDCHAR
STARTCHAR 305F
ENCODING 12383
SWIDTH 1000 0
DWIDTH 24 0
BBX 16 18 4 -2
BITMAP
0C00
0C00
0C00
0D80
7F80
FC00
0C00
18FE
18FE
1800
1800
3000
3000
3000
6000
6301
E1FF
403C
ENDCHAR
STARTCHAR 3060
ENCODING 12384
SWIDTH 1000 0
DWIDTH 24 0
BBX 17 18 3 -2
BITMAP
0C0000
0C0100
0C0480
0D8280
7F8200
FC0000
180000
18FE00
18FE00
180000
100000
300000
300000
300000
600000
630100
E1FF00
C03C00
ENDCHAR
STARTCHAR 3061
ENCODING 12385
SWIDTH 1000 0
DWIDTH 24 0
BBX 14 18 5 -2
BITMAP
0C00
0C00
0C20
0FE0
FFC0
EC00
0800
0800
1800
1800
19F0
1E18
180C
000C
000C
0038
03F8
01E0
ENDCHAR
STARTCHAR 3062
ENCODING 12386
SWIDTH 1000 0
DWIDTH 24 0
BBX 16 19 4 -3
BITMAP
0002
0C0B
0C0D
0C24
0FE0
FFC0
EC00
0800
0800
1800
1800
19F0
1E18
180C
000C
000C
0038
03F8
01E0
ENDCHAR
STARTCHAR 3063
ENCODING 12387
SWIDTH 1000 0
DWIDTH 24 0
BBX 13 10 6 -1
BITMAP
07E0
FC30
E018
0018
0018
0018
0010
0070
03E0
0380
ENDCHAR
STARTCHAR 3064
ENCODING 12388
SWIDTH 1000 0
DWIDTH 24 0
BBX 17 12 4 0
BITMAP
07FE00
FF0700
F00300
400180
000180
000180
000180
000300
000700
001E00
01FC00
00F000
ENDCHAR
STARTCHAR 3065
ENCODING 12389
SWIDTH 1000 0
DWIDTH 24 0
BBX 20 16 2 0
BITMAP
000060
000130
0000C0
000000
07FE00
FF0700
F00300
400180
000180
000180
000180
000300
000700
001E00
00FC00
00F000
ENDCHAR
STARTCHAR 3066
ENCODING 12390
SWIDTH 1000 0
DWIDTH 24 0
BBX 16 16 4 -1
BITMAP
001E
0FFF
FF30
E060
00C0
0180
0180
0300
0300
0300
0300
0380
01C0
00F0
007C
001C
ENDCHAR
STARTCHAR 3067
ENCODING 12391
SWIDTH 1000 0
DWIDTH 24 0
BBX 18 16 3 -1
BITMAP
001E00
0FFF00
FF3000
E06000
00C0C0
018340
038100
030000
030000
030000
030000
038000
01C000
00F000
007C00
001800
ENDCHAR
STARTCHAR 3068
ENCODING 12392
SWIDTH 1000 0
DWIDTH 24 0
BBX 12 18 6 -2
BITMAP
3000
3000
3000
3000
3020
10E0
1FC0
1E00
3800
7000
6000
C000
C000
C000
C000
E030
7FF0
07E0
ENDCHAR
STARTCHAR 3069
ENCODING 12393
SWIDTH 1000 0
DWIDTH 24 0
BBX 16 18 4 -1
BITMAP
3002
300B
300C
3000
3020
10E0
1FC0
1E00
3800
7000
6000
C000
C000
C000
C000
E030
7FF0
07E0
ENDCHAR
STARTCHAR 306A
ENCODING 12394
SWIDTH 1000 0
DWIDTH 24 0
BBX 16 19 4 -2
BITMAP
0C00
0C00
0C00
0C80
3F98
FC06
1803
3002
3060
6060
6060
C060
C060
83F0
07FC
0C6E
0C66
0C60
07C0
ENDCHAR
STARTCHAR 306B
ENCODING 12395
SWIDTH 1000 0
DWIDTH 24 0
BBX 16 17 4 -2
BITMAP
4000
6000
60FE
61FE
C002
C000
C000
C000
C000
C000
C000
D000
D000
E301
63FF
60FF
6000
ENDCHAR
STARTCHAR 306C
ENCODING 12396
SWIDTH 1000 0
DWIDTH 24 0
BBX 18 17 3 -2
BITMAP
018000
018000
018000
418000
43F000
6FFC00
3B8E00
330300
730300
D30180
DE0180
8E0180
8C3F80
8E7F80
DE43C0
F066C0
603C00
ENDCHAR
STARTCHAR 306D
ENCODING 12397
SWIDTH 1000 0
DWIDTH 24 0
BBX 18 19 3 -3
BITMAP
180000
180000
180000
1A0000
1E3800
7CFE00
F98600
9B0700
1C0300
380300
380300
780300
780300
D87F00
D8C700
98C780
18CDC0
18FC80
183000
ENDCHAR
STARTCHAR 306E
ENCODING 12398
SWIDTH 1000 0
DWIDTH 24 0
BBX 18 14 3 0
BITMAP
03FC00
0F5F00
186380
304180
60C1C0
60C0C0
4080C0
C180C0
C300C0
430180
660380
7C0700
381E00
000C00
ENDCHAR
STARTCHAR 306F
ENCODING 12399
SWIDTH 1000 0
DWIDTH 24 0
BBX 18 18 3 -2
BITMAP
001800
301800
601800
601900
63FF00
63FE00
401800
401800
401800
C01800
C01800
501800
50FE00
739F00
7319C0
731880
23B000
21E000
ENDCHAR
STARTCHAR 3070
ENCODING 12400
SWIDTH 1000 0
DWIDTH 24 0
BBX 19 20 2 -2
BITMAP
000040
000160
0019A0
301880
601800
601800
601F00
63FF00
43F800
401800
C01800
C01800
C01800
D01800
50FC00
739F00
731980
631880
23B800
21F000
ENDCHAR
STARTCHAR 3071
ENCODING 12401
SWIDTH 1000 0
DWIDTH 24 0
BBX 18 20 3 -2
BITMAP
000180
000240
003240
603180
403000
C03000
C03E00
C7FE00
87F000
803000
803000
803000
803000
903000
A1F800
E73E00
E63300
E63100
677000
43E000
ENDCHAR
STARTCHAR 3072
ENCODING 12402
SWIDTH 1000 0
DWIDTH 24 0
BBX 17 18 3 -1
BITMAP
000C00
1E1C00
FC0C00
6C0E00
180F00
100F80
300D80
300C80
200C00
600C00
600800
601800
601800
601000
303000
386000
1FC000
0F8000
ENDCHAR
STARTCHAR 3073
ENCODING 12403
SWIDTH 1000 0
DWIDTH 24 0
BBX 20 20 2 -1
BITMAP
000040
000120
000890
1E1C40
FC0C00
6C0E00
180E00
100F00
300D80
300C80
200800
600800
600800
601800
601800
601000
303000
386000
1FC000
0F8000
ENDCHAR
STARTCHAR 3074
ENCODING 12404
SWIDTH 1000 0
DWIDTH 24 0
BBX 20 20 2 -2
BITMAP
0000E0
000110
000D10
1E1CE0
FC0C00
6C0E00
180E00
100F00
300D80
300D00
200C00
600C00
600800
601800
601800
601000
303000
386000
1FC000
0F8000
ENDCHAR
STARTCHAR 3075
ENCODING 12405
SWIDTH 1000 0
DWIDTH 24 0
BBX 18 18 3 -1
BITMAP
018000
00F000
006000
00C000
000000
000000
010000
038000
00C000
006000
007100
C03180
EC38C0
7818C0
301800
023800
03F000
01E000
ENDCHAR
STARTCHAR 3076
ENCODING 12406
SWIDTH 1000 0
DWIDTH 24 0
BBX 18 19 3 -1
BITMAP
000080
018240
01F140
006100
00C000
000000
000000
010000
038000
00C000
006000
007100
C03180
EC38C0
7818C0
301800
023800
03F000
01E000
ENDCHAR
STARTCHAR 3077
ENCODING 12407
SWIDTH 1000 0
DWIDTH 24 0
BBX 19 20 3 -2
BITMAP
0001C0
000220
018220
01F220
0071C0
00C000
008000
000000
000000
038000
01C000
006000
007100
C03180
EC38C0
781840
301800
023800
03F000
01E000
ENDCHAR
STARTCHAR 3078
ENCODING 12408
SWIDTH 1000 0
DWIDTH 24 0
BBX 20 9 2 2
BITMAP
030000
07C000
0CE000
187000
301800
E00E00
600780
0001F0
000060
ENDCHAR
STARTCHAR 3079
ENCODING 12409
SWIDTH 1000 0
DWIDTH 24 0
BBX 20 11 2 3
BITMAP
000080
000240
010100
078100
0CC000
187000
301800
E00E00
600780
0001F0
000060
ENDCHAR
STARTCHAR 307A
ENCODING 12410
SWIDTH 1000 0
DWIDTH 24 0
BBX 18 12 3 1
BITMAP
000300
000480
000480
060780
1F8000
38C000
706000
E03800
C01E00
000780
0003C0
0000C0
ENDCHAR
STARTCHAR 307B
ENCODING 12411
SWIDTH 1000 0
DWIDTH 24 0
BBX 18 17 3 -2
BITMAP
000200
31FE00
60F800
601800
601800
601B00
43FF00
41F800
401800
C01800
401800
501800
51FE00
739F80
7319C0
731880
31F000
ENDCHAR
STARTCHAR 307C
ENCODING 12412
SWIDTH 1000 0
DWIDTH 24 0
BBX 19 18 2 -2
BITMAP
000400
63FC40
603160
4031A0
C03080
C03200
C7FE00
C3FC00
C03000
803000
803000
D03000
E1FC00
E33F00
E63380
663100
63F000
41E000
ENDCHAR
STARTCHAR 307D
ENCODING 12413
SWIDTH 1000 0
DWIDTH 24 0
BBX 20 18 2 -1
BITMAP
401CE0
63FD10
603110
403110
4030E0
C03200
C3FE00
C3FC00
C03000
C03000
803000
D03000
D1FC00
E33F00
663380
663100
63F000
41E000
ENDCHAR
STARTCHAR 307E
ENCODING 12414
SWIDTH 1000 0
DWIDTH 24 0
BBX 14 20 5 -3
BITMAP
0300
0300
0300
0370
FFF0
7300
0300
0300
7FF0
7FE0
0300
0300
0300
1F80
7BE0
C338
C31C
C708
7E00
0800
ENDCHAR
STARTCHAR 307F
ENCODING 12415
SWIDTH 1000 0
DWIDTH 24 0
BBX 18 16 3 -1
BITMAP
1FC000
1FC000
118000
018000
018600
030600
030600
1FF600
367C00
440F00
CC0F80
8C19C0
981880
F83800
703000
003000
ENDCHAR
STARTCHAR 3080
ENCODING 12416
SWIDTH 1000 0
DWIDTH 24 0
BBX 18 18 3 -2
BITMAP
060000
060000
064000
3FC300
060180
0600C0
060000
3E0000
6E0000
C60000
C60000
C60000
CE0000
7C0300
340300
040300
060600
03FC00
ENDCHAR
STARTCHAR 3081
ENCODING 12417
SWIDTH 1000 0
DWIDTH 24 0
BBX 18 17 3 -1
BITMAP
006000
006000
004000
21F000
3FFE00
3CC700
318380
7981C0
5900C0
CF00C0
CF00C0
8600C0
8F01C0
DF8380
790700
300E00
000400
ENDCHAR
STARTCHAR 3082
ENCODING 12418
SWIDTH 1000 0
DWIDTH 24 0
BBX 13 18 6 -2
BITMAP
0C00
0C00
0C00
6C00
7F00
1800
1800
1800
9800
FF00
3F30
1018
3018
3018
3018
3830
1C70
0FE0
ENDCHAR
STARTCHAR 3083
ENCODING 12419
SWIDTH 1000 0
DWIDTH 24 0
BBX 15 15 5 -2
BITMAP
0200
0300
6180
20F8
37CC
3CC6
3806
F804
085C
0C78
0400
0600
0600
0300
0200
ENDCHAR
STARTCHAR 3084
ENCODING 12420
SWIDTH 1000 0
DWIDTH 24 0
BBX 18 18 3 -2
BITMAP
00C000
20C000
706000
307F00
30FF80
1BF0C0
1F38C0
3C00C0
FC00C0
E601C0
061F80
061F00
030000
030000
018000
018000
01C000
00C000
ENDCHAR
STARTCHAR 3085
ENCODING 12421
SWIDTH 1000 0
DWIDTH 24 0
BBX 14 15 5 -3
BITMAP
0080
4080
6080
43F0
CC98
D88C
D08C
E08C
E08C
C498
47B0
41E0
0100
0300
0600
ENDCHAR
STARTCHAR 3086
ENCODING 12422
SWIDTH 1000 0
DWIDTH 24 0
BBX 16 19 4 -3
BITMAP
0040
0060
6060
E070
C1FC
C76E
CC67
D863
D063
F063
E063
E067
E366
E3FC
60F8
40C0
01C0
0380
0300
ENDCHAR
STARTCHAR 3087
ENCODING 12423
SWIDTH 1000 0
DWIDTH 24 0
BBX 11 14 7 -1
BITMAP
0C00
0400
0440
07C0
0400
0400
0400
0400
0400
3E00
C5C0
84E0
8C40
7800
ENDCHAR
STARTCHAR 3088
ENCODING 12424
SWIDTH 1000 0
DWIDTH 24 0
BBX 14 18 5 -1
BITMAP
0300
0300
0300
0308
03F8
03E0
0300
0300
0300
0300
0300
0300
3FC0
73F0
C338
C31C
7F08
3C00
ENDCHAR
STARTCHAR 3089
ENCODING 12425
SWIDTH 1000 0
DWIDTH 24 0
BBX 12 19 6 -1
BITMAP
1000
1C00
0600
0400
0000
6000
6000
6000
6000
6000
47C0
F860
6030
0030
0030
0070
00E0
0FC0
0E00
ENDCHAR
STARTCHAR 308A
ENCODING 12426
SWIDTH 1000 0
DWIDTH 24 0
BBX 11 18 6 -2
BITMAP
6040
6060
4060
4060
C060
C060
D060
D060
F060
E060
E060
60C0
00C0
00C0
0180
0180
0300
0300
ENDCHAR
STARTCHAR 308B
ENCODING 12427
SWIDTH 1000 0
DWIDTH 24 0
BBX 14 18 5 -1
BITMAP
0180
3FC0
3980
0300
0600
0600
0C00
1FF0
3C38
701C
E00C
C00C
070C
0DDC
18D8
0878
0FF0
07C0
ENDCHAR
STARTCHAR 308C
ENCODING 12428
SWIDTH 1000 0
DWIDTH 24 0
BBX 18 18 3 -2
BITMAP
180000
180000
180000
1E0000
1E3800
7CFC00
FB8C00
1E0C00
1C0C00
380C00
380C00
780C00
580C00
D80840
9808C0
180DC0
180F80
180700
ENDCHAR
STARTCHAR 308D
ENCODING 12429
SWIDTH 1000 0
DWIDTH 24 0
BBX 14 18 5 -3
BITMAP
0180
3FC0
3D80
0300
0300
0600
0C00
1FE0
1C38
3018
600C
C00C
000C
000C
0018
0078
03E0
0180
ENDCHAR
STARTCHAR 308E
ENCODING 12430
SWIDTH 1000 0
DWIDTH 24 0
BBX 14 14 5 -2
BITMAP
1800
1800
1400
1C00
F9F0
9618
1818
3008
300C
7008
5008
1018
1070
1060
ENDCHAR
STARTCHAR 308F
ENCODING 12431
SWIDTH 1000 0
DWIDTH 24 0
BBX 18 19 3 -2
BITMAP
080000
0C0000
0C0000
0D0000
0F0000
1E1E00
7E7F00
4DC380
0F0180
1C00C0
1C00C0
3C00C0
3C00C0
6C00C0
CC0180
0C0380
0C1F00
0C0E00
0C0000
ENDCHAR
STARTCHAR 3090
ENCODING 12432
SWIDTH 1000 0
DWIDTH 24 0
BBX 17 17 3 -1
BITMAP
00E000
0FE000
0C6000
00C000
00C000
008000
03F800
0F9E00
190300
330180
620180
660180
467180
CCCB80
4C8F00
78CE00
707C00
ENDCHAR
STARTCHAR 3091
ENCODING 12433
SWIDTH 1000 0
DWIDTH 24 0
BBX 16 19 4 -3
BITMAP
0060
0FF0
0E60
00C0
0180
03F8
071C
1C0C
380C
118C
0248
0258
01F0
0600
1C00
387C
77CE
E387
4182
ENDCHAR
STARTCHAR 3092
ENCODING 12434
SWIDTH 1000 0
DWIDTH 24 0
BBX 14 19 5 -3
BITMAP
0400
0400
0C00
7F80
7E00
1800
1000
3F00
319C
61FC
C1E0
C3C0
06C0
0CC0
0800
1800
0C00
0FF0
03E0
ENDCHAR
STARTCHAR 3093
ENCODING 12435
SWIDTH 1000 0
DWIDTH 24 0
BBX 16 18 4 -1
BITMAP
0180
0180
0180
0300
0300
0600
0600
0C00
0C00
0B80
1F80
1CC0
30C0
7043
6063
E066
C07C
4038
ENDCHAR
STARTCHAR 30A1
ENCODING 12449
SWIDTH 1000 0
DWIDTH 24 0
BBX 13 13 5 -1
BITMAP
FFF8
0018
0010
0630
0660
0780
0700
0600
0600
0400
0C00
1800
3000
ENDCHAR
STARTCHAR 30A2
ENCODING 12450
SWIDTH 1000 0
DWIDTH 24 0
BBX 16 17 4 -2
BITMAP
FFFE
FFFE
0007
000E
000C
0318
0370
03E0
0380
0300
0300
0600
0600
0600
0C00
3800
1000
ENDCHAR
STARTCHAR 30A3
ENCODING 12451
SWIDTH 1000 0
DWIDTH 24 0
BBX 10 15 7 -1
BITMAP
0040
00C0
0180
0300
0600
1E00
3E00
E600
8600
0600
0600
0600
0600
0600
0600
ENDCHAR
STARTCHAR 30A4
ENCODING 12452
SWIDTH 1000 0
DWIDTH 24 0
BBX 14 18 5 -2
BITMAP
0008
001C
0038
0070
00E0
01C0
0780
0F80
3D80
F180
6180
0180
0180
0180
0180
0180
0180
0180
ENDCHAR
STARTCHAR 30A5
ENCODING 12453
SWIDTH 1000 0
DWIDTH 24 0
BBX 12 15 6 -2
BITMAP
0600
0600
0600
FFF0
C030
C030
C020
C060
0060
0040
00C0
0180
0300
0E00
0400
ENDCHAR
STARTCHAR 30A6
ENCODING 12454
SWIDTH 1000 0
DWIDTH 24 0
BBX 14 18 5 -2
BITMAP
0300
0300
0300
FFFC
FFFC
C00C
C00C
C00C
C00C
0018
0018
0038
0030
0070
00E0
01C0
0780
0600
ENDCHAR
STARTCHAR 30A7
ENCODING 12455
SWIDTH 1000 0
DWIDTH 24 0
BBX 13 10 5 0
BITMAP
7FF0
0300
0300
0300
0300
0300
0300
0300
0300
FFF8
ENDCHAR
STARTCHAR 30A8
ENCODING 12456
SWIDTH 1000 0
DWIDTH 24 0
BBX 16 12 4 1
BITMAP
7FFC
7FFC
0180
0180
0180
0180
0180
0180
0180
0180
FFFF
FFFF
ENDCHAR
STARTCHAR 30A9
ENCODING 12457
SWIDTH 1000 0
DWIDTH 24 0
BBX 12 13 6 -1
BITMAP
0180
0180
0180
FFF0
0380
0780
0D80
1980
3180
E180
8180
0180
0700
ENDCHAR
STARTCHAR 30AA
ENCODING 12458
SWIDTH 1000 0
DWIDTH 24 0
BBX 16 18 4 -2
BITMAP
0060
0060
0060
0060
7FFF
7FFF
01E0
01E0
0360
0760
0E60
1C60
7860
E060
4060
0060
03E0
0180
ENDCHAR
STARTCHAR 30AB
ENCODING 12459
SWIDTH 1000 0
DWIDTH 24 0
BBX 14 18 5 -2
BITMAP
0600
0600
0600
0600
7FFC
7FFC
060C
060C
060C
0E0C
0C0C
0C0C
180C
3818
7018
E038
C0F8
00C0
ENDCHAR
STARTCHAR 30AC
ENCODING 12460
SWIDTH 1000 0
DWIDTH 24 0
BBX 18 19 3 -1
BITMAP
000180
060240
060340
060100
060000
7FFC00
7FFC00
060C00
060C00
060C00
0E0C00
0C0C00
0C0C00
180C00
381800
701800
E03800
C0F000
00C000
ENDCHAR
STARTCHAR 30AD
ENCODING 12461
SWIDTH 1000 0
DWIDTH 24 0
BBX 14 18 5 -2
BITMAP
0600
0600
0600
0678
0FF8
7F00
4300
0300
0300
037C
3FFC
FF00
0300
0180
0180
0180
0180
0180
ENDCHAR
STARTCHAR 30AE
ENCODING 12462
SWIDTH 1000 0
DWIDTH 24 0
BBX 18 20 3 -3
BITMAP
000100
000480
0606C0
060300
030000
033800
07F800
7F8000
630000
030000
018000
01BE00
1FFE00
FF8000
018000
018000
018000
01C000
00C000
00C000
ENDCHAR
STARTCHAR 30AF
ENCODING 12463
SWIDTH 1000 0
DWIDTH 24 0
BBX 14 18 5 -2
BITMAP
0300
0700
0600
0FF8
1FFC
380C
701C
E018
4030
0070
0060
00C0
0180
0380
0E00
1C00
7800
2000
ENDCHAR
STARTCHAR 30B0
ENCODING 12464
SWIDTH 1000 0
DWIDTH 24 0
BBX 19 19 2 -2
BITMAP
000040
018120
0300A0
0300C0
07FC00
0FFE00
180E00
380C00
F01C00
401800
003800
007000
00E000
00C000
038000
070000
0E0000
3C0000
100000
ENDCHAR
STARTCHAR 30B1
ENCODING 12465
SWIDTH 1000 0
DWIDTH 24 0
BBX 17 18 4 -2
BITMAP
030000
060000
060000
0FFF80
1FFF80
383000
303000
E03000
C03000
006000
006000
006000
00C000
00C000
018000
030000
0F0000
040000
ENDCHAR
STARTCHAR 30B2
ENCODING 12466
SWIDTH 1000 0
DWIDTH 24 0
BBX 19 20 2 -1
BITMAP
000040
020120
0600A0
060080
0C0000
0FFF00
1FFF00
383000
703000
E03000
403000
006000
006000
006000
00C000
00C000
018000
030000
0E0000
040000
ENDCHAR
STARTCHAR 30B3
ENCODING 12467
SWIDTH 1000 0
DWIDTH 24 0
BBX 13 13 6 -1
BITMAP
FFF8
FFF8
0018
0018
0018
0018
0018
0018
0018
0018
FFF8
FFF8
0018
ENDCHAR
STARTCHAR 30B4
ENCODING 12468
SWIDTH 1000 0
DWIDTH 24 0
BBX 17 18 3 -1
BITMAP
000100
000580
000680
000300
000000
FFF800
FFF800
001800
001800
001800
001800
001800
001800
001800
001800
FFF800
FFF800
001800
ENDCHAR
STARTCHAR 30B5
ENCODING 12469
SWIDTH 1000 0
DWIDTH 24 0
BBX 17 18 3 -2
BITMAP
0C1800
0C1800
0C1800
0C1800
FFFF80
FFFF80
0C1800
0C1800
0C1800
0C1800
0C3000
003000
003000
006000
00E000
01C000
038000
010000
ENDCHAR
STARTCHAR 30B6
ENCODING 12470
SWIDTH 1000 0
DWIDTH 24 0
BBX 20 19 2 -2
BITMAP
000020
0C18B0
0C18C0
0C1800
0C1800
FFFF80
FFFF80
0C1800
0C1800
0C1800
0C1800
0C3000
003000
007000
006000
00E000
01C000
038000
010000
ENDCHAR
STARTCHAR 30B7
ENCODING 12471
SWIDTH 1000 0
DWIDTH 24 0
BBX 16 16 4 0
BITMAP
1800
0C00
0600
0000
C000
E003
3007
100E
001C
0030
00E0
03C0
0700
3E00
7800
2000
ENDCHAR
STARTCHAR 30B8
ENCODING 12472
SWIDTH 1000 0
DWIDTH 24 0
BBX 16 17 4 0
BITMAP
0006
181B
0C0D
0604
0000
8000
E003
3006
100E
001C
0070
00E0
03C0
0700
1E00
7800
2000
ENDCHAR
STARTCHAR 30B9
ENCODING 12473
SWIDTH 1000 0
DWIDTH 24 0
BBX 15 14 4 -1
BITMAP
3FE0
3FF0
0038
0030
0070
0060
00C0
01E0
03B0
0718
0E0C
380E
F006
6000
ENDCHAR
STARTCHAR 30BA
ENCODING 12474
SWIDTH 1000 0
DWIDTH 24 0
BBX 16 17 4 0
BITMAP
0002
0009
0004
7FC0
7FE0
0070
0060
00E0
00C0
0180
03C0
0760
0E30
1C18
781C
E00C
C000
ENDCHAR
STARTCHAR 30BB
ENCODING 12475
SWIDTH 1000 0
DWIDTH 24 0
BBX 16 17 4 -2
BITMAP
0C00
0C00
0C00
0C00
0C3E
0FFB
7F87
FC06
0C0C
0C18
0C10
0C00
0C00
0C00
0C00
0FFF
07FE
ENDCHAR
STARTCHAR 30BC
ENCODING 12476
SWIDTH 1000 0
DWIDTH 24 0
BBX 19 18 2 -1
BITMAP
000040
0C01A0
0C0080
0C0000
0C0000
0C3F00
0FFB00
7F8700
FC0600
0C0C00
0C1800
0C1800
0C0000
0C0000
0C0000
0C0000
0FFF00
07FE00
ENDCHAR
STARTCHAR 30BD
ENCODING 12477
SWIDTH 1000 0
DWIDTH 24 0
BBX 14 16 5 -1
BITMAP
800C
C00C
E00C
601C
3018
2018
0030
0030
0060
00E0
00C0
0180
0300
0700
1E00
1800
ENDCHAR
STARTCHAR 30BE
ENCODING 12478
SWIDTH 1000 0
DWIDTH 24 0
BBX 19 19 2 -1
BITMAP
000040
000120
000080
000040
C00600
600C00
300C00
300C00
101800
001800
003000
007000
006000
00C000
01C000
038000
070000
0E0000
0C0000
ENDCHAR
STARTCHAR 30BF
ENCODING 12479
SWIDTH 1000 0
DWIDTH 24 0
BBX 14 19 5 -2
BITMAP
0200
0300
0600
0FF8
1FFC
380C
701C
E018
C038
0630
0760
03E0
01C0
03E0
0770
1E30
3C20
7000
4000
ENDCHAR
STARTCHAR 30C0
ENCODING 12480
SWIDTH 1000 0
DWIDTH 24 0
BBX 19 19 2 -2
BITMAP
000040
018120
030080
070000
07FC00
0FFE00
180E00
380C00
F01C00
421800
073000
03F000
01E000
01E000
03F000
073800
0E1000
3C0000
300000
ENDCHAR
STARTCHAR 30C1
ENCODING 12481
SWIDTH 1000 0
DWIDTH 24 0
BBX 17 18 3 -2
BITMAP
001C00
07FC00
1FC000
00C000
00C000
00C000
FFFF80
FFFF80
00C000
00C000
00C000
018000
018000
038000
030000
060000
1C0000
180000
ENDCHAR
STARTCHAR 30C2
ENCODING 12482
SWIDTH 1000 0
DWIDTH 24 0
BBX 20 19 2 -3
BITMAP
000C00
00FC00
1FE060
00C0B0
00C0C0
00C000
00C000
FFFF00
FFFF00
00C000
00C000
00C000
018000
018000
030000
070000
0E0000
1C0000
180000
ENDCHAR
STARTCHAR 30C3
ENCODING 12483
SWIDTH 1000 0
DWIDTH 24 0
BBX 13 12 6 -1
BITMAP
8C18
8410
C630
C030
0060
00C0
00C0
0180
0300
0600
0C00
1800
ENDCHAR
STARTCHAR 30C4
ENCODING 12484
SWIDTH 1000 0
DWIDTH 24 0
BBX 16 16 4 -1
BITMAP
0302
C303
C103
6186
6106
200C
000C
0018
0038
0030
0060
00C0
01C0
0380
0F00
0C00
ENDCHAR
STARTCHAR 30C5
ENCODING 12485
SWIDTH 1000 0
DWIDTH 24 0
BBX 20 18 2 -1
BITMAP
000020
000090
020040
830200
C30700
618600
618600
300C00
000C00
001800
003800
003000
006000
00E000
01C000
038000
0F0000
0C0000
ENDCHAR
STARTCHAR 30C6
ENCODING 12486
SWIDTH 1000 0
DWIDTH 24 0
BBX 16 18 4 -3
BITMAP
1FF8
1FF8
0000
0000
0000
FFFF
FFFF
0180
0180
0180
0180
0380
0300
0300
0600
0E00
1C00
1800
ENDCHAR
STARTCHAR 30C7
ENCODING 12487
SWIDTH 1000 0
DWIDTH 24 0
BBX 19 20 2 -2
BITMAP
000040
000120
1FF880
1FF880
000000
000000
000000
FFFF00
FFFF00
018000
018000
018000
018000
018000
030000
030000
060000
0E0000
1C0000
180000
ENDCHAR
STARTCHAR 30C8
ENCODING 12488
SWIDTH 1000 0
DWIDTH 24 0
BBX 8 18 8 -2
BITMAP
C0
C0
C0
C0
C0
C0
F0
DC
CF
C3
C0
C0
C0
C0
C0
C0
C0
C0
ENDCHAR
STARTCHAR 30C9
ENCODING 12489
SWIDTH 1000 0
DWIDTH 24 0
BBX 11 19 7 -2
BITMAP
0080
C240
C120
C080
C000
C000
C000
F000
DC00
CF00
C300
C000
C000
C000
C000
C000
C000
C000
C000
ENDCHAR
STARTCHAR 30CA
ENCODING 12490
SWIDTH 1000 0
DWIDTH 24 0
BBX 17 18 3 -1
BITMAP
00C000
00C000
00C000
00C000
FFFF80
FFFF80
00C000
00C000
00C000
00C000
00C000
018000
018000
030000
030000
0E0000
1C0000
080000
ENDCHAR
STARTCHAR 30CB
ENCODING 12491
SWIDTH 1000 0
DWIDTH 24 0
BBX 15 13 4 1
BITMAP
3FF8
3FF8
0000
0000
0000
0000
0000
0000
0000
0000
0000
FFFE
FFFE
ENDCHAR
STARTCHAR 30CC
ENCODING 12492
SWIDTH 1000 0
DWIDTH 24 0
BBX 13 16 6 -2
BITMAP
7FE0
7FF8
0030
0030
0070
1060
38E0
0FC0
0780
0380
07C0
0EE0
1C70
7830
E000
C000
ENDCHAR
STARTCHAR 30CD
ENCODING 12493
SWIDTH 1000 0
DWIDTH 24 0
BBX 16 20 4 -2
BITMAP
0180
0180
0180
3FF0
3FF8
0018
0038
0070
00E0
01C0
0798
1F8E
FD87
E183
0180
0180
0180
0180
0180
0180
ENDCHAR
STARTCHAR 30CE
ENCODING 12494
SWIDTH 1000 0
DWIDTH 24 0
BBX 13 16 6 -1
BITMAP
0038
0030
0030
0060
0060
00C0
01C0
0180
0300
0700
0E00
0C00
3800
7000
E000
C000
ENDCHAR
STARTCHAR 30CF
ENCODING 12495
SWIDTH 1000 0
DWIDTH 24 0
BBX 17 11 4 2
BITMAP
001000
0C1800
0C1800
0C0C00
180E00
180600
300700
700300
600300
C00380
C00000
ENDCHAR
STARTCHAR 30D0
ENCODING 12496
SWIDTH 1000 0
DWIDTH 24 0
BBX 18 14 3 2
BITMAP
000080
000240
000100
001000
041800
0C1800
0C0C00
180E00
180600
300600
300300
600300
E00380
C00100
ENDCHAR
STARTCHAR 30D1
ENCODING 12497
SWIDTH 1000 0
DWIDTH 24 0
BBX 20 16 2 1
BITMAP
0000C0
000120
000110
000110
0008E0
061C00
060C00
060600
0C0600
0C0300
180300
380180
300180
6001C0
E00080
400000
ENDCHAR
STARTCHAR 30D2
ENCODING 12498
SWIDTH 1000 0
DWIDTH 24 0
BBX 13 16 6 -1
BITMAP
C000
C000
C020
C0F0
C3C0
DF00
F800
C000
C000
C000
C000
C000
C000
C000
FFF8
7FF0
ENDCHAR
STARTCHAR 30D3
ENCODING 12499
SWIDTH 1000 0
DWIDTH 24 0
BBX 16 19 4 -2
BITMAP
0004
0006
001B
C00C
C000
C020
C070
C1E0
CF80
FC00
E000
C000
C000
C000
C000
C000
C000
FFF8
7FF0
ENDCHAR
STARTCHAR 30D4
ENCODING 12500
SWIDTH 1000 0
DWIDTH 24 0
BBX 16 19 4 -2
BITMAP
000E
0011
0011
C011
C00E
C000
C060
C1E0
C780
FE00
F000
C000
C000
C000
C000
C000
C000
FFF0
7FF0
ENDCHAR
STARTCHAR 30D5
ENCODING 12501
SWIDTH 1000 0
DWIDTH 24 0
BBX 14 16 5 -2
BITMAP
FFF8
FFFC
000C
000C
0018
0018
0038
0030
0060
00E0
01C0
0380
0700
1E00
3C00
1000
ENDCHAR
STARTCHAR 30D6
ENCODING 12502
SWIDTH 1000 0
DWIDTH 24 0
BBX 18 20 3 -2
BITMAP
000100
000480
000340
000100
FFF800
FFFC00
000C00
000C00
001C00
001800
003800
003000
006000
00E000
01C000
038000
070000
1E0000
380000
100000
ENDCHAR
STARTCHAR 30D7
ENCODING 12503
SWIDTH 1000 0
DWIDTH 24 0
BBX 18 21 3 -2
BITMAP
000180
000240
000240
000240
000180
FFF800
FFFC00
000C00
000C00
001C00
001800
003800
003000
007000
00E000
01C000
038000
070000
1E0000
380000
100000
ENDCHAR
STARTCHAR 30D8
ENCODING 12504
SWIDTH 1000 0
DWIDTH 24 0
BBX 18 10 3 1
BITMAP
040000
0F0000
198000
30E000
607000
E01800
C00E00
000780
0001C0
0000C0
ENDCHAR
STARTCHAR 30D9
ENCODING 12505
SWIDTH 1000 0
DWIDTH 24 0
BBX 18 12 3 1
BITMAP
000300
000180
000680
0F0300
1B8000
30C000
707000
E03800
C00E00
000780
0001C0
0000C0
ENDCHAR
STARTCHAR 30DA
ENCODING 12506
SWIDTH 1000 0
DWIDTH 24 0
BBX 18 13 3 2
BITMAP
000300
000480
000480
060480
0F0300
198000
30E000
607000
C01C00
C00E00
000780
0001C0
000080
ENDCHAR
STARTCHAR 30DB
ENCODING 12507
SWIDTH 1000 0
DWIDTH 24 0
BBX 17 18 3 -2
BITMAP
00C000
00C000
00C000
00C000
7FFF00
7FFF00
00C000
00C000
00C400
18C600
18C600
30C300
60C180
E0C180
40C000
00C000
03C000
038000
ENDCHAR
STARTCHAR 30DC
ENCODING 12508
SWIDTH 1000 0
DWIDTH 24 0
BBX 18 20 3 -2
BITMAP
000100
000080
00C240
00C100
00C000
00C000
7FFF00
7FFF00
00C000
00C000
00C400
18C600
18C600
30C300
60C180
E0C180
40C000
00C000
03C000
038000
ENDCHAR
STARTCHAR 30DD
ENCODING 12509
SWIDTH 1000 0
DWIDTH 24 0
BBX 18 20 3 -3
BITMAP
000180
000240
00C240
00C180
00C000
00C000
7FFF00
7FFF00
00C000
00C000
00C400
18C600
18C600
30C300
60C180
E0C180
40C000
00C000
03C000
038000
ENDCHAR
STARTCHAR 30DE
ENCODING 12510
SWIDTH 1000 0
DWIDTH 24 0
BBX 16 13 4 -1
BITMAP
FFFE
FFFF
0006
000E
000C
0018
0830
0E60
07C0
0380
01C0
00E0
0060
ENDCHAR
STARTCHAR 30DF
ENCODING 12511
SWIDTH 1000 0
DWIDTH 24 0
BBX 10 17 7 -2
BITMAP
2000
3C00
0F00
0300
0000
0000
7800
3E00
0700
0200
0000
0000
F000
3E00
0F80
03C0
0080
ENDCHAR
STARTCHAR 30E0
ENCODING 12512
SWIDTH 1000 0
DWIDTH 24 0
BBX 18 15 3 0
BITMAP
01C000
018000
018000
038000
030000
030000
070000
060000
0E0C00
0C0600
1C0300
180380
303F80
FFFFC0
FF80C0
ENDCHAR
STARTCHAR 30E1
ENCODING 12513
SWIDTH 1000 0
DWIDTH 24 0
BBX 14 16 5 0
BITMAP
000C
000C
0018
0038
0430
0770
03E0
00E0
01F0
03B0
0738
0E10
3C00
7000
E000
4000
ENDCHAR
STARTCHAR 30E2
ENCODING 12514
SWIDTH 1000 0
DWIDTH 24 0
BBX 16 16 4 -2
BITMAP
3FFC
3FFC
0300
0300
0300
0300
FFFF
FFFF
0300
0300
0300
0300
0300
0300
03FE
01FE
ENDCHAR
STARTCHAR 30E3
ENCODING 12515
SWIDTH 1000 0
DWIDTH 24 0
BBX 14 15 5 -2
BITMAP
0800
1800
0800
08F8
0FCC
FC18
4C10
0430
0620
0600
0600
0600
0200
0300
0300
ENDCHAR
STARTCHAR 30E4
ENCODING 12516
SWIDTH 1000 0
DWIDTH 24 0
BBX 16 18 4 -2
BITMAP
0C00
0C00
0C00
0C0E
0FFF
1FF3
FE06
C606
060C
0718
0300
0300
0300
0300
0380
0180
0180
0180
ENDCHAR
STARTCHAR 30E5
ENCODING 12517
SWIDTH 1000 0
DWIDTH 24 0
BBX 14 10 5 -1
BITMAP
3FE0
0060
0060
0060
0060
0060
0060
0060
0040
FFFC
ENDCHAR
STARTCHAR 30E6
ENCODING 12518
SWIDTH 1000 0
DWIDTH 24 0
BBX 18 13 3 1
BITMAP
1FFC00
1FFC00
000C00
001C00
001C00
001C00
001800
001800
001800
001800
001800
FFFFC0
FFFFC0
ENDCHAR
STARTCHAR 30E7
ENCODING 12519
SWIDTH 1000 0
DWIDTH 24 0
BBX 11 11 6 -1
BITMAP
FFE0
0060
0060
0060
7FE0
0060
0060
0060
0060
FFE0
0060
ENDCHAR
STARTCHAR 30E8
ENCODING 12520
SWIDTH 1000 0
DWIDTH 24 0
BBX 13 15 6 -1
BITMAP
FFF8
FFF8
0018
0018
0018
0018
FFF8
FFF8
0018
0018
0018
0018
FFF8
FFF8
0018
ENDCHAR
STARTCHAR 30E9
ENCODING 12521
SWIDTH 1000 0
DWIDTH 24 0
BBX 14 18 5 -3
BITMAP
3FE0
3FE0
0000
0000
0000
FFF0
FFF8
001C
0018
0038
0030
0070
0060
00C0
0180
0700
1E00
0C00
ENDCHAR
STARTCHAR 30EA
ENCODING 12522
SWIDTH 1000 0
DWIDTH 24 0
BBX 10 18 7 -2
BITMAP
C0C0
C0C0
C0C0
C0C0
C0C0
C0C0
C0C0
C0C0
C0C0
C0C0
0180
0180
0380
0300
0700
0E00
1C00
0800
ENDCHAR
STARTCHAR 30EB
ENCODING 12523
SWIDTH 1000 0
DWIDTH 24 0
BBX 18 16 3 -1
BITMAP
18C000
18C000
18C000
18C000
18C000
18C000
18C080
18C0C0
18C180
18C380
30C300
30CE00
70DC00
60F800
C0F000
804000
ENDCHAR
STARTCHAR 30EC
ENCODING 12524
SWIDTH 1000 0
DWIDTH 24 0
BBX 14 16 5 0
BITMAP
C000
C000
C000
C000
C000
C000
C000
C00C
C01C
C038
C0E0
C1C0
C780
DE00
F800
6000
ENDCHAR
STARTCHAR 30ED
ENCODING 12525
SWIDTH 1000 0
DWIDTH 24 0
BBX 13 14 5 -1
BITMAP
FFF8
FFF8
C018
C018
C018
C018
C018
C018
C018
C018
C018
FFF8
FFF8
C018
ENDCHAR
STARTCHAR 30EE
ENCODING 12526
SWIDTH 1000 0
DWIDTH 24 0
BBX 12 13 6 -2
BITMAP
FFF0
C030
C030
C030
C030
C020
0060
0060
00C0
00C0
0180
0300
0600
ENDCHAR
STARTCHAR 30EF
ENCODING 12527
SWIDTH 1000 0
DWIDTH 24 0
BBX 14 17 5 -2
BITMAP
FFFC
FFFC
C00C
C00C
C00C
C00C
C00C
C018
0018
0018
0038
0030
0070
00E0
01C0
0380
0300
ENDCHAR
STARTCHAR 30F0
ENCODING 12528
SWIDTH 1000 0
DWIDTH 24 0
BBX 17 19 3 -2
BITMAP
003000
003000
003000
003000
7FFF00
7FFF00
183000
183000
183000
183000
183000
183000
FFFF80
FFFF80
003000
003000
003000
003000
003000
ENDCHAR
STARTCHAR 30F1
ENCODING 12529
SWIDTH 1000 0
DWIDTH 24 0
BBX 17 15 3 0
BITMAP
3FFC00
3FFF00
000300
000600
000E00
001C00
01B800
01F000
01E000
018000
018000
018000
018000
FFFF80
FFFF80
ENDCHAR
STARTCHAR 30F2
ENCODING 12530
SWIDTH 1000 0
DWIDTH 24 0
BBX 14 16 5 -2
BITMAP
7FF0
7FFC
000C
001C
0018
FFF8
FFF8
0030
0070
00E0
00C0
01C0
0780
0E00
3C00
1000
ENDCHAR
STARTCHAR 30F3
ENCODING 12531
SWIDTH 1000 0
DWIDTH 24 0
BBX 15 16 5 0
BITMAP
8000
C000
7000
3000
0004
000E
001C
0038
0070
01C0
0380
0F00
1C00
F800
E000
8000
ENDCHAR
STARTCHAR 30F4
ENCODING 12532
SWIDTH 1000 0
DWIDTH 24 0
BBX 18 19 3 -2
BITMAP
0000C0
030240
030180
030000
FFFC00
FFFC00
C00C00
C00C00
C00C00
C00C00
001800
001800
003800
003000
007000
00E000
01C000
078000
060000
ENDCHAR
STARTCHAR 30F5
ENCODING 12533
SWIDTH 1000 0
DWIDTH 24 0
BBX 12 13 6 -1
BITMAP
0C00
0C00
0C00
7FF0
0C30
0C30
0C20
0C20
1820
1820
3060
6060
C1C0
ENDCHAR
STARTCHAR 30F6
ENCODING 12534
SWIDTH 1000 0
DWIDTH 24 0
BBX 14 14 5 -2
BITMAP
0C00
0C00
1800
1FFC
30C0
60C0
C0C0
00C0
0180
0180
0180
0300
0600
0C00
ENDCHAR
STARTCHAR 30FB
ENCODING 12539
SWIDTH 1000 0
DWIDTH 24 0
BBX 3 3 11 7
BITMAP
C0
E0
E0
ENDCHAR
STARTCHAR 30FC
ENCODING 12540
SWIDTH 1000 0
DWIDTH 24 0
BBX 21 1 2 7
BITMAP
FFFFF8
ENDCHAR
STARTCHAR 3131
ENCODING 12593
SWIDTH 1000 0
DWIDTH 24 0
BBX 12 10 6 2
BITMAP
FFF0
0030
0030
0030
0030
0030
0030
0030
0030
0030
ENDCHAR
STARTCHAR 3132
ENCODING 12594
SWIDTH 1000 0
DWIDTH 24 0
BBX 15 10 5 2
BITMAP
FEFE
0606
0606
0606
0606
0606
0606
0606
0606
0606
ENDCHAR
STARTCHAR 3133
ENCODING 12595
SWIDTH 1000 0
DWIDTH 24 0
BBX 16 11 4 1
BITMAP
0018
FE18
0618
0618
0618
0638
063C
0664
0666
06C3
0781
ENDCHAR
STARTCHAR 3134
ENCODING 12596
SWIDTH 1000 0
DWIDTH 24 0
BBX 12 10 6 3
BITMAP
C000
C000
C000
C000
C000
C000
C000
C000
C000
FFF0
ENDCHAR
STARTCHAR 3135
ENCODING 12597
SWIDTH 1000 0
DWIDTH 24 0
BBX 17 9 3 3
BITMAP
C0FF00
C00200
C00600
C00400
C00C00
C01C00
C03600
C06380
FEC180
ENDCHAR
STARTCHAR 3136
ENCODING 12598
SWIDTH 1000 0
DWIDTH 24 0
BBX 16 11 4 2
BITMAP
00FC
C000
C1FF
C000
C000
C07C
C0C6
C086
C086
FEC6
007C
ENDCHAR
STARTCHAR 3137
ENCODING 12599
SWIDTH 1000 0
DWIDTH 24 0
BBX 12 9 6 3
BITMAP
FFF0
C000
C000
C000
C000
C000
C000
C000
FFF0
ENDCHAR
STARTCHAR 3138
ENCODING 12600
SWIDTH 1000 0
DWIDTH 24 0
BBX 15 9 5 3
BITMAP
FFFC
C180
C180
C180
C180
C180
C180
C180
FFFE
ENDCHAR
STARTCHAR 3139
ENCODING 12601
SWIDTH 1000 0
DWIDTH 24 0
BBX 12 10 6 3
BITMAP
FFF0
0030
0030
0030
FFF0
C000
C000
C000
C000
FFF0
ENDCHAR
STARTCHAR 313A
ENCODING 12602
SWIDTH 1000 0
DWIDTH 24 0
BBX 14 10 5 2
BITMAP
FFF8
060C
060C
060C
FC0C
C00C
C00C
C00C
C00C
FE0C
ENDCHAR
STARTCHAR 313B
ENCODING 12603
SWIDTH 1000 0
DWIDTH 24 0
BBX 14 10 5 3
BITMAP
FCFC
068C
068C
068C
FC8C
C08C
C08C
C08C
C68C
FEFC
ENDCHAR
STARTCHAR 313C
ENCODING 12604
SWIDTH 1000 0
DWIDTH 24 0
BBX 14 10 5 2
BITMAP
FD8C
078C
078C
07FC
FD8C
C18C
C18C
C18C
C38C
FEFC
ENDCHAR
STARTCHAR 313D
ENCODING 12605
SWIDTH 1000 0
DWIDTH 24 0
BBX 16 10 4 2
BITMAP
FC18
0610
0610
0618
FC38
C038
C06C
C046
C0C3
FF81
ENDCHAR
STARTCHAR 313E
ENCODING 12606
SWIDTH 1000 0
DWIDTH 24 0
BBX 15 10 5 2
BITMAP
FCFC
06C0
06C0
06C0
FCFC
C0C0
C0C0
C0C0
C6C0
FEFE
ENDCHAR
STARTCHAR 313F
ENCODING 12607
SWIDTH 1000 0
DWIDTH 24 0
BBX 16 11 4 1
BITMAP
FE00
06FF
0666
0666
0666
7E66
C066
C066
C066
C266
7EFF
ENDCHAR
STARTCHAR 3140
ENCODING 12608
SWIDTH 1000 0
DWIDTH 24 0
BBX 16 11 4 2
BITMAP
FC7E
0600
07FF
0600
0600
FC7C
C0C6
C0C3
C0C3
C0C6
FE7C
ENDCHAR
STARTCHAR 3141
ENCODING 12609
SWIDTH 1000 0
DWIDTH 24 0
BBX 12 9 6 3
BITMAP
FFF0
C030
C030
C030
C030
C030
C030
C030
FFF0
ENDCHAR
STARTCHAR 3142
ENCODING 12610
SWIDTH 1000 0
DWIDTH 24 0
BBX 12 10 6 3
BITMAP
C030
C030
C030
FFF0
C030
C030
C030
C030
C030
FFF0
ENDCHAR
STARTCHAR 3143
ENCODING 12611
SWIDTH 1000 0
DWIDTH 24 0
BBX 14 11 5 2
BITMAP
8480
8484
8484
8484
FCFC
8484
8484
8484
8484
C48C
FCFC
ENDCHAR
STARTCHAR 3144
ENCODING 12612
SWIDTH 1000 0
DWIDTH 24 0
BBX 16 11 4 2
BITMAP
8410
C430
C430
C430
FC30
C438
C468
C44C
C4C6
C583
FD00
ENDCHAR
STARTCHAR 3145
ENCODING 12613
SWIDTH 1000 0
DWIDTH 24 0
BBX 13 11 5 1
BITMAP
0300
0300
0300
0300
0300
0700
0D80
0CC0
1860
7038
E008
ENDCHAR
STARTCHAR 3146
ENCODING 12614
SWIDTH 1000 0
DWIDTH 24 0
BBX 16 11 4 1
BITMAP
0C30
0C30
0C30
0C30
1C70
1E78
334C
61C6
C183
8300
0600
ENDCHAR
STARTCHAR 3147
ENCODING 12615
SWIDTH 1000 0
DWIDTH 24 0
BBX 12 11 6 2
BITMAP
1F00
3FC0
70E0
C030
C030
C030
C030
C070
70E0
3FC0
1F80
ENDCHAR
STARTCHAR 3148
ENCODING 12616
SWIDTH 1000 0
DWIDTH 24 0
BBX 16 11 4 1
BITMAP
7FF8
0018
0038
0070
00E0
01C0
03C0
06E0
1C38
700F
E002
ENDCHAR
STARTCHAR 3149
ENCODING 12617
SWIDTH 1000 0
DWIDTH 24 0
BBX 16 11 4 1
BITMAP
7EFC
0204
060C
0C0C
0C18
1C30
3738
61EE
C0C3
8181
0300
ENDCHAR
STARTCHAR 314A
ENCODING 12618
SWIDTH 1000 0
DWIDTH 24 0
BBX 14 12 5 2
BITMAP
0FC0
0000
0000
7FF8
0018
0038
0060
00C0
03C0
0E60
3C38
E00C
ENDCHAR
STARTCHAR 314B
ENCODING 12619
SWIDTH 1000 0
DWIDTH 24 0
BBX 12 11 6 2
BITMAP
FFF0
0030
0030
0030
0030
FFF0
0030
0030
0030
0030
0030
ENDCHAR
STARTCHAR 314C
ENCODING 12620
SWIDTH 1000 0
DWIDTH 24 0
BBX 12 10 6 3
BITMAP
FFF0
C000
C000
C000
FFF0
C000
C000
C000
C000
FFF0
ENDCHAR
STARTCHAR 314D
ENCODING 12621
SWIDTH 1000 0
DWIDTH 24 0
BBX 14 11 5 2
BITMAP
7FF8
1860
1860
1860
1860
1860
1860
1860
1860
1860
FFFC
ENDCHAR
STARTCHAR 314E
ENCODING 12622
SWIDTH 1000 0
DWIDTH 24 0
BBX 13 13 5 0
BITMAP
1FC0
0000
0000
FFF8
0000
0000
1FC0
3060
6030
6030
2030
3060
0FC0
ENDCHAR
STARTCHAR 314F
ENCODING 12623
SWIDTH 1000 0
DWIDTH 24 0
BBX 6 22 9 -4
BITMAP
C0
C0
C0
C0
C0
C0
C0
C0
C0
C0
FC
C0
C0
C0
C0
C0
C0
C0
C0
C0
C0
C0
ENDCHAR
STARTCHAR 3150
ENCODING 12624
SWIDTH 1000 0
DWIDTH 24 0
BBX 8 22 8 -4
BITMAP
03
C3
C3
C3
C3
C3
C3
C3
C3
C3
FF
C3
C3
C3
C3
C3
C3
C3
C3
C3
C3
C3
ENDCHAR
STARTCHAR 3151
ENCODING 12625
SWIDTH 1000 0
DWIDTH 24 0
BBX 6 22 9 -4
BITMAP
C0
C0
C0
C0
C0
C0
C0
FC
C0
C0
C0
C0
C0
C0
FC
C0
C0
C0
C0
C0
C0
C0
ENDCHAR
STARTCHAR 3152
ENCODING 12626
SWIDTH 1000 0
DWIDTH 24 0
BBX 8 22 8 -4
BITMAP
03
C3
C3
C3
C3
C3
C3
FF
C3
C3
C3
C3
C3
FF
C3
C3
C3
C3
C3
C3
C3
C3
ENDCHAR
STARTCHAR 3153
ENCODING 12627
SWIDTH 1000 0
DWIDTH 24 0
BBX 7 22 8 -4
BITMAP
06
06
06
06
06
06
06
06
06
06
FE
06
06
06
06
06
06
06
06
06
06
06
ENDCHAR
STARTCHAR 3154
ENCODING 12628
SWIDTH 1000 0
DWIDTH 24 0
BBX 10 22 7 -4
BITMAP
00C0
0CC0
0CC0
0CC0
0CC0
0CC0
0CC0
0CC0
0CC0
0CC0
FCC0
0CC0
0CC0
0CC0
0CC0
0CC0
0CC0
0CC0
0CC0
0CC0
0CC0
0CC0
ENDCHAR
STARTCHAR 3155
ENCODING 12629
SWIDTH 1000 0
DWIDTH 24 0
BBX 7 22 8 -4
BITMAP
06
06
06
06
06
06
06
FE
06
06
06
06
06
FE
06
06
06
06
06
06
06
06
ENDCHAR
STARTCHAR 3156
ENCODING 12630
SWIDTH 1000 0
DWIDTH 24 0
BBX 10 22 7 -4
BITMAP
00C0
0CC0
0CC0
0CC0
0CC0
0CC0
0CC0
FCC0
0CC0
0CC0
0CC0
0CC0
0CC0
0CC0
FCC0
0CC0
0CC0
0CC0
0CC0
0CC0
0CC0
0CC0
ENDCHAR
STARTCHAR 3157
ENCODING 12631
SWIDTH 1000 0
DWIDTH 24 0
BBX 21 9 2 1
BITMAP
006000
006000
006000
006000
006000
006000
006000
006000
FFFFF8
ENDCHAR
STARTCHAR 3158
ENCODING 12632
SWIDTH 1000 0
DWIDTH 24 0
BBX 21 22 2 -4
BITMAP
000180
000180
000180
000180
000180
000180
000180
000180
000180
060180
0601F8
060180
060180
060180
060180
061D80
FFFD80
000180
000180
000180
000180
000180
ENDCHAR
STARTCHAR 3159
ENCODING 12633
SWIDTH 1000 0
DWIDTH 24 0
BBX 20 22 2 -4
BITMAP
000030
000630
000630
000630
000630
000630
000630
000630
000630
030630
0307F0
030630
030630
030630
030630
031E30
FFFE30
000630
000630
000630
000630
000630
ENDCHAR
STARTCHAR 315A
ENCODING 12634
SWIDTH 1000 0
DWIDTH 24 0
BBX 18 22 3 -4
BITMAP
0000C0
0000C0
0000C0
0000C0
0000C0
0000C0
0000C0
0000C0
0000C0
0180C0
0180C0
0180C0
0180C0
0180C0
0180C0
018EC0
FFFEC0
0000C0
0000C0
0000C0
0000C0
0000C0
ENDCHAR
STARTCHAR 315B
ENCODING 12635
SWIDTH 1000 0
DWIDTH 24 0
BBX 21 9 2 1
BITMAP
030600
030600
030600
030600
030600
030600
030600
030600
FFFFF8
ENDCHAR
STARTCHAR 315C
ENCODING 12636
SWIDTH 1000 0
DWIDTH 24 0
BBX 21 11 2 0
BITMAP
FFFFF8
006000
006000
006000
006000
006000
006000
006000
006000
006000
006000
ENDCHAR
STARTCHAR 315D
ENCODING 12637
SWIDTH 1000 0
DWIDTH 24 0
BBX 18 22 3 -4
BITMAP
0000C0
0000C0
0000C0
0000C0
0000C0
0000C0
0000C0
0000C0
0000C0
0000C0
000EC0
FFFCC0
C300C0
0300C0
0300C0
031FC0
0300C0
0300C0
0300C0
0300C0
0300C0
0000C0
ENDCHAR
STARTCHAR 315E
ENCODING 12638
SWIDTH 1000 0
DWIDTH 24 0
BBX 20 22 2 -4
BITMAP
000030
000630
000630
000630
000630
000630
000630
000630
000630
000630
003630
FFF630
060630
060630
060630
067E30
060630
060630
060630
060630
060630
000630
ENDCHAR
STARTCHAR 315F
ENCODING 12639
SWIDTH 1000 0
DWIDTH 24 0
BBX 18 22 3 -4
BITMAP
0000C0
0000C0
0000C0
0000C0
0000C0
0000C0
0000C0
0000C0
0000C0
0000C0
000EC0
FFFEC0
E300C0
0300C0
0300C0
0300C0
0300C0
0300C0
0300C0
0300C0
0300C0
0000C0
ENDCHAR
STARTCHAR 3160
ENCODING 12640
SWIDTH 1000 0
DWIDTH 24 0
BBX 21 11 2 -1
BITMAP
FFFFF8
060600
060600
060600
060600
060600
060600
060600
060600
060600
060600
ENDCHAR
STARTCHAR 3161
ENCODING 12641
SWIDTH 1000 0
DWIDTH 24 0
BBX 21 1 2 6
BITMAP
FFFFF8
ENDCHAR
STARTCHAR 3162
ENCODING 12642
SWIDTH 1000 0
DWIDTH 24 0
BBX 18 22 3 -4
BITMAP
0000C0
0000C0
0000C0
0000C0
0000C0
0000C0
0000C0
0000C0
0000C0
0000C0
0000C0
0000C0
0000C0
0000C0
00FEC0
FFF0C0
0000C0
0000C0
0000C0
0000C0
0000C0
0000C0
ENDCHAR
STARTCHAR 3163
ENCODING 12643
SWIDTH 1000 0
DWIDTH 24 0
BBX 2 22 11 -4
BITMAP
C0
C0
C0
C0
C0
C0
C0
C0
C0
C0
C0
C0
C0
C0
C0
C0
C0
C0
C0
C0
C0
C0
ENDCHAR
STARTCHAR 3164
ENCODING 12644
SWIDTH 1000 0
DWIDTH 24 0
BBX 0 0 0 0
BITMAP
ENDCHAR
STARTCHAR 3165
ENCODING 12645
SWIDTH 1000 0
DWIDTH 24 0
BBX 15 10 5 2
BITMAP
C0C0
C0C0
C0C0
C0C0
C0C0
C0C0
C0C0
C0C0
C0C0
FEFE
ENDCHAR
STARTCHAR 3166
ENCODING 12646
SWIDTH 1000 0
DWIDTH 24 0
BBX 14 9 5 3
BITMAP
C1FC
C180
C180
C180
C180
C180
C180
C180
FFFC
ENDCHAR
STARTCHAR 3167
ENCODING 12647
SWIDTH 1000 0
DWIDTH 24 0
BBX 16 11 4 3
BITMAP
C018
C018
C018
C018
C038
C038
C02C
C064
C0C6
FFC3
0181
ENDCHAR
STARTCHAR 3168
ENCODING 12648
SWIDTH 1000 0
DWIDTH 24 0
BBX 14 11 5 2
BITMAP
C000
C020
C060
C070
C050
C0D0
C0D8
C188
C188
FF84
03FC
ENDCHAR
STARTCHAR 3169
ENCODING 12649
SWIDTH 1000 0
DWIDTH 24 0
BBX 20 11 2 1
BITMAP
000100
FBE180
183180
183180
183180
F83380
C03380
C032C0
C03640
CC3C60
FC3C30
ENDCHAR
STARTCHAR 316A
ENCODING 12650
SWIDTH 1000 0
DWIDTH 24 0
BBX 15 10 4 2
BITMAP
FEFE
06C0
06C0
06C0
7EC0
C0C0
C0C0
C0C0
C0FE
7E00
ENDCHAR
STARTCHAR 316B
ENCODING 12651
SWIDTH 1000 0
DWIDTH 24 0
BBX 19 11 2 1
BITMAP
033180
FB3180
1B3100
1B3100
1BF100
FB3380
C33380
C33280
C336C0
C73C60
FDE820
ENDCHAR
STARTCHAR 316C
ENCODING 12652
SWIDTH 1000 0
DWIDTH 24 0
BBX 15 10 4 2
BITMAP
FE10
0618
0638
0638
7E2C
C064
C064
C046
C0C2
7FFE
ENDCHAR
STARTCHAR 316D
ENCODING 12653
SWIDTH 1000 0
DWIDTH 24 0
BBX 16 10 4 2
BITMAP
FEFF
0600
0600
067C
FCC6
C0C6
C082
C0C6
C0C6
FE7C
ENDCHAR
STARTCHAR 316E
ENCODING 12654
SWIDTH 1000 0
DWIDTH 24 0
BBX 15 10 5 2
BITMAP
FCC6
C6C6
C6C6
C6FE
C6C6
C6C6
C6C6
C6C6
C6C6
FCFC
ENDCHAR
STARTCHAR 316F
ENCODING 12655
SWIDTH 1000 0
DWIDTH 24 0
BBX 16 11 4 2
BITMAP
FC30
C630
C630
C630
C678
C678
C64C
C6CC
C786
FF83
0100
ENDCHAR
STARTCHAR 3170
ENCODING 12656
SWIDTH 1000 0
DWIDTH 24 0
BBX 14 10 5 2
BITMAP
FC20
8C20
8C70
8C70
8C58
8CC8
8CC8
8D8C
8D84
FDFC
ENDCHAR
STARTCHAR 3171
ENCODING 12657
SWIDTH 1000 0
DWIDTH 24 0
BBX 12 16 6 -2
BITMAP
FFF0
C030
C030
C030
C030
C030
C030
FFF0
0000
0000
0F00
1980
1080
1080
1980
0F00
ENDCHAR
STARTCHAR 3172
ENCODING 12658
SWIDTH 1000 0
DWIDTH 24 0
BBX 14 11 5 1
BITMAP
8400
C7FC
C60C
C60C
FE0C
C60C
C60C
C60C
C60C
C60C
FC0C
ENDCHAR
STARTCHAR 3173
ENCODING 12659
SWIDTH 1000 0
DWIDTH 24 0
BBX 15 10 4 2
BITMAP
C6FE
C6C0
C6C0
FEC0
C6C0
C6C0
C6C0
C6C0
C6C0
7E7E
ENDCHAR
STARTCHAR 3174
ENCODING 12660
SWIDTH 1000 0
DWIDTH 24 0
BBX 18 11 3 1
BITMAP
CC6000
CC6F80
CC60C0
CC60C0
FC60C0
CC60C0
CCF0C0
CCD0C0
CD98C0
CD8CC0
FF04C0
ENDCHAR
STARTCHAR 3175
ENCODING 12661
SWIDTH 1000 0
DWIDTH 24 0
BBX 19 11 2 1
BITMAP
446000
C663E0
C66300
C66300
FE6300
C67300
C6F300
C6D300
C69B00
C78F00
7F07E0
ENDCHAR
STARTCHAR 3176
ENCODING 12662
SWIDTH 1000 0
DWIDTH 24 0
BBX 17 11 3 1
BITMAP
420000
C6FF00
C60200
C60600
FE0400
C60C00
C61C00
C63600
C66300
C6C180
7E8000
ENDCHAR
STARTCHAR 3177
ENCODING 12663
SWIDTH 1000 0
DWIDTH 24 0
BBX 15 11 4 1
BITMAP
427E
C6C0
C6C0
C6C0
FEC0
C6FC
C6C0
C6C0
C6C0
C6C0
7E7E
ENDCHAR
STARTCHAR 3178
ENCODING 12664
SWIDTH 1000 0
DWIDTH 24 0
BBX 12 16 6 -1
BITMAP
C030
C030
C030
FFF0
C030
C030
C030
FFF0
0000
0000
0F00
1980
1080
1080
1980
0F00
ENDCHAR
STARTCHAR 3179
ENCODING 12665
SWIDTH 1000 0
DWIDTH 24 0
BBX 14 16 5 -1
BITMAP
C78C
C78C
C78C
FFFC
C78C
C78C
C78C
FDFC
0000
0000
0780
0CC0
0840
0840
0CC0
0780
ENDCHAR
STARTCHAR 317A
ENCODING 12666
SWIDTH 1000 0
DWIDTH 24 0
BBX 14 11 5 1
BITMAP
0C00
0DFC
0C0C
0C0C
0C0C
1C0C
1E0C
320C
330C
618C
C08C
ENDCHAR
STARTCHAR 317B
ENCODING 12667
SWIDTH 1000 0
DWIDTH 24 0
BBX 16 11 4 2
BITMAP
0C60
0C60
0C60
0C60
1C60
1C60
1E60
3260
2360
E1FF
C080
ENDCHAR
STARTCHAR 317C
ENCODING 12668
SWIDTH 1000 0
DWIDTH 24 0
BBX 16 11 4 1
BITMAP
0C00
0C7F
0C60
0C60
0C60
1C60
1E60
3660
3360
61FF
C080
ENDCHAR
STARTCHAR 317D
ENCODING 12669
SWIDTH 1000 0
DWIDTH 24 0
BBX 16 11 4 1
BITMAP
0C21
0C63
0C63
0C63
0C7F
1C63
1E63
3663
3363
61E3
C0BF
ENDCHAR
STARTCHAR 317E
ENCODING 12670
SWIDTH 1000 0
DWIDTH 24 0
BBX 19 11 3 1
BITMAP
0C0000
0C3F80
0C0180
0C0180
0C0300
1C0200
1E0600
360F00
331980
61B0E0
C0A040
ENDCHAR
STARTCHAR 317F
ENCODING 12671
SWIDTH 1000 0
DWIDTH 24 0
BBX 10 10 7 3
BITMAP
0C00
0C00
1E00
1200
3300
2100
2100
6180
4080
FFC0
ENDCHAR
STARTCHAR 3180
ENCODING 12672
SWIDTH 1000 0
DWIDTH 24 0
BBX 16 10 4 3
BITMAP
7C3E
4426
C663
C643
8241
8643
C643
C663
6C3E
381C
ENDCHAR
STARTCHAR 3181
ENCODING 12673
SWIDTH 1000 0
DWIDTH 24 0
BBX 12 13 6 0
BITMAP
0600
0600
1F80
3BC0
6060
C060
C030
C030
C030
C060
6060
3FC0
1F00
ENDCHAR
STARTCHAR 3182
ENCODING 12674
SWIDTH 1000 0
DWIDTH 24 0
BBX 18 11 3 2
BITMAP
0C0C00
0C0C00
3E0C00
630C00
418C00
C19C00
C19E00
C19200
41B300
636180
3EC0C0
ENDCHAR
STARTCHAR 3183
ENCODING 12675
SWIDTH 1000 0
DWIDTH 24 0
BBX 16 11 4 2
BITMAP
1800
1808
7E18
6318
C114
C1B4
C1B6
C1E2
C162
6363
3EFF
ENDCHAR
STARTCHAR 3184
ENCODING 12676
SWIDTH 1000 0
DWIDTH 24 0
BBX 14 16 5 -2
BITMAP
7FF8
7FF8
1860
1860
1860
1860
1860
FFFC
FFFC
0000
0780
0CC0
0840
0840
0CC0
0780
ENDCHAR
STARTCHAR 3185
ENCODING 12677
SWIDTH 1000 0
DWIDTH 24 0
BBX 17 11 3 2
BITMAP
3E1F00
000000
FF7F80
000000
000000
3E1F00
633180
432180
432180
633180
3E1F00
ENDCHAR
STARTCHAR 3186
ENCODING 12678
SWIDTH 1000 0
DWIDTH 24 0
BBX 13 13 5 0
BITMAP
FFF8
FFF8
0000
0000
1FC0
3860
3030
6030
6030
2030
3030
18E0
0FC0
ENDCHAR
STARTCHAR 3187
ENCODING 12679
SWIDTH 1000 0
DWIDTH 24 0
BBX 21 22 1 -4
BITMAP
000080
0000C0
0000C0
0000C0
0000C0
0000C0
0000C0
0000C0
0000F8
0C30C0
0C30C0
0C30C0
0C30C0
0C30C0
0C30F8
0C3CC0
FFFEC0
7FC0C0
0000C0
0000C0
0000C0
0000C0
ENDCHAR
STARTCHAR 3188
ENCODING 12680
SWIDTH 1000 0
DWIDTH 24 0
BBX 20 22 2 -4
BITMAP
000030
000630
000630
000630
000630
000630
000630
000630
1987F0
198630
198630
198630
198630
198630
1987F0
FFF630
FFF630
000630
000630
000630
000630
000030
ENDCHAR
STARTCHAR 3189
ENCODING 12681
SWIDTH 1000 0
DWIDTH 24 0
BBX 18 22 3 -4
BITMAP
0000C0
0000C0
0000C0
0000C0
0000C0
0000C0
0000C0
0000C0
0000C0
0C30C0
0C30C0
0C30C0
0C30C0
0C30C0
0C30C0
0C36C0
FFFEC0
FF80C0
0000C0
0000C0
0000C0
0000C0
ENDCHAR
STARTCHAR 318A
ENCODING 12682
SWIDTH 1000 0
DWIDTH 24 0
BBX 19 22 3 -4
BITMAP
000040
000060
000060
000060
000060
000060
000060
000060
000060
000260
FFFE60
FFE060
0C6060
0C6FE0
0C6060
0C6060
0C6060
0C6FE0
0C6060
0C6060
0C6060
000060
ENDCHAR
STARTCHAR 318B
ENCODING 12683
SWIDTH 1000 0
DWIDTH 24 0
BBX 20 22 2 -4
BITMAP
000030
000330
000330
000330
000330
000330
000330
000330
000330
000330
FFFB30
FFC330
0CC330
0CDF30
0CC330
0CC330
0CC330
0CDF30
0CC330
0CC330
0CC330
000030
ENDCHAR
STARTCHAR 318C
ENCODING 12684
SWIDTH 1000 0
DWIDTH 24 0
BBX 18 22 3 -4
BITMAP
0000C0
0000C0
0000C0
0000C0
0000C0
0000C0
0000C0
0000C0
0000C0
0000C0
000CC0
FFFCC0
FF30C0
0C30C0
0C30C0
0C30C0
0C30C0
0C30C0
0C30C0
0C30C0
0C30C0
0000C0
ENDCHAR
STARTCHAR 318D
ENCODING 12685
SWIDTH 1000 0
DWIDTH 24 0
BBX 2 2 11 6
BITMAP
C0
C0
ENDCHAR
STARTCHAR 318E
ENCODING 12686
SWIDTH 1000 0
DWIDTH 24 0
BBX 8 22 8 -4
BITMAP
03
03
03
03
03
03
03
03
03
03
C3
C3
03
03
03
03
03
03
03
03
03
03
ENDCHAR
STARTCHAR 3200
ENCODING 12800
SWIDTH 1000 0
DWIDTH 24 0
BBX 21 22 1 -3
BITMAP
100020
200030
200010
600010
400018
400008
4FFF08
4FFF08
400308
C00308
C00308
C00308
400308
400308
400308
400308
400318
400018
200010
200010
200020
100020
ENDCHAR
STARTCHAR 3201
ENCODING 12801
SWIDTH 1000 0
DWIDTH 24 0
BBX 21 22 1 -3
BITMAP
100020
300010
200010
200010
600018
430008
430008
430008
430008
C30008
C30008
C30008
430008
430008
43FFC8
43FFC8
400008
600018
200010
200010
300010
100020
ENDCHAR
STARTCHAR 3202
ENCODING 12802
SWIDTH 1000 0
DWIDTH 24 0
BBX 21 22 1 -3
BITMAP
100020
200030
200010
600010
600018
400008
47FF88
460008
460008
C60008
C60008
C60008
460008
460008
47FF88
47FF88
400008
600018
200010
200010
300030
100020
ENDCHAR
STARTCHAR 3203
ENCODING 12803
SWIDTH 1000 0
DWIDTH 24 0
BBX 21 22 1 -3
BITMAP
100020
200010
200010
600010
600018
47FF88
47FF88
400188
400188
C00188
C7FF88
C60008
460008
460008
47FF88
47FF88
400008
600018
200010
200010
300030
100020
ENDCHAR
STARTCHAR 3204
ENCODING 12804
SWIDTH 1000 0
DWIDTH 24 0
BBX 21 22 1 -3
BITMAP
100020
200030
200010
600010
600018
47FF88
47FF88
460188
460188
C60188
C60188
C60188
460188
460188
47FF88
47FF88
400008
600018
200010
200010
200020
100020
ENDCHAR
STARTCHAR 3205
ENCODING 12805
SWIDTH 1000 0
DWIDTH 24 0
BBX 21 22 1 -3
BITMAP
100020
200030
200010
600010
600018
460188
460188
460188
460188
C7FF88
C7FF88
C60188
460188
460188
47FF88
47FF88
400008
600018
200010
200010
300030
100020
ENDCHAR
STARTCHAR 3206
ENCODING 12806
SWIDTH 1000 0
DWIDTH 24 0
BBX 21 22 1 -3
BITMAP
100020
200030
200010
600010
600018
403008
403008
403008
403008
C07008
C07808
C0CC08
41C608
438708
4701C8
4E0088
400018
600018
200010
200010
300020
100020
ENDCHAR
STARTCHAR 3207
ENCODING 12807
SWIDTH 1000 0
DWIDTH 24 0
BBX 21 22 1 -3
BITMAP
100020
200030
200010
600010
600018
40FC08
41FE08
430308
460188
C60188
C60188
C60188
460188
430308
438708
41FE08
400008
600018
200010
200010
300020
100020
ENDCHAR
STARTCHAR 3208
ENCODING 12808
SWIDTH 1000 0
DWIDTH 24 0
BBX 21 22 1 -3
BITMAP
100020
300010
200010
200010
600018
47FFC8
47FFC8
403008
403008
C03008
C07808
C07808
40CC08
418608
438388
4701C8
440048
600018
200010
200010
100010
100020
ENDCHAR
STARTCHAR 3209
ENCODING 12809
SWIDTH 1000 0
DWIDTH 24 0
BBX 21 22 1 -3
BITMAP
100020
300010
200010
200010
60FC18
400008
400008
47FFC8
403008
C03008
C03008
C07808
406C08
40C608
438388
4701C8
440048
600018
200010
200010
100010
100020
ENDCHAR
STARTCHAR 320A
ENCODING 12810
SWIDTH 1000 0
DWIDTH 24 0
BBX 21 22 1 -3
BITMAP
100020
200010
200010
600010
600018
47FF88
47FF88
400188
400188
C00188
C00188
C7FF88
478188
400188
400188
400188
400188
600018
200010
200010
300030
100020
ENDCHAR
STARTCHAR 320B
ENCODING 12811
SWIDTH 1000 0
DWIDTH 24 0
BBX 21 22 1 -3
BITMAP
100020
300010
200010
200010
600018
47FF88
47FF88
460008
460008
C60008
C7FF88
C60008
460008
460008
47FF88
47FF88
400008
600018
200010
200010
300030
100020
ENDCHAR
STARTCHAR 320C
ENCODING 12812
SWIDTH 1000 0
DWIDTH 24 0
BBX 21 22 1 -3
BITMAP
100020
300010
200010
200010
600018
47FFC8
400008
400008
418208
C18608
C18608
C18608
418608
408608
408608
4FFFC8
400008
600018
200010
200010
300010
100020
ENDCHAR
STARTCHAR 320D
ENCODING 12813
SWIDTH 1000 0
DWIDTH 24 0
BBX 21 22 1 -4
BITMAP
100020
300010
200010
200010
600018
40FC08
400008
4FFFC8
4FFFC8
C00008
C0FC08
C18708
430108
430188
430188
418308
40FE08
600018
200010
200010
300030
100020
ENDCHAR
STARTCHAR 320E
ENCODING 12814
SWIDTH 1000 0
DWIDTH 24 0
BBX 21 22 1 -4
BITMAP
100020
300020
200110
200110
600110
4FF118
401108
401108
401108
C03108
C021E8
C06108
40C108
418108
430108
460108
480118
600118
200110
200110
300020
100020
ENDCHAR
STARTCHAR 320F
ENCODING 12815
SWIDTH 1000 0
DWIDTH 24 0
BBX 21 22 1 -3
BITMAP
100020
300020
200110
200110
600118
480118
480108
480108
480108
C80108
C801E8
C80108
480108
483D08
4FF108
400108
400118
600110
200110
200130
300020
100060
ENDCHAR
STARTCHAR 3210
ENCODING 12816
SWIDTH 1000 0
DWIDTH 24 0
BBX 21 22 1 -4
BITMAP
100020
300020
200110
200110
600110
4FF118
480108
480108
480108
C80108
C801E8
C80108
480108
480108
481D08
4FF108
400118
600118
200110
200110
200020
100020
ENDCHAR
STARTCHAR 3211
ENCODING 12817
SWIDTH 1000 0
DWIDTH 24 0
BBX 21 22 1 -4
BITMAP
100020
200010
200090
600098
6FF098
401088
401088
401088
401088
C01088
CFF0F8
C80088
480088
480088
480488
4FFC88
400088
600098
200090
200090
300010
100020
ENDCHAR
STARTCHAR 3212
ENCODING 12818
SWIDTH 1000 0
DWIDTH 24 0
BBX 21 22 1 -5
BITMAP
100020
300010
200090
200090
600098
4FF088
481088
481088
481088
481088
C810F8
C81088
481088
481088
481088
4FF088
400088
600098
200098
200090
200010
100030
ENDCHAR
STARTCHAR 3213
ENCODING 12819
SWIDTH 1000 0
DWIDTH 24 0
BBX 21 22 1 -4
BITMAP
100020
300010
200090
200090
600098
481088
481088
481088
481088
CFF088
C810F8
C81088
481088
481088
481088
4FF088
400088
600098
200098
200090
200010
100020
ENDCHAR
STARTCHAR 3214
ENCODING 12820
SWIDTH 1000 0
DWIDTH 24 0
BBX 21 22 1 -3
BITMAP
100020
200020
200110
600110
618118
418118
418108
418108
418108
C381E8
C3C108
C64108
466108
4C3108
581108
400108
400118
600110
200110
200130
300020
100020
ENDCHAR
STARTCHAR 3215
ENCODING 12821
SWIDTH 1000 0
DWIDTH 24 0
BBX 21 22 1 -3
BITMAP
100020
300020
200110
200110
63C118
466108
4C3108
481108
481108
C81108
C811E8
C81108
481108
4C3108
466108
43C108
400118
600110
200110
200110
100020
100020
ENDCHAR
STARTCHAR 3216
ENCODING 12822
SWIDTH 1000 0
DWIDTH 24 0
BBX 21 22 1 -4
BITMAP
100020
100010
200090
200090
600098
4FFC88
408088
408088
408088
41C088
C140F8
C16088
432088
461088
4C1C88
480488
400088
600098
200090
200090
100010
100020
ENDCHAR
STARTCHAR 3217
ENCODING 12823
SWIDTH 1000 0
DWIDTH 24 0
BBX 21 23 1 -5
BITMAP
100020
100030
200010
200090
600098
43E098
400088
4FFC88
408088
408088
C08088
C180F8
C1C088
434088
422088
443088
5C0C88
400088
600098
200090
200090
300010
100020
ENDCHAR
STARTCHAR 3218
ENCODING 12824
SWIDTH 1000 0
DWIDTH 24 0
BBX 21 22 1 -3
BITMAP
100030
300010
200090
200098
67F898
400888
400888
400888
401088
C7F088
C410F8
C02088
406088
40C088
418088
470088
4C0088
600098
200090
200090
100010
100020
ENDCHAR
STARTCHAR 3219
ENCODING 12825
SWIDTH 1000 0
DWIDTH 24 0
BBX 21 22 1 -4
BITMAP
100020
300020
200110
200110
600110
4FF918
480108
480108
480108
C80108
CFF1E8
C80108
480108
480108
480D08
4FF908
400118
600118
200110
200110
300020
100020
ENDCHAR
STARTCHAR 321A
ENCODING 12826
SWIDTH 1000 0
DWIDTH 24 0
BBX 21 22 1 -3
BITMAP
100020
300030
200090
200090
600098
4FFC88
400088
400088
421088
C21088
C230F8
C23088
423088
422088
422E88
5FF888
400088
600098
200090
200090
300030
100020
ENDCHAR
STARTCHAR 321B
ENCODING 12827
SWIDTH 1000 0
DWIDTH 24 0
BBX 21 22 1 -4
BITMAP
100020
300010
200090
200098
63E098
400088
400088
5FFC88
400088
C00088
C3E0F8
C63088
441088
441088
441088
463088
43E088
600098
200090
200090
300010
100020
ENDCHAR
STARTCHAR 321C
ENCODING 12828
SWIDTH 1000 0
DWIDTH 24 0
BBX 20 22 2 -3
BITMAP
200040
600060
400020
400020
CFFF30
806010
807010
80D810
838C10
8E0790
980190
800010
BFFFD0
802010
802010
802010
C02030
C02030
402020
402020
200040
200040
ENDCHAR
STARTCHAR 3231
ENCODING 12849
SWIDTH 1000 0
DWIDTH 24 0
BBX 21 22 2 -3
BITMAP
200040
200020
440420
441430
C41410
843410
BFBF98
846418
864408
8E0408
8FFFC8
9D8E08
949E08
B41718
A43518
846590
C4C4D0
440410
440430
440420
200020
200040
ENDCHAR
STARTCHAR 3239
ENCODING 12857
SWIDTH 1000 0
DWIDTH 24 0
BBX 21 22 2 -3
BITMAP
200060
200020
41A020
41A410
C32610
C22210
862018
8C2398
8DFF08
9C3008
B43008
841008
841008
841808
841818
840818
C40CD0
440C90
440790
440320
200020
200040
ENDCHAR
STARTCHAR 3260
ENCODING 12896
SWIDTH 1000 0
DWIDTH 24 0
BBX 21 21 1 -3
BITMAP
00F800
070700
080080
100040
200020
400010
400010
47FF08
800308
800308
800308
800308
800308
800308
400310
400310
200320
100040
080080
060300
01FC00
ENDCHAR
STARTCHAR 3261
ENCODING 12897
SWIDTH 1000 0
DWIDTH 24 0
BBX 21 21 1 -3
BITMAP
00F800
070700
080080
100040
200020
400010
460010
460008
860008
860008
860008
860008
860008
860008
47FF10
400010
200020
100040
080080
060300
01FC00
ENDCHAR
STARTCHAR 3262
ENCODING 12898
SWIDTH 1000 0
DWIDTH 24 0
BBX 21 21 1 -3
BITMAP
00F800
070700
080080
100040
200020
400010
47FF10
460008
860008
860008
860008
860008
860008
860008
460010
47FF10
200020
100040
080080
060300
01FC00
ENDCHAR
STARTCHAR 3263
ENCODING 12899
SWIDTH 1000 0
DWIDTH 24 0
BBX 21 21 1 -3
BITMAP
00F800
070700
080080
100040
200020
400010
47FF10
400308
800308
800308
87FF08
860008
860008
860008
460010
47FF10
200020
100040
080080
060300
01FC00
ENDCHAR
STARTCHAR 3264
ENCODING 12900
SWIDTH 1000 0
DWIDTH 24 0
BBX 21 21 1 -3
BITMAP
00F800
070700
080080
100040
200020
400010
47FF90
460188
860188
860188
860188
860188
860188
860188
47FF90
460190
200020
100040
080080
060300
01FC00
ENDCHAR
STARTCHAR 3265
ENCODING 12901
SWIDTH 1000 0
DWIDTH 24 0
BBX 21 21 1 -3
BITMAP
00F800
070700
080080
100040
200020
400010
460190
460188
860188
87FF88
860188
860188
860188
860188
47FF90
460190
200020
100040
080080
060300
01FC00
ENDCHAR
STARTCHAR 3266
ENCODING 12902
SWIDTH 1000 0
DWIDTH 24 0
BBX 21 21 1 -3
BITMAP
00F800
070700
080080
100040
200020
403010
402010
402008
807008
807008
80D808
80CC08
818608
830308
4E0190
400010
200020
100040
080080
060300
01FC00
ENDCHAR
STARTCHAR 3267
ENCODING 12903
SWIDTH 1000 0
DWIDTH 24 0
BBX 21 21 1 -3
BITMAP
00F800
070700
080080
100040
200020
400010
41FC10
438608
860308
860108
860188
860188
860108
830308
43CE10
40FC10
200020
100040
080080
060300
01FC00
ENDCHAR
STARTCHAR 3268
ENCODING 12904
SWIDTH 1000 0
DWIDTH 24 0
BBX 21 21 1 -3
BITMAP
00F800
070700
080080
100040
200020
400010
47FF90
403008
802008
803008
807008
805808
80CC08
818608
470390
4E0190
200020
100040
080080
060300
01FC00
ENDCHAR
STARTCHAR 3269
ENCODING 12905
SWIDTH 1000 0
DWIDTH 24 0
BBX 21 21 1 -3
BITMAP
00F800
070700
080080
100040
20FC20
400010
400010
47FF88
803008
803008
803008
807808
80CC08
818608
470390
4E0090
200020
100040
080080
060300
01FC00
ENDCHAR
STARTCHAR 326A
ENCODING 12906
SWIDTH 1000 0
DWIDTH 24 0
BBX 21 21 1 -3
BITMAP
00F800
070700
080080
100040
200020
400010
47FF10
400308
800308
800308
800308
87FF08
878308
800308
400310
400310
200020
100040
080080
060300
01FC00
ENDCHAR
STARTCHAR 326B
ENCODING 12907
SWIDTH 1000 0
DWIDTH 24 0
BBX 21 21 1 -3
BITMAP
00F800
070700
080080
100040
200020
400010
43FF90
420008
820008
820008
83FF88
820008
820008
820008
420010
43FF90
200020
100040
080080
060300
01FC00
ENDCHAR
STARTCHAR 326C
ENCODING 12908
SWIDTH 1000 0
DWIDTH 24 0
BBX 21 21 1 -3
BITMAP
00F800
070700
080080
100040
200020
400010
47FF90
400008
810608
810608
818608
818608
818608
818408
418410
4FFF90
200020
100040
080080
060300
01FC00
ENDCHAR
STARTCHAR 326D
ENCODING 12909
SWIDTH 1000 0
DWIDTH 24 0
BBX 21 21 1 -3
BITMAP
00F800
070700
080080
100040
200020
40FC10
400010
400008
8FFFC8
800008
80FC08
838608
820308
860308
420310
430610
21FC20
100040
080080
060300
01FC00
ENDCHAR
STARTCHAR 326E
ENCODING 12910
SWIDTH 1000 0
DWIDTH 24 0
BBX 21 21 1 -3
BITMAP
00F800
070700
080080
100240
200220
47F210
401210
401208
803208
802208
8023C8
804208
80C208
818208
430210
4C0210
200220
100240
080080
060300
01FC00
ENDCHAR
STARTCHAR 326F
ENCODING 12911
SWIDTH 1000 0
DWIDTH 24 0
BBX 21 21 1 -3
BITMAP
00F800
070700
080080
100140
200120
440110
440110
440108
840108
840108
8401E8
840108
840D08
87F108
400110
400110
200120
100140
080080
060300
01FC00
ENDCHAR
STARTCHAR 3270
ENCODING 12912
SWIDTH 1000 0
DWIDTH 24 0
BBX 21 21 1 -3
BITMAP
00F800
070700
080080
100140
200120
47F110
440110
440108
840108
840108
8401E8
840108
840108
840108
47F910
400110
200120
100140
080080
060300
01FC00
ENDCHAR
STARTCHAR 3271
ENCODING 12913
SWIDTH 1000 0
DWIDTH 24 0
BBX 21 21 1 -3
BITMAP
00F800
070700
080080
100140
200120
47F110
401110
401108
801108
801108
87F1E8
840108
840108
840108
440D10
47F910
200120
100140
080080
060300
01FC00
ENDCHAR
STARTCHAR 3272
ENCODING 12914
SWIDTH 1000 0
DWIDTH 24 0
BBX 21 21 1 -3
BITMAP
00F800
070700
080080
100140
200120
47F110
441110
441108
841108
841108
8411E8
841108
841108
841108
47F110
400110
200120
100140
080080
060300
01FC00
ENDCHAR
STARTCHAR 3273
ENCODING 12915
SWIDTH 1000 0
DWIDTH 24 0
BBX 21 21 1 -3
BITMAP
00F800
070700
080080
100140
200120
401110
441110
441108
841108
87F108
8411E8
841108
841108
841108
47F110
400110
200120
100140
080080
060300
01FC00
ENDCHAR
STARTCHAR 3274
ENCODING 12916
SWIDTH 1000 0
DWIDTH 24 0
BBX 21 21 1 -3
BITMAP
00F800
070700
080080
100140
200120
40C110
408110
408108
80C108
81C108
81C1E8
836108
832108
863108
4C1110
400110
200120
100140
080080
060300
01FC00
ENDCHAR
STARTCHAR 3275
ENCODING 12917
SWIDTH 1000 0
DWIDTH 24 0
BBX 21 21 1 -3
BITMAP
00F800
070700
080080
100140
200120
43C110
442110
4C3108
881108
881108
8811E8
881108
8C3108
842108
43C110
400110
200120
100140
080080
060300
01FC00
ENDCHAR
STARTCHAR 3276
ENCODING 12918
SWIDTH 1000 0
DWIDTH 24 0
BBX 21 21 1 -3
BITMAP
00F800
070700
080080
100140
200120
47F910
408110
408108
808108
818108
8141E8
816108
822108
861108
4C0910
400110
200120
100140
080080
060300
01FC00
ENDCHAR
STARTCHAR 3277
ENCODING 12919
SWIDTH 1000 0
DWIDTH 24 0
BBX 21 21 1 -3
BITMAP
00F800
070700
080080
100140
21E120
400110
400110
4FF908
808108
808108
8081E8
81C108
816108
822108
4C1910
480910
200120
100140
080080
060300
01FC00
ENDCHAR
STARTCHAR 3278
ENCODING 12920
SWIDTH 1000 0
DWIDTH 24 0
BBX 21 21 1 -3
BITMAP
00F800
070700
080080
100140
200120
47F110
401110
401108
801108
87E108
8421E8
804108
80C108
818108
430110
4C0110
200120
100140
080080
060300
01FC00
ENDCHAR
STARTCHAR 3279
ENCODING 12921
SWIDTH 1000 0
DWIDTH 24 0
BBX 21 21 1 -3
BITMAP
00F800
070700
080080
100140
200120
47F110
440110
440108
840108
840108
87F1E8
840108
840108
840508
47F910
400110
200120
100140
080080
060300
01FC00
ENDCHAR
STARTCHAR 327A
ENCODING 12922
SWIDTH 1000 0
DWIDTH 24 0
BBX 21 21 1 -3
BITMAP
00F800
070700
080080
100140
200120
47F910
400110
400108
823108
822108
8221E8
822108
822108
822D08
4FF910
400110
200120
100140
080080
060300
01FC00
ENDCHAR
STARTCHAR 327B
ENCODING 12923
SWIDTH 1000 0
DWIDTH 24 0
BBX 21 21 1 -3
BITMAP
00F800
070700
080080
100240
200220
43C210
400210
4FFA08
800208
800208
83C3C8
863208
841208
841208
463210
43E210
200220
100240
080080
060300
01FC00
ENDCHAR
ENDFONT
